<svg version="1.1" id="Layer_1" xmlns="http://www.w3.org/2000/svg" xmlns:xlink="http://www.w3.org/1999/xlink" x="0px" y="0px"
	 width="100%" viewBox="0 0 128 100" enable-background="new 0 0 128 100" xml:space="preserve">
<path fill="#E5EBFE" opacity="1.000000" stroke="none" 
	d="
M117.000000,101.000000 
	C82.645775,101.000000 48.291542,101.000000 13.468018,100.531342 
	C12.999147,67.041786 12.999574,34.020893 13.000000,1.000000 
	C47.354229,1.000000 81.708458,1.000000 116.531982,1.468657 
	C117.000854,34.958210 117.000427,67.979103 117.000000,101.000000 
M40.064720,82.558495 
	C42.391171,83.300545 44.704243,84.629959 47.046379,84.683296 
	C57.363853,84.918266 67.690918,84.881088 78.012100,84.751488 
	C84.789253,84.666389 88.335640,81.013092 88.606209,74.165993 
	C88.721901,71.238373 88.625557,68.302383 88.625557,65.375237 
	C91.216812,65.138237 93.133408,64.962944 95.238983,64.770370 
	C95.238983,62.411991 95.238983,60.345379 95.238983,58.142635 
	C92.926201,58.005630 90.988602,57.890850 88.629181,57.751083 
	C88.629181,54.512367 88.629219,51.555897 88.629173,48.599426 
	C88.628990,36.349476 87.634781,35.057873 76.306816,32.433922 
	C74.578522,29.576666 81.854332,24.174932 75.061623,23.897484 
	C67.796013,23.600721 74.851120,29.781715 72.704849,33.048653 
	C64.602058,33.048653 56.148048,32.989861 47.695263,33.066231 
	C40.186077,33.134071 36.696232,36.513477 36.443985,43.992699 
	C36.293732,48.447792 36.416447,52.912086 36.416447,57.580273 
	C34.091129,57.831188 32.183460,58.037041 30.219879,58.248924 
	C30.219879,60.580669 30.219879,62.653034 30.219879,64.782494 
	C32.375080,65.038956 34.270336,65.264488 34.879307,65.336960 
	C36.573299,71.472389 38.032558,76.757629 40.064720,82.558495 
z"/>
<path fill="#000000" opacity="1.000000" stroke="none" 
	d="
M12.520824,1.000000 
	C12.999574,34.020893 12.999147,67.041786 12.999360,100.531342 
	C9.014845,101.000000 5.029690,101.000000 1.042889,100.999992 
	C1.041244,67.666649 1.041244,34.333309 1.041244,1.000000 
	C4.735541,1.000000 8.388595,1.000000 12.520824,1.000000 
z"/>
<path fill="#000000" opacity="1.000000" stroke="none" 
	d="
M117.479172,101.000000 
	C117.000427,67.979103 117.000854,34.958210 117.000641,1.468657 
	C120.985153,1.000000 124.970306,1.000000 128.957123,1.000008 
	C128.958771,34.333355 128.958771,67.666695 128.958771,101.000000 
	C125.264465,101.000000 121.611412,101.000000 117.479172,101.000000 
z"/>
<path fill="#414143" opacity="1.000000" stroke="none" 
	d="
M39.778267,82.300690 
	C38.032558,76.757629 36.573299,71.472389 34.879307,65.336960 
	C34.270336,65.264488 32.375080,65.038956 30.219879,64.782494 
	C30.219879,62.653034 30.219879,60.580669 30.219879,58.248924 
	C32.183460,58.037041 34.091129,57.831188 36.416447,57.580273 
	C36.416447,52.912086 36.293732,48.447792 36.443985,43.992699 
	C36.696232,36.513477 40.186077,33.134071 47.695263,33.066231 
	C56.148048,32.989861 64.602058,33.048653 72.704849,33.048653 
	C74.851120,29.781715 67.796013,23.600721 75.061623,23.897484 
	C81.854332,24.174932 74.578522,29.576666 76.306816,32.433922 
	C87.634781,35.057873 88.628990,36.349476 88.629173,48.599426 
	C88.629219,51.555897 88.629181,54.512367 88.629181,57.751083 
	C90.988602,57.890850 92.926201,58.005630 95.238983,58.142635 
	C95.238983,60.345379 95.238983,62.411991 95.238983,64.770370 
	C93.133408,64.962944 91.216812,65.138237 88.625557,65.375237 
	C88.625557,68.302383 88.721901,71.238373 88.606209,74.165993 
	C88.335640,81.013092 84.789253,84.666389 78.012100,84.751488 
	C67.690918,84.881088 57.363853,84.918266 47.046379,84.683296 
	C44.704243,84.629959 42.391171,83.300545 39.778267,82.300690 
M44.878757,82.122650 
	C56.003414,82.212601 67.128937,82.421707 78.252357,82.341125 
	C83.633842,82.302139 85.941246,79.663300 85.966576,74.166153 
	C86.013275,64.031212 86.088959,53.893688 85.883568,43.762695 
	C85.844643,41.842884 84.558220,39.948364 83.650955,37.261337 
	C82.454941,36.753189 81.263222,35.815525 80.062256,35.803535 
	C68.440773,35.687572 56.813534,35.547558 45.197430,35.819553 
	C41.138306,35.914600 39.102039,38.909512 39.081509,42.939960 
	C39.027382,53.567589 39.044437,64.195709 39.072346,74.823532 
	C39.081459,78.292557 40.434704,80.890862 44.878757,82.122650 
z"/>
<path fill="#D8D8D8" opacity="1.000000" stroke="none" 
	d="
M44.053104,81.838303 
	C40.434704,80.890862 39.081459,78.292557 39.072346,74.823532 
	C39.044437,64.195709 39.027382,53.567589 39.081509,42.939960 
	C39.102039,38.909512 41.138306,35.914600 45.197430,35.819553 
	C56.813534,35.547558 68.440773,35.687572 80.062256,35.803535 
	C81.263222,35.815525 82.454941,36.753189 83.498520,37.940468 
	C83.299225,39.762669 83.216370,40.905575 83.211090,42.048840 
	C83.160728,52.937302 83.171959,63.826328 83.060127,74.714111 
	C83.011314,79.466263 79.769951,80.899307 75.725143,80.984215 
	C69.915535,81.106155 64.099030,80.913528 58.290142,81.051727 
	C53.540913,81.164711 48.798527,81.565254 44.053104,81.838303 
M64.280869,61.984554 
	C60.561287,61.984554 56.841705,61.984554 52.824646,61.984554 
	C53.597736,67.517799 56.867661,69.471527 61.169430,69.452805 
	C65.641273,69.433365 69.124008,67.517349 69.798325,61.984558 
	C68.102821,61.984558 66.649330,61.984558 64.280869,61.984554 
M76.617905,62.042526 
	C75.496635,63.419739 74.375366,64.796951 73.254089,66.174164 
	C74.503250,67.095306 75.752968,68.736122 77.001411,68.735146 
	C78.249489,68.734177 79.496277,67.090996 80.743629,66.167702 
	C79.620956,64.792381 78.498276,63.417053 76.617905,62.042526 
M42.237774,66.249870 
	C43.806484,67.101845 45.317787,68.133499 46.988190,68.667198 
	C47.360714,68.786232 48.910934,67.091263 48.833664,66.343651 
	C48.687447,64.928955 47.754513,63.595570 47.148464,62.228401 
	C45.474800,63.317905 43.801136,64.407410 42.237774,66.249870 
z"/>
<path fill="#E3E9FC" opacity="1.000000" stroke="none" 
	d="
M44.465931,81.980476 
	C48.798527,81.565254 53.540913,81.164711 58.290142,81.051727 
	C64.099030,80.913528 69.915535,81.106155 75.725143,80.984215 
	C79.769951,80.899307 83.011314,79.466263 83.060127,74.714111 
	C83.171959,63.826328 83.160728,52.937302 83.211090,42.048840 
	C83.216370,40.905575 83.299225,39.762669 83.596748,38.330887 
	C84.558220,39.948364 85.844643,41.842884 85.883568,43.762695 
	C86.088959,53.893688 86.013275,64.031212 85.966576,74.166153 
	C85.941246,79.663300 83.633842,82.302139 78.252357,82.341125 
	C67.128937,82.421707 56.003414,82.212601 44.465931,81.980476 
z"/>
<path fill="#323232" opacity="1.000000" stroke="none" 
	d="
M64.738358,61.984558 
	C66.649330,61.984558 68.102821,61.984558 69.798325,61.984558 
	C69.124008,67.517349 65.641273,69.433365 61.169430,69.452805 
	C56.867661,69.471527 53.597736,67.517799 52.824646,61.984554 
	C56.841705,61.984554 60.561287,61.984554 64.738358,61.984558 
z"/>
<path fill="#BBBBBB" opacity="1.000000" stroke="none" 
	d="
M76.996750,62.042130 
	C78.498276,63.417053 79.620956,64.792381 80.743629,66.167694 
	C79.496277,67.090996 78.249489,68.734177 77.001411,68.735146 
	C75.752968,68.736122 74.503250,67.095306 73.254089,66.174164 
	C74.375366,64.796951 75.496635,63.419739 76.996750,62.042130 
z"/>
<path fill="#B9B9B9" opacity="1.000000" stroke="none" 
	d="
M42.182625,65.873390 
	C43.801136,64.407410 45.474800,63.317905 47.148464,62.228401 
	C47.754513,63.595570 48.687447,64.928955 48.833664,66.343651 
	C48.910934,67.091263 47.360714,68.786232 46.988190,68.667198 
	C45.317787,68.133499 43.806484,67.101845 42.182625,65.873390 
z"/>
</svg>