<svg width="14" height="12" viewBox="0 0 14 12" fill="none" xmlns="http://www.w3.org/2000/svg">
<path d="M7.01139 7.7819L8.44233 6.3509C8.57253 6.22076 8.78359 6.22076 8.91379 6.3509C9.04393 6.4811 9.04393 6.69216 8.91379 6.82236L6.91379 8.82236C6.78359 8.9525 6.57253 8.9525 6.44233 8.82236L4.44236 6.82236C4.31218 6.69216 4.31218 6.4811 4.44236 6.3509C4.57253 6.22076 4.78359 6.22076 4.91376 6.3509L6.34473 7.7819V0.586629C6.34473 0.402536 6.49399 0.253296 6.67806 0.253296C6.86213 0.253296 7.01139 0.402536 7.01139 0.586629V7.7819ZM10.6781 2.2533C10.494 2.2533 10.3447 2.10406 10.3447 1.91996C10.3447 1.73587 10.494 1.58663 10.6781 1.58663H11.3447C12.2652 1.58663 13.0114 2.33282 13.0114 3.2533V9.91996C13.0114 10.8404 12.2652 11.5866 11.3447 11.5866H2.01139C1.09092 11.5866 0.344727 10.8404 0.344727 9.91996V3.2533C0.344727 2.33282 1.09092 1.58663 2.01139 1.58663H2.67806C2.86215 1.58663 3.01139 1.73587 3.01139 1.91996C3.01139 2.10406 2.86215 2.2533 2.67806 2.2533H2.01139C1.45911 2.2533 1.01139 2.70101 1.01139 3.2533V9.91996C1.01139 10.4722 1.45911 10.92 2.01139 10.92H11.3447C11.897 10.92 12.3447 10.4722 12.3447 9.91996V3.2533C12.3447 2.70101 11.897 2.2533 11.3447 2.2533H10.6781Z" fill="#3C6BEB"/>
</svg>
