<svg width="15" height="15" viewBox="0 0 15 15" fill="none" xmlns="http://www.w3.org/2000/svg">
<path d="M13.623 8.63953H8.62305V13.6395C8.62305 13.9047 8.51769 14.1591 8.33015 14.3466C8.14262 14.5342 7.88826 14.6395 7.62305 14.6395C7.35783 14.6395 7.10348 14.5342 6.91594 14.3466C6.7284 14.1591 6.62305 13.9047 6.62305 13.6395V8.63953H1.62305C1.35783 8.63953 1.10348 8.53417 0.91594 8.34663C0.728404 8.1591 0.623047 7.90474 0.623047 7.63953C0.623047 7.37431 0.728404 7.11996 0.91594 6.93242C1.10348 6.74488 1.35783 6.63953 1.62305 6.63953H6.62305V1.63953C6.62305 1.37431 6.7284 1.11996 6.91594 0.932419C7.10348 0.744883 7.35783 0.639526 7.62305 0.639526C7.88826 0.639526 8.14262 0.744883 8.33015 0.932419C8.51769 1.11996 8.62305 1.37431 8.62305 1.63953V6.63953H13.623C13.8883 6.63953 14.1426 6.74488 14.3302 6.93242C14.5177 7.11996 14.623 7.37431 14.623 7.63953C14.623 7.90474 14.5177 8.1591 14.3302 8.34663C14.1426 8.53417 13.8883 8.63953 13.623 8.63953Z" fill="white"/>
</svg>
