<svg width="21" height="21" viewBox="0 0 21 21" fill="none" xmlns="http://www.w3.org/2000/svg">
<rect x="0.533691" y="0.675964" width="20.0752" height="20.0752" rx="4" fill="#6F4D99"/>
<g clip-path="url(#clip0_655_14)">
<path d="M12.2781 13.3557C12.1519 13.2799 12.0224 13.2037 11.8929 13.129C11.9234 12.8695 11.9235 12.6071 11.8931 12.3481C12.0231 12.2731 12.1525 12.197 12.278 12.1215C12.4894 11.9944 12.5776 11.7264 12.483 11.498L12.483 11.4979L12.2071 10.8319C12.1125 10.6035 11.8607 10.4762 11.6213 10.5359C11.479 10.5713 11.3336 10.609 11.1888 10.6478C11.027 10.4432 10.8414 10.2576 10.6365 10.0958C10.6754 9.95087 10.7131 9.80542 10.7485 9.66308C10.8081 9.42376 10.6809 9.17195 10.4525 9.07733L9.78645 8.80145C9.55807 8.70681 9.28997 8.79487 9.16289 9.00632C9.08721 9.13227 9.01097 9.26176 8.93616 9.39147C8.67678 9.36102 8.41437 9.36095 8.15532 9.3913C8.08027 9.2612 8.00407 9.13176 7.92868 9.00632C7.80155 8.79491 7.53352 8.70683 7.30512 8.80145L6.63907 9.07733C6.41075 9.17193 6.28343 9.42376 6.34308 9.66308C6.37859 9.8057 6.41623 9.95111 6.45502 10.0956C6.25039 10.2573 6.06481 10.443 5.903 10.6479C5.75778 10.6089 5.61232 10.5713 5.47027 10.5359C5.23088 10.4762 4.97911 10.6036 4.8845 10.8319L4.60866 11.4979C4.51409 11.7263 4.60219 11.9944 4.81355 12.1214C4.93953 12.1971 5.06902 12.2733 5.1987 12.3482C5.16828 12.6075 5.16821 12.8699 5.19856 13.129C5.06876 13.2039 4.93934 13.2801 4.8135 13.3557C4.60214 13.4828 4.51404 13.7508 4.60864 13.9792L4.88454 14.6453C4.97914 14.8736 5.23083 15.001 5.47032 14.9413C5.61244 14.9059 5.75785 14.8682 5.90281 14.8293C6.06455 15.034 6.25015 15.2195 6.45507 15.3814C6.41616 15.5264 6.3785 15.6719 6.34308 15.814C6.28343 16.0534 6.4107 16.3052 6.63907 16.3998L7.30514 16.6757C7.36702 16.7013 7.43178 16.7136 7.49586 16.7136C7.6684 16.7136 7.83603 16.625 7.92877 16.4709C8.00389 16.3459 8.08008 16.2164 8.1555 16.0857C8.41484 16.1161 8.67732 16.1162 8.93635 16.0859C9.01085 16.2151 9.08705 16.3445 9.16299 16.4709C9.29007 16.6823 9.5581 16.7703 9.78654 16.6757L10.4526 16.3999C10.6809 16.3053 10.8082 16.0534 10.7486 15.8141C10.7134 15.6727 10.6757 15.5273 10.6366 15.3816C10.8412 15.2199 11.0268 15.0343 11.1887 14.8293C11.3335 14.8682 11.4789 14.9058 11.6213 14.9413C11.8607 15.001 12.1125 14.8737 12.2071 14.6453L12.483 13.9792C12.5775 13.7508 12.4894 13.4828 12.2781 13.3557ZM11.722 14.4128C11.5852 14.3785 11.4457 14.3423 11.3071 14.3049C11.1107 14.2521 10.9036 14.3211 10.7793 14.4809C10.6364 14.6644 10.471 14.8298 10.2878 14.9724C10.1283 15.0967 10.0594 15.3038 10.1122 15.5C10.1498 15.6395 10.186 15.7789 10.22 15.9147L9.60781 16.1683C9.53499 16.0468 9.46207 15.9227 9.3908 15.7988C9.28939 15.6227 9.0942 15.5251 8.89355 15.55C8.66314 15.5786 8.42925 15.5785 8.19853 15.5498C7.99732 15.5248 7.8023 15.6224 7.70091 15.7986C7.62877 15.9238 7.55583 16.0481 7.48381 16.1683L6.87157 15.9147C6.90582 15.7781 6.94205 15.6387 6.97946 15.4998C7.03231 15.3035 6.96324 15.0963 6.80351 14.972C6.62 14.8292 6.45464 14.6638 6.31196 14.4806C6.18774 14.3211 5.98064 14.2521 5.78438 14.305C5.64556 14.3424 5.50618 14.3786 5.36965 14.4128L5.11606 13.8006C5.237 13.7281 5.36119 13.6552 5.48555 13.5836C5.66168 13.4822 5.75937 13.287 5.73443 13.0863C5.70577 12.8559 5.70584 12.622 5.7345 12.3913C5.75953 12.1904 5.66192 11.9951 5.48569 11.8937C5.36138 11.8221 5.23716 11.7491 5.11603 11.6765L5.36963 11.0643C5.50603 11.0985 5.64544 11.1347 5.78452 11.1722C5.98074 11.225 6.18793 11.1559 6.31233 10.9962C6.45518 10.8127 6.62053 10.6473 6.8037 10.5047C6.96326 10.3804 7.03219 10.1733 6.97934 9.97705C6.94207 9.83868 6.90584 9.69932 6.8715 9.56235L7.48374 9.30878C7.55602 9.42939 7.62896 9.55356 7.70075 9.67827C7.80218 9.8544 7.99753 9.95223 8.198 9.92713C8.42832 9.89847 8.66215 9.89847 8.89308 9.92725C9.09406 9.95228 9.28929 9.85454 9.39068 9.67841C9.46224 9.5541 9.5352 9.42988 9.60776 9.30878L10.22 9.56235C10.1857 9.69906 10.1495 9.83849 10.1121 9.97726C10.0593 10.1735 10.1283 10.3807 10.2881 10.5051C10.4715 10.6479 10.6369 10.8132 10.7796 10.9964C10.9038 11.156 11.1109 11.2249 11.3072 11.1721C11.4459 11.1347 11.5853 11.0985 11.7219 11.0642L11.9755 11.6764C11.8547 11.7488 11.7305 11.8217 11.606 11.8935C11.4299 11.9949 11.3322 12.19 11.3571 12.3907C11.3858 12.621 11.3857 12.8549 11.357 13.0858C11.332 13.2867 11.4297 13.482 11.6058 13.5834C11.73 13.6549 11.8542 13.7278 11.9755 13.8005L11.722 14.4128Z" fill="white"/>
<path d="M10.2372 12.038L10.2372 12.038C9.85097 11.1055 8.7781 10.661 7.8454 11.0473C6.91287 11.4336 6.4684 12.5066 6.8547 13.4391C7.0418 13.8909 7.39369 14.2427 7.84543 14.4299C8.07129 14.5234 8.30862 14.5702 8.54595 14.5702C8.78328 14.5702 9.02061 14.5234 9.24652 14.4299C10.1791 14.0436 10.6235 12.9706 10.2372 12.038ZM9.04095 13.9336C8.72178 14.0658 8.37024 14.0658 8.05097 13.9336C7.7318 13.8014 7.4832 13.5528 7.35097 13.2336C7.07799 12.5746 7.39205 11.8165 8.051 11.5436C8.21236 11.4767 8.37961 11.4451 8.54429 11.4451C9.05211 11.4451 9.53487 11.746 9.741 12.2436C10.0139 12.9025 9.69987 13.6606 9.04095 13.9336Z" fill="white"/>
<path d="M16.2089 7.07925C16.1162 7.06537 16.021 7.0519 15.9251 7.0391C15.8767 6.87839 15.8122 6.72258 15.7326 6.57459C15.7913 6.49784 15.8491 6.42094 15.905 6.3454C16.0291 6.17756 16.0111 5.93953 15.8633 5.79173L15.4928 5.42128C15.3449 5.27339 15.1069 5.25546 14.9391 5.37961C14.8633 5.43569 14.7864 5.49352 14.7099 5.55199C14.5619 5.47235 14.4061 5.4078 14.2454 5.35945C14.2326 5.26355 14.2191 5.16832 14.2053 5.07562C14.1744 4.86923 13.9934 4.71356 13.7843 4.71356H13.2603C13.0512 4.71356 12.8702 4.86923 12.8394 5.0756C12.8255 5.16825 12.8121 5.2635 12.7992 5.35943C12.6385 5.40778 12.4827 5.47233 12.3347 5.55197C12.2583 5.49347 12.1813 5.43562 12.1056 5.37959C11.9377 5.25544 11.6997 5.27337 11.5519 5.42123L11.1814 5.79166C11.0335 5.93951 11.0156 6.17756 11.1397 6.34542C11.1956 6.42094 11.2534 6.49786 11.3121 6.57459C11.2325 6.72255 11.1679 6.87834 11.1195 7.0391C11.0237 7.05192 10.9284 7.06537 10.8357 7.07925C10.6293 7.11014 10.4736 7.2911 10.4736 7.50023V8.02418C10.4736 8.23329 10.6293 8.41427 10.8357 8.44516C10.9284 8.45904 11.0236 8.47252 11.1195 8.48531C11.1679 8.64605 11.2324 8.80184 11.312 8.94982C11.2534 9.02651 11.1956 9.10338 11.1396 9.17902C11.0155 9.3468 11.0335 9.58488 11.1813 9.73266L11.5518 10.1032C11.6997 10.251 11.9377 10.269 12.1055 10.1448C12.1813 10.0888 12.2582 10.0309 12.3347 9.97247C12.4827 10.0521 12.6385 10.1167 12.7992 10.165C12.812 10.2609 12.8255 10.3561 12.8393 10.4488C12.8702 10.6552 13.0512 10.8109 13.2603 10.8109H13.7843C13.9934 10.8109 14.1744 10.6553 14.2053 10.4488C14.2191 10.3561 14.2326 10.2609 14.2454 10.165C14.4061 10.1167 14.5619 10.0521 14.7099 9.97242C14.7864 10.0309 14.8633 10.0888 14.9391 10.1448C15.1069 10.269 15.3449 10.251 15.4928 10.1032L15.8633 9.73273C16.0111 9.58488 16.0291 9.34683 15.9049 9.17899C15.849 9.10338 15.7912 9.02646 15.7326 8.94984C15.8122 8.80188 15.8767 8.64612 15.9251 8.48534C16.021 8.47252 16.1162 8.45906 16.2089 8.44519C16.4153 8.4143 16.571 8.23334 16.571 8.0242V7.50026C16.571 7.29112 16.4153 7.11014 16.2089 7.07925ZM16.0607 7.95127C15.9765 7.96348 15.8906 7.97534 15.8044 7.98656C15.634 8.0088 15.4944 8.12979 15.449 8.29474C15.4055 8.45269 15.3423 8.6051 15.2613 8.74774C15.1766 8.89664 15.1897 9.08091 15.2945 9.21724C15.3474 9.28596 15.3998 9.35512 15.4508 9.42347L15.1836 9.69077C15.115 9.63961 15.0458 9.5872 14.9773 9.53447C14.841 9.42959 14.6567 9.41663 14.5078 9.50116C14.3651 9.58221 14.2127 9.64538 14.0548 9.6889C13.8898 9.73437 13.7688 9.87391 13.7466 10.0443C13.7354 10.1305 13.7236 10.2164 13.7113 10.3006H13.3333C13.3211 10.2164 13.3092 10.1305 13.298 10.0444C13.2758 9.87394 13.1548 9.73439 12.9898 9.68892C12.8319 9.64542 12.6795 9.58226 12.5368 9.50121C12.3879 9.4166 12.2036 9.42961 12.0673 9.53447C11.9987 9.58723 11.9296 9.63961 11.861 9.69077L11.5937 9.42347C11.6448 9.35505 11.6972 9.28594 11.7501 9.21715C11.8549 9.08086 11.8679 8.89659 11.7833 8.74769C11.7023 8.60505 11.6391 8.45262 11.5956 8.29472C11.5501 8.12972 11.4106 8.00876 11.2402 7.98652C11.154 7.97527 11.0681 7.96345 10.9839 7.9512V7.57319C11.0681 7.56098 11.154 7.54912 11.2401 7.5379C11.4106 7.51566 11.5501 7.39467 11.5956 7.22972C11.6391 7.0718 11.7022 6.91938 11.7833 6.77672C11.8679 6.62782 11.8549 6.44353 11.7501 6.30724C11.6971 6.23843 11.6447 6.16929 11.5937 6.10099L11.861 5.83369C11.9296 5.88485 11.9987 5.93726 12.0673 5.98997C12.2035 6.09485 12.3878 6.10793 12.5368 6.0233C12.6794 5.94227 12.8319 5.87911 12.9897 5.83556C13.1548 5.79009 13.2758 5.65055 13.2979 5.48013C13.3092 5.39395 13.3211 5.30805 13.3333 5.22387H13.7113C13.7235 5.30803 13.7354 5.39393 13.7466 5.48006C13.7688 5.65055 13.8898 5.79009 14.0548 5.83554C14.2127 5.87906 14.3651 5.94225 14.5078 6.02327C14.6567 6.10791 14.841 6.09476 14.9772 5.98999C15.0458 5.93726 15.115 5.88485 15.1836 5.83369L15.4508 6.10099C15.3999 6.16931 15.3475 6.23848 15.2945 6.30731C15.1897 6.44358 15.1767 6.62784 15.2613 6.77674C15.3423 6.91943 15.4054 7.07187 15.449 7.22974C15.4944 7.39474 15.6339 7.5157 15.8044 7.53795C15.8906 7.5492 15.9765 7.56103 16.0607 7.57327V7.95127Z" fill="white"/>
<path d="M13.5221 6.67468C12.9224 6.67468 12.4346 7.16253 12.4346 7.76221C12.4346 8.3619 12.9224 8.84975 13.5221 8.84975C14.1218 8.84975 14.6096 8.3619 14.6096 7.76221C14.6096 7.16253 14.1218 6.67468 13.5221 6.67468ZM13.5221 8.36631C13.189 8.36631 12.918 8.0953 12.918 7.76218C12.918 7.42907 13.189 7.15808 13.5221 7.15808C13.8552 7.15808 14.1262 7.42909 14.1262 7.76218C14.1262 8.0953 13.8552 8.36631 13.5221 8.36631Z" fill="white"/>
</g>
<defs>
<clipPath id="clip0_655_14">
<rect width="12" height="12" fill="white" transform="translate(4.5708 4.71356)"/>
</clipPath>
</defs>
</svg>
