<svg width="30" height="30" viewBox="0 0 30 30" fill="none" xmlns="http://www.w3.org/2000/svg">
<g clip-path="url(#clip0_344_70)">
<path d="M13.4708 25.2007C17.1966 24.5425 20.274 23.9979 20.3093 23.9904L20.3736 23.9768L16.856 19.7928C14.9214 17.4916 13.3385 15.5998 13.3385 15.5889C13.3385 15.5683 16.9706 5.56609 16.991 5.53048C16.9979 5.51861 19.4697 9.7861 22.9829 15.8752C26.272 21.5759 28.9837 26.2762 29.0089 26.3202L29.0547 26.4003L17.8756 26.3988L6.69658 26.3974L13.4708 25.2007ZM0.0546875 23.9248C0.0546875 23.9189 1.71214 21.0417 3.73791 17.531L7.42114 11.1479L11.7135 7.54576C14.0743 5.56457 16.0122 3.94117 16.02 3.93813C16.0278 3.93525 15.9967 4.01341 15.951 4.11191C15.9053 4.2104 13.8079 8.70913 11.2901 14.1091L6.71231 23.9272L3.3835 23.9313C1.55265 23.9336 0.0546875 23.9307 0.0546875 23.9248Z" fill="#5482FF"/>
</g>
<defs>
<clipPath id="clip0_344_70">
<rect width="29" height="29" fill="white" transform="translate(0.0546875 0.709534)"/>
</clipPath>
</defs>
</svg>
