<svg width="21" height="21" viewBox="0 0 21 21" fill="none" xmlns="http://www.w3.org/2000/svg">
<g clip-path="url(#clip0_649_8)">
<path d="M7.35098 9.66851C7.48351 9.6687 7.61073 9.61598 7.70445 9.52226C7.79817 9.42854 7.85089 9.30132 7.85071 9.16879C7.85071 8.89275 8.07458 8.66888 8.35061 8.66888C8.62665 8.66888 8.85052 8.89275 8.85052 9.16879C8.85052 9.44483 9.07421 9.66851 9.35025 9.66851C9.62647 9.66851 9.85015 9.44483 9.85015 9.16879C9.85015 8.34049 9.17873 7.66925 8.35061 7.66925C7.5225 7.66925 6.85107 8.34049 6.85107 9.16879C6.85107 9.30132 6.90361 9.42854 6.99733 9.52226C7.09123 9.61598 7.21827 9.6687 7.35098 9.66851Z" fill="#95A1BA"/>
<path d="M14.1249 12.9704C12.2582 13.9035 9.44124 13.9035 7.57413 12.9704C7.3272 12.8468 7.027 12.9469 6.90344 13.1939C6.78007 13.4408 6.88001 13.7412 7.12694 13.8646C8.2904 14.4133 9.56333 14.6897 10.8494 14.6729C12.1355 14.6897 13.4086 14.4131 14.5719 13.8646C14.8189 13.7412 14.919 13.4408 14.7956 13.1939C14.6721 12.9469 14.3719 12.8468 14.1249 12.9704Z" fill="#95A1BA"/>
<path d="M19.3474 8.66887H18.8475V7.16933C18.8462 5.78969 17.728 4.67144 16.3483 4.67016H14.8488V3.57827C15.5372 3.335 15.9504 2.63081 15.8268 1.91106C15.7033 1.19112 15.0792 0.665039 14.3489 0.665039C13.6185 0.665039 12.9945 1.19112 12.8709 1.91106C12.7474 2.63081 13.1605 3.335 13.849 3.57827V4.67016H7.85082V3.57827C8.53945 3.335 8.95241 2.63081 8.82903 1.91106C8.70547 1.19112 8.08146 0.665039 7.35109 0.665039C6.62073 0.665039 5.99653 1.19112 5.87315 1.91106C5.74959 2.63081 6.16255 3.335 6.85119 3.57827V4.67016H5.35165C3.972 4.67162 2.85394 5.78969 2.85247 7.16933V8.66887H2.35257C1.52482 8.66978 0.853943 9.34066 0.853027 10.1684V12.1679C0.853943 12.9956 1.52482 13.6665 2.35257 13.6674H2.85247V15.6667C2.85394 17.0465 3.972 18.1645 5.35165 18.166H7.85082V20.1653C7.851 20.347 7.94966 20.5144 8.10855 20.6024C8.26744 20.6904 8.46165 20.6853 8.6156 20.589L12.4929 18.166H16.3483C17.728 18.1647 18.8462 17.0465 18.8475 15.6667V13.6674H19.3474C20.1752 13.6665 20.846 12.9956 20.8469 12.1679V10.1684C20.846 9.34066 20.1752 8.66978 19.3474 8.66887ZM14.3489 1.67108C14.6249 1.67108 14.8488 1.89476 14.8488 2.1708C14.8488 2.44702 14.6249 2.67071 14.3489 2.67071C14.0728 2.67071 13.849 2.44702 13.849 2.1708C13.8495 1.89513 14.073 1.67163 14.3489 1.67108ZM7.35109 1.67108C7.62713 1.67108 7.85082 1.89476 7.85082 2.1708C7.85082 2.44702 7.62713 2.67071 7.35109 2.67071C7.07505 2.67071 6.85119 2.44702 6.85119 2.1708C6.85155 1.89495 7.07505 1.67144 7.35109 1.67108ZM2.35257 12.6676C2.07671 12.6674 1.85303 12.4437 1.85266 12.1679V10.1684C1.85303 9.89255 2.07671 9.66887 2.35257 9.6685H2.85247V12.6676H2.35257ZM17.8479 15.6667C17.847 16.4946 17.1761 17.1655 16.3483 17.1662H12.3494C12.2559 17.1662 12.1642 17.1926 12.0849 17.2423L8.85063 19.2632V17.6661C8.85063 17.5336 8.7981 17.4064 8.70419 17.3126C8.61047 17.2189 8.48325 17.1662 8.35072 17.1662H5.35165C4.5239 17.1655 3.85302 16.4946 3.85211 15.6667V7.16933C3.85302 6.34158 4.5239 5.6707 5.35165 5.66979H16.3483C17.1761 5.6707 17.847 6.34158 17.8479 7.16933V15.6667ZM19.8471 12.1679C19.8468 12.4437 19.6233 12.6672 19.3474 12.6676H18.8475V9.6685H19.3474C19.6233 9.66905 19.8468 9.89255 19.8471 10.1684V12.1679Z" fill="#95A1BA"/>
<path d="M13.3491 7.66925C12.5214 7.67017 11.8505 8.34104 11.8496 9.16879C11.8496 9.44483 12.0733 9.66851 12.3493 9.66851C12.6256 9.66851 12.8492 9.44483 12.8492 9.16879C12.8492 8.89275 13.0731 8.66888 13.3491 8.66888C13.6252 8.66888 13.8489 8.89275 13.8489 9.16879C13.8489 9.44483 14.0727 9.66851 14.3488 9.66851C14.6248 9.66851 14.8487 9.44483 14.8487 9.16879C14.8478 8.34104 14.1769 7.67017 13.3491 7.66925Z" fill="#95A1BA"/>
</g>
<defs>
<clipPath id="clip0_649_8">
<rect width="20" height="20" fill="white" transform="translate(0.81543 0.665039)"/>
</clipPath>
</defs>
</svg>
