<svg width="18" height="20" viewBox="0 0 18 20" fill="none" xmlns="http://www.w3.org/2000/svg">
<path d="M16.8594 7.89249L3.51674 0.298662C2.10141 -0.509346 0.658447 0.37433 0.658447 1.96337V17.8163C0.658447 19.1625 1.53489 19.7764 2.34947 19.7764C2.73308 19.7764 3.12392 19.6553 3.51214 19.4191L16.9147 11.2153C17.5885 10.8015 17.9668 10.1889 17.955 9.53417C17.9438 8.87881 17.545 8.28004 16.8594 7.89249ZM16.0165 9.74999L2.61464 17.9518C2.5245 18.0071 2.45344 18.0347 2.40475 18.0485C2.39159 17.9998 2.37843 17.9248 2.37843 17.8163V1.96403C2.37843 1.80085 2.40803 1.7186 2.40803 1.6982C2.46067 1.70149 2.55279 1.72847 2.6686 1.79427L16.0093 9.3881C16.1738 9.48219 16.2225 9.56378 16.2383 9.54601C16.2297 9.56838 16.1738 9.65195 16.0165 9.74999Z" fill="#010002"/>
</svg>
