<svg width="21" height="21" viewBox="0 0 21 21" fill="none" xmlns="http://www.w3.org/2000/svg">
<g clip-path="url(#clip0_649_3)">
<path d="M2.44743 18.9984V4.8317H0.780762V19.8317C0.780762 20.0527 0.868559 20.2647 1.02484 20.4209C1.18112 20.5772 1.39308 20.665 1.6141 20.665H20.7808V18.9984H2.44743Z" fill="#95A1BA"/>
<path d="M8.28092 12.3317C8.28092 12.1107 8.19313 11.8987 8.03685 11.7425C7.88057 11.5862 7.6686 11.4984 7.44759 11.4984H4.94759C4.72658 11.4984 4.51462 11.5862 4.35834 11.7425C4.20206 11.8987 4.11426 12.1107 4.11426 12.3317V18.165H8.28092V12.3317Z" fill="#95A1BA"/>
<path d="M14.1139 8.99837C14.1139 8.77736 14.0261 8.5654 13.8699 8.40912C13.7136 8.25284 13.5016 8.16504 13.2806 8.16504H10.7806C10.5596 8.16504 10.3476 8.25284 10.1913 8.40912C10.0351 8.5654 9.94727 8.77736 9.94727 8.99837V18.165H14.1139V8.99837Z" fill="#95A1BA"/>
<path d="M19.9474 5.66503C19.9474 5.44402 19.8596 5.23205 19.7034 5.07577C19.5471 4.91949 19.3351 4.8317 19.1141 4.8317H16.6141C16.3931 4.8317 16.1811 4.91949 16.0248 5.07577C15.8686 5.23205 15.7808 5.44402 15.7808 5.66503V18.165H19.9474V5.66503Z" fill="#95A1BA"/>
</g>
<defs>
<clipPath id="clip0_649_3">
<rect width="20" height="20" fill="white" transform="translate(0.780762 0.665039)"/>
</clipPath>
</defs>
</svg>
