<svg width="22" height="22" viewBox="0 0 22 22" fill="none" xmlns="http://www.w3.org/2000/svg">
<mask id="mask0_170_2928" style="mask-type:luminance" maskUnits="userSpaceOnUse" x="0" y="0" width="22" height="22">
<path d="M21.5 21.5V0.500002H0.5V21.5H21.5Z" fill="white" stroke="white"/>
</mask>
<g mask="url(#mask0_170_2928)">
<path d="M21.0956 3.05398C21.0956 4.3384 20.0545 5.37958 18.77 5.37958C17.4856 5.37958 16.4444 4.3384 16.4444 3.05398C16.4444 1.76956 17.4856 0.72834 18.77 0.72834C20.0545 0.72834 21.0956 1.76956 21.0956 3.05398Z" stroke="#D6DDEA" stroke-opacity="0.866667" stroke-miterlimit="10" stroke-linecap="round" stroke-linejoin="round"/>
<path d="M21.3555 14.1305C21.3555 15.4149 20.3142 16.4561 19.0298 16.4561C17.7454 16.4561 16.7042 15.4149 16.7042 14.1305C16.7042 12.8461 17.7454 11.8049 19.0298 11.8049C20.3142 11.8049 21.3555 12.8461 21.3555 14.1305Z" stroke="#D6DDEA" stroke-opacity="0.866667" stroke-miterlimit="10" stroke-linecap="round" stroke-linejoin="round"/>
<path d="M5.29581 3.42515C5.29581 4.70957 4.25459 5.75079 2.97017 5.75079C1.68575 5.75079 0.644531 4.70957 0.644531 3.42515C0.644531 2.14073 1.68575 1.09951 2.97017 1.09951C4.25459 1.09951 5.29581 2.14073 5.29581 3.42515Z" stroke="#D6DDEA" stroke-opacity="0.866667" stroke-miterlimit="10" stroke-linecap="round" stroke-linejoin="round"/>
<path d="M16.6872 19.6272C16.6872 20.5354 15.9509 21.2717 15.0427 21.2717C14.1345 21.2717 13.3982 20.5354 13.3982 19.6272C13.3982 18.719 14.1345 17.9828 15.0427 17.9828C15.9509 17.9828 16.6872 18.719 16.6872 19.6272Z" stroke="#D6DDEA" stroke-opacity="0.866667" stroke-miterlimit="10" stroke-linecap="round" stroke-linejoin="round"/>
<path d="M13.7832 3.18287C13.7832 4.0911 13.047 4.82733 12.1388 4.82733C11.2306 4.82733 10.4943 4.0911 10.4943 3.18287C10.4943 2.27464 11.2306 1.53842 12.1388 1.53842C13.047 1.53842 13.7832 2.27464 13.7832 3.18287Z" stroke="#D6DDEA" stroke-opacity="0.866667" stroke-miterlimit="10" stroke-linecap="round" stroke-linejoin="round"/>
<path d="M3.93351 17.3015C3.93351 18.2097 3.19724 18.9459 2.28905 18.9459C1.38082 18.9459 0.644592 18.2097 0.644592 17.3015C0.644592 16.3932 1.38082 15.657 2.28905 15.657C3.19724 15.657 3.93351 16.3932 3.93351 17.3015Z" stroke="#D6DDEA" stroke-opacity="0.866667" stroke-miterlimit="10" stroke-linecap="round" stroke-linejoin="round"/>
<path d="M14.224 12.3776C14.224 14.878 12.1966 16.9056 9.69594 16.9056C7.19262 16.9056 5.16742 14.8756 5.16742 12.3776C5.16742 9.87707 7.1949 7.84907 9.69594 7.84907C12.1948 7.84907 14.224 9.87608 14.224 12.3776Z" stroke="#D6DDEA" stroke-opacity="0.866667" stroke-miterlimit="10" stroke-linecap="round" stroke-linejoin="round"/>
<path d="M6.97601 8.75702L4.36694 5.28471" stroke="#D6DDEA" stroke-opacity="0.866667" stroke-miterlimit="10" stroke-linecap="round" stroke-linejoin="round"/>
<path d="M11.7163 4.77297L10.8586 8.00031" stroke="#D6DDEA" stroke-opacity="0.866667" stroke-miterlimit="10" stroke-linecap="round" stroke-linejoin="round"/>
<path d="M14.0667 18.3038L12.3836 16.0218" stroke="#D6DDEA" stroke-opacity="0.866667" stroke-miterlimit="10" stroke-linecap="round" stroke-linejoin="round"/>
<path d="M5.92456 14.8843L3.65839 16.3909" stroke="#D6DDEA" stroke-opacity="0.866667" stroke-miterlimit="10" stroke-linecap="round" stroke-linejoin="round"/>
<path d="M16.7441 13.7015L14.1467 13.2134" stroke="#D6DDEA" stroke-opacity="0.866667" stroke-miterlimit="10" stroke-linecap="round" stroke-linejoin="round"/>
<path d="M17.148 4.72053L12.8537 9.133" stroke="#D6DDEA" stroke-opacity="0.866667" stroke-miterlimit="10" stroke-linecap="round" stroke-linejoin="round"/>
</g>
</svg>
