<svg width="21" height="21" viewBox="0 0 21 21" fill="none" xmlns="http://www.w3.org/2000/svg">
<rect x="0.12207" y="0.588562" width="20.0752" height="20.0752" rx="4" fill="#DC5644"/>
<g clip-path="url(#clip0_655_9)">
<path d="M13.9513 10.6261C13.9513 11.4316 13.2984 12.0845 12.493 12.0845C11.6876 12.0845 11.0347 11.4316 11.0347 10.6261C11.0347 9.82074 11.6876 9.16782 12.493 9.16782C13.2984 9.16782 13.9513 9.82074 13.9513 10.6261Z" stroke="white"/>
<path d="M9.28483 10.6261C9.28483 11.4316 8.63191 12.0845 7.8265 12.0845C7.02108 12.0845 6.36816 11.4316 6.36816 10.6261C6.36816 9.82074 7.02108 9.16782 7.8265 9.16782C8.63191 9.16782 9.28483 9.82074 9.28483 10.6261Z" stroke="white"/>
<path d="M7.82617 12.0845H12.4928" stroke="white" stroke-linecap="round"/>
<path d="M15.9928 10.6261C15.9928 13.376 15.9928 14.751 15.1385 15.6052C14.2843 16.4595 12.9093 16.4595 10.1595 16.4595C7.40964 16.4595 6.03471 16.4595 5.18045 15.6052C4.32617 14.751 4.32617 13.376 4.32617 10.6261C4.32617 7.87629 4.32617 6.50136 5.18045 5.64709C6.03471 4.79282 7.40964 4.79282 10.1595 4.79282C12.9093 4.79282 14.2843 4.79282 15.1385 5.64709C15.7066 6.21511 15.8969 7.0133 15.9607 8.29282" stroke="white" stroke-linecap="round"/>
</g>
<defs>
<clipPath id="clip0_655_9">
<rect width="14" height="14" fill="white" transform="translate(3.15967 3.62616)"/>
</clipPath>
</defs>
</svg>
