<svg width="21" height="21" viewBox="0 0 21 21" fill="none" xmlns="http://www.w3.org/2000/svg">
<rect x="0.806641" y="0.588562" width="20.0752" height="20.0752" rx="4" fill="#DC5644"/>
<g clip-path="url(#clip0_655_10)">
<path d="M16.0942 5.00116H8.21924C7.98726 5.00143 7.76485 5.0937 7.60081 5.25774C7.43678 5.42177 7.3445 5.64418 7.34424 5.87616V7.18866H5.59424C5.36226 7.18893 5.13985 7.2812 4.97581 7.44524C4.81178 7.60927 4.7195 7.83168 4.71924 8.06366V16.3762C4.7195 16.6081 4.81178 16.8305 4.97581 16.9946C5.13985 17.1586 5.36226 17.2509 5.59424 17.2512H16.0942C16.3262 17.2509 16.5486 17.1586 16.7127 16.9946C16.8767 16.8305 16.969 16.6081 16.9692 16.3762V5.87616C16.969 5.64418 16.8767 5.42177 16.7127 5.25774C16.5486 5.0937 16.3262 5.00143 16.0942 5.00116ZM8.21924 5.87616H16.0942V7.18866H8.21924V5.87616ZM16.0942 10.2512H12.5942V8.06366H16.0942V10.2512ZM8.21924 13.3137V11.1262H11.7192V13.3137H8.21924ZM11.7192 14.1887V16.3762H8.21924V14.1887H11.7192ZM7.34424 13.3137H5.59424V11.1262H7.34424V13.3137ZM11.7192 8.06366V10.2512H8.21924V8.06366H11.7192ZM12.5942 11.1262H16.0942V13.3137H12.5942V11.1262ZM7.34424 8.06366V10.2512H5.59424V8.06366H7.34424ZM5.59424 14.1887H7.34424V16.3762H5.59424V14.1887ZM12.5942 16.3762V14.1887H16.0942V16.3762H12.5942Z" fill="white"/>
</g>
<defs>
<clipPath id="clip0_655_10">
<rect width="14" height="14" fill="white" transform="translate(3.84424 4.12616)"/>
</clipPath>
</defs>
</svg>
