<svg width="23" height="18" viewBox="0 0 23 18" fill="none" xmlns="http://www.w3.org/2000/svg">
<path d="M11.9399 0.277041C11.8123 0.181931 11.6552 0.13028 11.4935 0.13028C11.3318 0.13028 11.1747 0.181931 11.0472 0.277041L0.71875 7.98048L1.61216 9.06123L2.875 8.11935V16.6299C2.87576 16.9944 3.02745 17.3437 3.29687 17.6014C3.56629 17.8591 3.93148 18.0042 4.3125 18.0049H18.6875C19.0685 18.0042 19.4337 17.8591 19.7031 17.6014C19.9725 17.3437 20.1242 16.9944 20.125 16.6299V8.12554L21.3878 9.06742L22.2812 7.98667L11.9399 0.277041ZM12.9375 16.6299H10.0625V11.1299H12.9375V16.6299ZM14.375 16.6299V11.1299C14.375 10.7652 14.2235 10.4155 13.954 10.1576C13.6844 9.89978 13.3187 9.75492 12.9375 9.75492H10.0625C9.68125 9.75492 9.31562 9.89978 9.04603 10.1576C8.77645 10.4155 8.625 10.7652 8.625 11.1299V16.6299H4.3125V7.04754L11.5 1.69192L18.6875 7.05442V16.6299H14.375Z" fill="#D6DDEA"/>
</svg>
