<svg width="233" height="58" viewBox="0 0 233 58" fill="none" xmlns="http://www.w3.org/2000/svg">
<path d="M44.3671 50.9117C40.4301 50.9117 37.2399 41.0713 37.2399 28.9328C37.2399 16.7943 40.4273 6.95249 44.3671 6.95249C46.4195 6.95249 48.2696 9.63385 49.5695 13.9185C47.9633 5.82479 45.085 0.430359 41.8006 0.430359C36.7618 0.430359 32.6779 13.1272 32.6779 28.7908C32.6779 44.4544 36.7618 57.1512 41.8006 57.1512C44.97 57.1512 47.7596 52.129 49.3962 44.5067C48.106 48.4647 46.3294 50.9117 44.3671 50.9117Z" fill="#3C6BEB"/>
<path d="M50.3593 41.5538C48.4191 41.5538 47.5087 36.6033 47.5087 29.4415C47.5087 22.2797 48.7005 17.7234 50.6448 17.7234C51.6578 17.7234 51.7839 19.4246 52.1414 20.5771C51.3474 15.8017 49.9241 12.6185 48.3055 12.6185C45.818 12.6185 43.8016 20.1098 43.8016 29.3505C43.8016 38.5912 45.818 46.0839 48.3055 46.0839C49.8701 46.0839 51.2476 43.1213 52.0555 38.6229C51.4125 40.9651 51.3293 41.5538 50.3593 41.5538Z" fill="#3F4B57"/>
<path d="M18.8101 7.8017H16.0385C15.7806 7.8017 15.5715 8.0097 15.5715 8.26628V11.0235C15.5715 11.2801 15.7806 11.4881 16.0385 11.4881H18.8101C19.068 11.4881 19.2771 11.2801 19.2771 11.0235V8.26628C19.2771 8.0097 19.068 7.8017 18.8101 7.8017Z" fill="#C2C76C"/>
<path d="M18.526 17.161H14.0429C13.785 17.161 13.5759 17.369 13.5759 17.6256V22.0853C13.5759 22.3419 13.785 22.5499 14.0429 22.5499H18.526C18.7839 22.5499 18.993 22.3419 18.993 22.0853V17.6256C18.993 17.369 18.7839 17.161 18.526 17.161Z" fill="#3C6BEB"/>
<path d="M26.5068 20.2807H23.4497C23.1918 20.2807 22.9827 20.4887 22.9827 20.7453V23.7865C22.9827 24.0431 23.1918 24.2511 23.4497 24.2511H26.5068C26.7648 24.2511 26.9738 24.0431 26.9738 23.7865V20.7453C26.9738 20.4887 26.7648 20.2807 26.5068 20.2807Z" fill="#C2C76C"/>
<path d="M21.0911 39.5659H16.8935C16.6356 39.5659 16.4265 39.7739 16.4265 40.0305V44.2062C16.4265 44.4628 16.6356 44.6708 16.8935 44.6708H21.0911C21.3491 44.6708 21.5581 44.4628 21.5581 44.2062V40.0305C21.5581 39.7739 21.3491 39.5659 21.0911 39.5659Z" fill="#66CCF3"/>
<path d="M27.2205 32.7598H23.3083C23.0504 32.7598 22.8413 32.9678 22.8413 33.2244V37.1161C22.8413 37.3727 23.0504 37.5807 23.3083 37.5807H27.2205C27.4784 37.5807 27.6875 37.3727 27.6875 37.1161V33.2244C27.6875 32.9678 27.4784 32.7598 27.2205 32.7598Z" fill="#C2C76C"/>
<path d="M18.526 46.3734H14.8979C14.64 46.3734 14.4309 46.5814 14.4309 46.838V50.4471C14.4309 50.7037 14.64 50.9117 14.8979 50.9117H18.526C18.7839 50.9117 18.993 50.7037 18.993 50.4471V46.838C18.993 46.5814 18.7839 46.3734 18.526 46.3734Z" fill="#66CCF3"/>
<path d="M21.3766 52.3289H19.1745C18.9166 52.3289 18.7075 52.5369 18.7075 52.7935V54.9841C18.7075 55.2406 18.9166 55.4486 19.1745 55.4486H21.3766C21.6345 55.4486 21.8436 55.2406 21.8436 54.9841V52.7935C21.8436 52.5369 21.6345 52.3289 21.3766 52.3289Z" fill="#C2C76C"/>
<path d="M21.9448 25.6696H17.1776C16.9197 25.6696 16.7106 25.8776 16.7106 26.1342V30.8766C16.7106 31.1332 16.9197 31.3412 17.1776 31.3412H21.9448C22.2027 31.3412 22.4118 31.1332 22.4118 30.8766V26.1342C22.4118 25.8776 22.2027 25.6696 21.9448 25.6696Z" fill="#297770"/>
<path d="M63.9568 21.8261H61.0466C60.9775 21.8261 60.9093 21.8111 60.8467 21.7821C60.7841 21.7532 60.7286 21.711 60.6842 21.6584C60.6397 21.6059 60.6073 21.5444 60.5892 21.4781C60.5712 21.4118 60.5678 21.3424 60.5796 21.2747L61.1048 18.2928C61.1241 18.1833 61.1816 18.084 61.2673 18.0126C61.3531 17.9413 61.4614 17.9023 61.5732 17.9027H64.4834C64.5524 17.9027 64.6206 17.9177 64.6832 17.9467C64.7458 17.9756 64.8013 18.0178 64.8457 18.0704C64.8902 18.1229 64.9226 18.1844 64.9407 18.2507C64.9588 18.317 64.9621 18.3864 64.9504 18.4541L64.4252 21.4346C64.4059 21.5443 64.3484 21.6437 64.2627 21.7153C64.177 21.7869 64.0687 21.8262 63.9568 21.8261Z" fill="#297770"/>
<path d="M60.1902 25.3443H57.8843C57.7954 25.3444 57.7075 25.3252 57.6269 25.2879C57.5463 25.2506 57.4749 25.1963 57.4177 25.1286C57.3605 25.0609 57.3189 24.9816 57.2959 24.8962C57.2728 24.8108 57.2688 24.7214 57.2842 24.6343L57.6999 22.2604C57.725 22.1202 57.7989 21.9932 57.9086 21.9017C58.0183 21.8102 58.1569 21.76 58.3 21.76H60.6143C60.7031 21.76 60.7907 21.7794 60.8712 21.8168C60.9516 21.8542 61.0228 21.9086 61.0799 21.9762C61.1369 22.0439 61.1784 22.1231 61.2014 22.2084C61.2244 22.2937 61.2283 22.383 61.213 22.4699L60.7972 24.8439C60.7722 24.9854 60.6975 25.1134 60.5863 25.2051C60.475 25.2968 60.3347 25.3461 60.1902 25.3443Z" fill="#297770"/>
<path d="M65.9109 24.7929H64.0068C63.9477 24.7917 63.8895 24.7781 63.8362 24.7529C63.7828 24.7276 63.7355 24.6913 63.6973 24.6465C63.6592 24.6016 63.6311 24.5491 63.6149 24.4926C63.5987 24.4361 63.5948 24.3768 63.6035 24.3186L63.9209 22.4231C63.938 22.3283 63.9877 22.2425 64.0616 22.1803C64.1354 22.1182 64.2288 22.0836 64.3255 22.0826H66.2296C66.2887 22.0837 66.3468 22.0973 66.4002 22.1226C66.4535 22.1478 66.5009 22.1841 66.539 22.2289C66.5772 22.2738 66.6053 22.3263 66.6215 22.3828C66.6377 22.4393 66.6415 22.4986 66.6329 22.5568L66.3155 24.4524C66.2984 24.5471 66.2487 24.6329 66.1748 24.6951C66.1009 24.7572 66.0076 24.7918 65.9109 24.7929Z" fill="#297770"/>
<path d="M68.8002 21.4842H66.6397C66.5865 21.4842 66.534 21.4728 66.4856 21.4507C66.4372 21.4287 66.3942 21.3966 66.3594 21.3566C66.3246 21.3166 66.2988 21.2697 66.2838 21.2189C66.2688 21.1681 66.2649 21.1148 66.2725 21.0624L66.5815 18.9063C66.5942 18.8183 66.6383 18.7379 66.7057 18.6796C66.7732 18.6214 66.8594 18.5893 66.9487 18.5892H69.1092C69.1625 18.589 69.2152 18.6003 69.2636 18.6222C69.3121 18.6442 69.3552 18.6763 69.3901 18.7163C69.425 18.7564 69.4508 18.8034 69.4657 18.8543C69.4806 18.9052 69.4842 18.9586 69.4765 19.011L69.1674 21.1672C69.1548 21.2551 69.1107 21.3356 69.0432 21.3938C68.9758 21.452 68.8895 21.4841 68.8002 21.4842Z" fill="#297770"/>
<path d="M70.6725 23.9657H69.3171C69.2757 23.9657 69.2347 23.9569 69.197 23.9398C69.1593 23.9227 69.1258 23.8978 69.0986 23.8667C69.0714 23.8356 69.0512 23.799 69.0394 23.7595C69.0277 23.72 69.0245 23.6784 69.0303 23.6376L69.2257 22.2825C69.2351 22.2139 69.2692 22.151 69.3217 22.1056C69.3743 22.0603 69.4416 22.0354 69.5111 22.0357H70.8665C70.9079 22.0357 70.9489 22.0445 70.9866 22.0616C71.0243 22.0787 71.0578 22.1036 71.085 22.1347C71.1122 22.1658 71.1324 22.2024 71.1442 22.2419C71.1559 22.2814 71.1591 22.323 71.1533 22.3638L70.9593 23.719C70.9493 23.7875 70.9148 23.8502 70.8621 23.8955C70.8094 23.9409 70.7421 23.9658 70.6725 23.9657Z" fill="#297770"/>
<path d="M73.3083 21.4953H71.7409C71.6766 21.4946 71.6132 21.4796 71.5555 21.4514C71.4977 21.4232 71.447 21.3825 71.4071 21.3322C71.3673 21.282 71.3392 21.2235 71.3251 21.161C71.3109 21.0986 71.3109 21.0338 71.3252 20.9714L71.698 19.3378C71.7192 19.2435 71.7718 19.1591 71.8473 19.0983C71.9227 19.0375 72.0166 19.0038 72.1137 19.0028H73.6811C73.7454 19.0034 73.8088 19.0184 73.8665 19.0466C73.9243 19.0748 73.975 19.1156 74.0148 19.1658C74.0547 19.2161 74.0828 19.2745 74.0969 19.337C74.1111 19.3994 74.1111 19.4642 74.0968 19.5266L73.7254 21.1616C73.7036 21.2558 73.6506 21.3399 73.575 21.4004C73.4993 21.4609 73.4054 21.4943 73.3083 21.4953Z" fill="#297770"/>
<path d="M75.8817 23.2764H74.6539C74.5961 23.2765 74.5391 23.2642 74.4867 23.2402C74.4343 23.2162 74.3877 23.1812 74.3502 23.1375C74.3128 23.0938 74.2853 23.0425 74.2698 22.9873C74.2543 22.932 74.251 22.874 74.2603 22.8173L74.4626 21.5435C74.4772 21.4501 74.5249 21.365 74.597 21.3035C74.6692 21.2421 74.7612 21.2084 74.8562 21.2085H76.084C76.1417 21.2084 76.1988 21.2207 76.2512 21.2447C76.3036 21.2687 76.3501 21.3037 76.3876 21.3474C76.425 21.3911 76.4525 21.4424 76.468 21.4977C76.4836 21.5529 76.4868 21.6109 76.4776 21.6676L76.2766 22.9414C76.2615 23.0348 76.2134 23.1198 76.1411 23.1812C76.0687 23.2425 75.9767 23.2763 75.8817 23.2764Z" fill="#297770"/>
<path d="M77.7442 21.1203H76.7838C76.7388 21.1205 76.6942 21.1109 76.6532 21.0922C76.6122 21.0735 76.5758 21.0461 76.5465 21.012C76.5172 20.9779 76.4958 20.9378 76.4836 20.8946C76.4715 20.8514 76.469 20.8061 76.4762 20.7619L76.6342 19.7665C76.6455 19.6934 76.6827 19.6268 76.7392 19.5788C76.7956 19.5307 76.8675 19.5044 76.9418 19.5046H77.9022C77.9473 19.5044 77.9919 19.514 78.0329 19.5327C78.0738 19.5514 78.1103 19.5787 78.1395 19.6129C78.1688 19.647 78.1903 19.687 78.2024 19.7302C78.2145 19.7734 78.2171 19.8187 78.2098 19.863L78.0519 20.8584C78.0406 20.9314 78.0033 20.998 77.9469 21.0461C77.8904 21.0942 77.8185 21.1205 77.7442 21.1203Z" fill="#297770"/>
<path d="M79.2104 22.3114H78.6076C78.5794 22.3113 78.5515 22.3052 78.5259 22.2934C78.5003 22.2817 78.4776 22.2645 78.4592 22.2431C78.4409 22.2218 78.4275 22.1968 78.4199 22.1697C78.4122 22.1427 78.4105 22.1144 78.4149 22.0867L78.5133 21.4608C78.5206 21.4149 78.5442 21.3731 78.5798 21.343C78.6154 21.3129 78.6606 21.2965 78.7073 21.2968H79.3102C79.3385 21.2966 79.3665 21.3026 79.3923 21.3143C79.418 21.326 79.4409 21.3431 79.4594 21.3645C79.4778 21.3859 79.4914 21.411 79.4991 21.4381C79.5069 21.4652 79.5086 21.4936 79.5042 21.5215L79.4044 22.1473C79.3969 22.1931 79.3732 22.2347 79.3377 22.2648C79.3021 22.2948 79.257 22.3114 79.2104 22.3114Z" fill="#297770"/>
<path d="M62.8482 30.5113H59.938C59.869 30.5113 59.8007 30.4963 59.7382 30.4673C59.6756 30.4383 59.6201 30.3961 59.5756 30.3436C59.5311 30.2911 59.4987 30.2295 59.4806 30.1632C59.4626 30.0969 59.4593 30.0275 59.471 29.9598L59.9962 26.9779C60.0155 26.8684 60.0731 26.7692 60.1588 26.6978C60.2445 26.6264 60.3528 26.5874 60.4646 26.5878H63.3748C63.4438 26.5878 63.512 26.6028 63.5746 26.6318C63.6372 26.6608 63.6927 26.703 63.7372 26.7555C63.7816 26.808 63.8141 26.8696 63.8321 26.9359C63.8502 27.0021 63.8535 27.0716 63.8418 27.1392L63.3166 30.1198C63.2973 30.2294 63.2398 30.3288 63.1541 30.4004C63.0684 30.4721 62.9601 30.5113 62.8482 30.5113Z" fill="#3C6BEB"/>
<path d="M59.0815 34.0294H56.7756C56.6867 34.0296 56.5988 34.0103 56.5182 33.973C56.4376 33.9358 56.3662 33.8814 56.309 33.8137C56.2518 33.746 56.2102 33.6667 56.1872 33.5813C56.1641 33.4959 56.1601 33.4065 56.1755 33.3195L56.5912 30.9455C56.6163 30.8053 56.6902 30.6783 56.7999 30.5868C56.9096 30.4953 57.0481 30.4452 57.1913 30.4451H59.5056C59.5944 30.4452 59.682 30.4646 59.7625 30.5019C59.8429 30.5393 59.9141 30.5937 59.9712 30.6614C60.0282 30.729 60.0697 30.8083 60.0927 30.8936C60.1157 30.9788 60.1196 31.0681 60.1043 31.1551L59.6885 33.529C59.6635 33.6705 59.5888 33.7986 59.4775 33.8903C59.3663 33.9819 59.226 34.0313 59.0815 34.0294Z" fill="#3C6BEB"/>
<path d="M64.8022 33.478H62.8981C62.8391 33.4769 62.7809 33.4632 62.7275 33.438C62.6742 33.4127 62.6268 33.3765 62.5887 33.3316C62.5505 33.2867 62.5224 33.2343 62.5062 33.1777C62.4901 33.1212 62.4862 33.0619 62.4949 33.0038L62.8122 31.1082C62.8293 31.0135 62.8791 30.9276 62.9529 30.8655C63.0268 30.8033 63.1201 30.7687 63.2169 30.7677H65.121C65.18 30.7688 65.2382 30.7824 65.2915 30.8077C65.3449 30.8329 65.3922 30.8692 65.4304 30.9141C65.4686 30.959 65.4967 31.0114 65.5129 31.0679C65.529 31.1245 65.5329 31.1838 65.5242 31.2419L65.2069 33.1375C65.1898 33.2322 65.14 33.3181 65.0662 33.3802C64.9923 33.4424 64.899 33.4769 64.8022 33.478Z" fill="#3C6BEB"/>
<path d="M67.6916 30.1694H65.5311C65.4779 30.1693 65.4253 30.1579 65.377 30.1359C65.3286 30.1139 65.2856 30.0818 65.2507 30.0418C65.2159 30.0018 65.1901 29.9548 65.1751 29.9041C65.1602 29.8533 65.1563 29.7999 65.1638 29.7475L65.4729 27.5914C65.4855 27.5035 65.5296 27.423 65.5971 27.3648C65.6645 27.3065 65.7508 27.2744 65.8401 27.2743H68.0006C68.0538 27.2742 68.1065 27.2854 68.155 27.3074C68.2035 27.3293 68.2466 27.3614 68.2815 27.4015C68.3163 27.4415 68.3421 27.4886 68.357 27.5394C68.3719 27.5903 68.3756 27.6438 68.3678 27.6962L68.0588 29.8523C68.0461 29.9403 68.002 30.0207 67.9346 30.0789C67.8671 30.1372 67.7809 30.1693 67.6916 30.1694Z" fill="#3C6BEB"/>
<path d="M69.5639 32.6508H68.2086C68.1671 32.6508 68.1262 32.642 68.0884 32.6249C68.0507 32.6078 68.0172 32.5829 67.99 32.5518C67.9628 32.5207 67.9426 32.4842 67.9309 32.4446C67.9191 32.4051 67.9159 32.3636 67.9217 32.3227L68.1171 30.9676C68.1265 30.899 68.1606 30.8362 68.2132 30.7908C68.2657 30.7454 68.333 30.7205 68.4026 30.7208H69.7579C69.7993 30.7208 69.8403 30.7297 69.878 30.7467C69.9157 30.7638 69.9492 30.7888 69.9764 30.8199C70.0036 30.851 70.0238 30.8875 70.0356 30.927C70.0474 30.9665 70.0505 31.0081 70.0447 31.0489L69.8507 32.4041C69.8407 32.4726 69.8062 32.5353 69.7535 32.5807C69.7009 32.626 69.6335 32.6509 69.5639 32.6508Z" fill="#3C6BEB"/>
<path d="M72.1995 30.1804H70.6322C70.5678 30.1797 70.5045 30.1647 70.4467 30.1365C70.3889 30.1083 70.3382 30.0676 70.2984 30.0173C70.2585 29.9671 70.2305 29.9086 70.2163 29.8462C70.2021 29.7837 70.2022 29.7189 70.2164 29.6565L70.5892 28.0229C70.6104 27.9286 70.663 27.8443 70.7385 27.7834C70.814 27.7226 70.9078 27.689 71.0049 27.6879H72.5723C72.6366 27.6886 72.7 27.7036 72.7578 27.7318C72.8155 27.76 72.8662 27.8007 72.9061 27.8509C72.9459 27.9012 72.974 27.9597 72.9882 28.0221C73.0024 28.0845 73.0023 28.1493 72.988 28.2118L72.6167 29.8468C72.5949 29.9409 72.5419 30.025 72.4662 30.0855C72.3905 30.146 72.2966 30.1795 72.1995 30.1804Z" fill="#3C6BEB"/>
<path d="M74.7731 31.9616H73.5453C73.4876 31.9617 73.4305 31.9493 73.3781 31.9254C73.3257 31.9014 73.2791 31.8663 73.2417 31.8226C73.2042 31.779 73.1768 31.7277 73.1612 31.6724C73.1457 31.6171 73.1424 31.5591 73.1517 31.5025L73.354 30.2287C73.3686 30.1353 73.4163 30.0501 73.4885 29.9887C73.5607 29.9272 73.6526 29.8935 73.7476 29.8937H74.9754C75.0331 29.8935 75.0902 29.9059 75.1426 29.9299C75.195 29.9538 75.2416 29.9889 75.279 30.0326C75.3165 30.0763 75.3439 30.1275 75.3594 30.1828C75.375 30.2381 75.3782 30.2961 75.369 30.3527L75.168 31.6266C75.1529 31.7199 75.1049 31.8049 75.0325 31.8663C74.9601 31.9277 74.8682 31.9614 74.7731 31.9616Z" fill="#3C6BEB"/>
<path d="M76.6355 29.8054H75.6751C75.63 29.8056 75.5854 29.796 75.5444 29.7773C75.5034 29.7586 75.467 29.7313 75.4377 29.6972C75.4085 29.663 75.387 29.623 75.3749 29.5798C75.3627 29.5366 75.3602 29.4913 75.3674 29.447L75.5254 28.4517C75.5367 28.3786 75.5739 28.312 75.6304 28.2639C75.6868 28.2159 75.7588 28.1895 75.8331 28.1897H76.7934C76.8385 28.1895 76.8831 28.1991 76.9241 28.2178C76.9651 28.2365 77.0015 28.2639 77.0308 28.298C77.0601 28.3321 77.0815 28.3722 77.0936 28.4154C77.1058 28.4586 77.1083 28.5039 77.1011 28.5482L76.9431 29.5435C76.9318 29.6166 76.8946 29.6832 76.8381 29.7312C76.7817 29.7793 76.7098 29.8056 76.6355 29.8054Z" fill="#3C6BEB"/>
<path d="M78.1017 30.9965H77.4989C77.4707 30.9965 77.4428 30.9904 77.4172 30.9786C77.3916 30.9668 77.3688 30.9496 77.3505 30.9283C77.3322 30.9069 77.3188 30.8819 77.3112 30.8549C77.3035 30.8279 77.3018 30.7995 77.3062 30.7718L77.4046 30.1459C77.4119 30.1 77.4355 30.0583 77.4711 30.0282C77.5067 29.9981 77.5519 29.9817 77.5986 29.9819H78.2014C78.2298 29.9817 78.2578 29.9877 78.2836 29.9994C78.3093 30.0111 78.3322 30.0282 78.3507 30.0496C78.3691 30.071 78.3827 30.0961 78.3904 30.1232C78.3982 30.1503 78.3999 30.1788 78.3955 30.2066L78.2957 30.8325C78.2882 30.8783 78.2645 30.9199 78.229 30.9499C78.1934 30.98 78.1483 30.9965 78.1017 30.9965Z" fill="#3C6BEB"/>
<path d="M62.4324 38.645H59.5222C59.4532 38.6449 59.385 38.6299 59.3224 38.601C59.2598 38.572 59.2043 38.5298 59.1598 38.4773C59.1153 38.4247 59.0829 38.3632 59.0649 38.2969C59.0468 38.2306 59.0435 38.1612 59.0552 38.0935L59.5804 35.1116C59.5997 35.0021 59.6573 34.9028 59.743 34.8315C59.8287 34.7601 59.937 34.7211 60.0488 34.7215H62.959C63.028 34.7215 63.0963 34.7365 63.1589 34.7655C63.2215 34.7944 63.2769 34.8367 63.3214 34.8892C63.3659 34.9417 63.3983 35.0033 63.4164 35.0695C63.4344 35.1358 63.4377 35.2052 63.426 35.2729L62.9008 38.2534C62.8816 38.3631 62.824 38.4625 62.7383 38.5341C62.6527 38.6058 62.5443 38.645 62.4324 38.645Z" fill="#C2C76C"/>
<path d="M58.6658 42.1631H56.3598C56.2709 42.1633 56.1831 42.144 56.1025 42.1067C56.0219 42.0695 55.9505 42.0151 55.8933 41.9474C55.8361 41.8797 55.7945 41.8004 55.7714 41.715C55.7483 41.6296 55.7443 41.5402 55.7597 41.4532L56.1755 39.0792C56.2005 38.939 56.2744 38.812 56.3841 38.7205C56.4938 38.629 56.6324 38.5789 56.7755 38.5788H59.0898C59.1786 38.5789 59.2663 38.5983 59.3467 38.6356C59.4271 38.673 59.4984 38.7274 59.5554 38.7951C59.6125 38.8627 59.6539 38.942 59.6769 39.0273C59.6999 39.1125 59.7039 39.2018 59.6885 39.2888L59.2728 41.6627C59.2478 41.8042 59.173 41.9323 59.0618 42.024C58.9506 42.1156 58.8102 42.165 58.6658 42.1631Z" fill="#C2C76C"/>
<path d="M64.3865 41.6117H62.4824C62.4233 41.6106 62.3652 41.5969 62.3118 41.5717C62.2585 41.5465 62.2111 41.5102 62.173 41.4653C62.1348 41.4204 62.1067 41.368 62.0905 41.3115C62.0743 41.2549 62.0705 41.1956 62.0792 41.1375L62.3965 39.2419C62.4136 39.1472 62.4634 39.0613 62.5372 38.9992C62.6111 38.937 62.7044 38.9025 62.8012 38.9014H64.7053C64.7643 38.9025 64.8225 38.9162 64.8758 38.9414C64.9292 38.9666 64.9765 39.0029 65.0147 39.0478C65.0528 39.0927 65.081 39.1451 65.0971 39.2016C65.1133 39.2582 65.1172 39.3175 65.1085 39.3756L64.7912 41.2712C64.7741 41.3659 64.7243 41.4518 64.6504 41.5139C64.5766 41.5761 64.4832 41.6107 64.3865 41.6117Z" fill="#C2C76C"/>
<path d="M67.2758 38.3031H65.1154C65.0622 38.303 65.0096 38.2916 64.9613 38.2696C64.9129 38.2476 64.8698 38.2155 64.835 38.1755C64.8002 38.1355 64.7744 38.0885 64.7594 38.0378C64.7444 37.987 64.7406 37.9336 64.7481 37.8812L65.0572 35.7251C65.0698 35.6372 65.1139 35.5567 65.1814 35.4985C65.2488 35.4403 65.3351 35.4081 65.4244 35.4081H67.5849C67.6381 35.4079 67.6908 35.4191 67.7393 35.4411C67.7878 35.463 67.8309 35.4951 67.8658 35.5352C67.9006 35.5752 67.9264 35.6223 67.9413 35.6732C67.9562 35.724 67.9599 35.7775 67.9521 35.8299L67.6431 37.986C67.6304 38.074 67.5863 38.1544 67.5189 38.2127C67.4514 38.2709 67.3652 38.303 67.2758 38.3031Z" fill="#C2C76C"/>
<path d="M69.1481 40.7845H67.7928C67.7513 40.7845 67.7104 40.7757 67.6727 40.7586C67.635 40.7415 67.6014 40.7166 67.5742 40.6855C67.547 40.6544 67.5269 40.6179 67.5151 40.5783C67.5033 40.5388 67.5002 40.4973 67.5059 40.4564L67.7013 39.1013C67.7107 39.0327 67.7449 38.9699 67.7974 38.9245C67.8499 38.8791 67.9172 38.8542 67.9868 38.8545H69.3421C69.3835 38.8545 69.4245 38.8633 69.4622 38.8804C69.4999 38.8975 69.5335 38.9225 69.5607 38.9536C69.5879 38.9847 69.608 39.0212 69.6198 39.0607C69.6316 39.1002 69.6347 39.1418 69.629 39.1826L69.4349 40.5378C69.4249 40.6063 69.3905 40.669 69.3378 40.7144C69.2851 40.7597 69.2178 40.7846 69.1481 40.7845Z" fill="#C2C76C"/>
<path d="M71.7838 38.3141H70.2165C70.1521 38.3134 70.0887 38.2984 70.031 38.2702C69.9732 38.242 69.9225 38.2013 69.8827 38.1511C69.8428 38.1008 69.8148 38.0423 69.8006 37.9799C69.7864 37.9175 69.7864 37.8527 69.8007 37.7902L70.1735 36.1566C70.1947 36.0623 70.2473 35.978 70.3228 35.9172C70.3983 35.8564 70.4921 35.8227 70.5892 35.8216H72.1566C72.2209 35.8223 72.2843 35.8373 72.3421 35.8655C72.3998 35.8937 72.4505 35.9344 72.4904 35.9847C72.5302 36.0349 72.5583 36.0934 72.5725 36.1558C72.5866 36.2183 72.5866 36.2831 72.5723 36.3455L72.2009 37.9805C72.1792 38.0746 72.1262 38.1587 72.0505 38.2192C71.9748 38.2797 71.8809 38.3132 71.7838 38.3141Z" fill="#C2C76C"/>
<path d="M74.3573 40.0953H73.1295C73.0718 40.0954 73.0148 40.0831 72.9623 40.0591C72.9099 40.0351 72.8633 40 72.8259 39.9564C72.7884 39.9127 72.761 39.8614 72.7455 39.8061C72.7299 39.7508 72.7267 39.6929 72.7359 39.6362L72.9382 38.3624C72.9528 38.269 73.0005 38.1839 73.0727 38.1224C73.1449 38.061 73.2368 38.0272 73.3318 38.0274H74.5596C74.6173 38.0272 74.6744 38.0396 74.7268 38.0636C74.7793 38.0876 74.8258 38.1226 74.8632 38.1663C74.9007 38.21 74.9281 38.2612 74.9437 38.3165C74.9592 38.3718 74.9625 38.4298 74.9532 38.4864L74.7523 39.7603C74.7371 39.8537 74.6891 39.9386 74.6167 40C74.5444 40.0614 74.4524 40.0952 74.3573 40.0953Z" fill="#C2C76C"/>
<path d="M76.2198 37.9391H75.2594C75.2143 37.9393 75.1697 37.9297 75.1287 37.911C75.0877 37.8923 75.0513 37.865 75.022 37.8309C74.9927 37.7967 74.9713 37.7567 74.9592 37.7135C74.947 37.6703 74.9445 37.625 74.9517 37.5807L75.1097 36.5854C75.121 36.5123 75.1582 36.4457 75.2147 36.3976C75.2711 36.3496 75.3431 36.3232 75.4174 36.3234H76.3777C76.4228 36.3232 76.4674 36.3328 76.5084 36.3515C76.5494 36.3702 76.5858 36.3976 76.6151 36.4317C76.6443 36.4658 76.6658 36.5059 76.6779 36.5491C76.6901 36.5923 76.6926 36.6376 76.6854 36.6819L76.5274 37.6772C76.5161 37.7503 76.4789 37.8169 76.4224 37.8649C76.366 37.913 76.2941 37.9393 76.2198 37.9391Z" fill="#C2C76C"/>
<path d="M77.6859 39.1302H77.0831C77.0549 39.1302 77.027 39.124 77.0014 39.1123C76.9758 39.1005 76.9531 39.0833 76.9348 39.062C76.9165 39.0406 76.903 39.0156 76.8954 38.9886C76.8877 38.9616 76.8861 38.9332 76.8905 38.9055L76.9888 38.2796C76.9961 38.2337 77.0197 38.192 77.0553 38.1619C77.0909 38.1318 77.1362 38.1153 77.1829 38.1156H77.7857C77.814 38.1154 77.842 38.1214 77.8678 38.1331C77.8936 38.1448 77.9165 38.1619 77.9349 38.1833C77.9534 38.2047 77.9669 38.2298 77.9747 38.2569C77.9824 38.284 77.9841 38.3125 77.9797 38.3403L77.8799 38.9662C77.8724 39.012 77.8487 39.0536 77.8132 39.0836C77.7777 39.1137 77.7325 39.1302 77.6859 39.1302Z" fill="#C2C76C"/>
<path d="M11.3975 35.5955H6.63029C6.37236 35.5955 6.16327 35.8035 6.16327 36.0601V40.8025C6.16327 41.0591 6.37236 41.2671 6.63029 41.2671H11.3975C11.6554 41.2671 11.8645 41.0591 11.8645 40.8025V36.0601C11.8645 35.8035 11.6554 35.5955 11.3975 35.5955Z" fill="#C2C76C"/>
<path d="M7.97724 24.5351H5.48972C5.2318 24.5351 5.02271 24.7431 5.02271 24.9997V27.4742C5.02271 27.7308 5.2318 27.9388 5.48972 27.9388H7.97724C8.23517 27.9388 8.44426 27.7308 8.44426 27.4742V24.9997C8.44426 24.7431 8.23517 24.5351 7.97724 24.5351Z" fill="#00AAEB"/>
<path d="M28.2183 40.9844H25.7307C25.4728 40.9844 25.2637 41.1924 25.2637 41.449V43.9236C25.2637 44.1802 25.4728 44.3882 25.7307 44.3882H28.2183C28.4762 44.3882 28.6853 44.1802 28.6853 43.9236V41.449C28.6853 41.1924 28.4762 40.9844 28.2183 40.9844Z" fill="#00AAEB"/>
<path d="M10.5437 29.64H8.91123C8.6533 29.64 8.44421 29.848 8.44421 30.1046V31.7286C8.44421 31.9852 8.6533 32.1932 8.91123 32.1932H10.5437C10.8016 32.1932 11.0107 31.9852 11.0107 31.7286V30.1046C11.0107 29.848 10.8016 29.64 10.5437 29.64Z" fill="#02383B"/>
<path d="M2.56011 32.1918H1.21311C0.955184 32.1918 0.746094 32.3998 0.746094 32.6564V33.9964C0.746094 34.2529 0.955184 34.4609 1.21311 34.4609H2.56011C2.81804 34.4609 3.02713 34.2529 3.02713 33.9964V32.6564C3.02713 32.3998 2.81804 32.1918 2.56011 32.1918Z" fill="#3C6BEB"/>
<path d="M4.55572 35.5955H3.20872C2.95079 35.5955 2.7417 35.8035 2.7417 36.0601V37.4001C2.7417 37.6567 2.95079 37.8647 3.20872 37.8647H4.55572C4.81364 37.8647 5.02273 37.6567 5.02273 37.4001V36.0601C5.02273 35.8035 4.81364 35.5955 4.55572 35.5955Z" fill="#297770"/>
<path d="M19.0956 33.6104H17.4631C17.2052 33.6104 16.9961 33.8184 16.9961 34.0749V35.6989C16.9961 35.9555 17.2052 36.1635 17.4631 36.1635H19.0956C19.3535 36.1635 19.5626 35.9555 19.5626 35.6989V34.0749C19.5626 33.8184 19.3535 33.6104 19.0956 33.6104Z" fill="#02383B"/>
<path d="M13.1089 43.5362H11.4764C11.2185 43.5362 11.0094 43.7442 11.0094 44.0008V45.6248C11.0094 45.8814 11.2185 46.0894 11.4764 46.0894H13.1089C13.3668 46.0894 13.5759 45.8814 13.5759 45.6248V44.0008C13.5759 43.7442 13.3668 43.5362 13.1089 43.5362Z" fill="#02383B"/>
<path fill-rule="evenodd" clip-rule="evenodd" d="M177.54 22.2241C176.535 21.4264 175.257 20.4246 173.22 20.4246C171.243 20.4246 169.692 21.7143 169.692 23.5228C169.692 25.7033 171.609 26.837 174.466 28.4955C177.736 30.397 178.663 32.2086 178.663 34.416C178.663 38.222 175.714 40.9843 170.934 40.9843C169.603 40.9906 168.28 40.7831 167.013 40.3695V35.4807L167.053 35.5264C168.082 36.7203 169.418 38.27 171.472 38.27C173.449 38.27 174.879 36.6774 174.879 35.0489C174.879 33.4203 173.631 32.4425 172.962 32.0106C168.11 28.9424 166.178 27.7157 166.178 24.2186C166.178 20.5656 169.189 17.5603 172.932 17.5603C174.94 17.5603 176.355 18.1579 177.438 18.6148L177.555 18.6641L177.54 22.2241ZM130.226 40.7564C129.367 39.5897 128.302 38.1261 126.658 34.527L118.935 17.7133H118.751L109.964 35.3248C108.076 39.1008 107.407 39.9196 106.646 40.8194H112.214C112.092 39.0078 112.972 37.0134 113.367 36.1556L114.524 33.6692H122.532L123.87 36.7674C124.69 38.6389 124.812 39.8056 124.812 40.8194L130.226 40.7564ZM121.337 30.9699H115.802L118.691 24.8005L121.337 30.9699ZM89.2199 17.8963C89.827 19.9057 90.1346 21.995 90.1325 24.0957V33.8222C90.1325 38.0571 89.7074 39.3767 89.2199 40.8193H94.7314C102.062 40.8193 106.593 35.5257 106.593 29.5273C106.617 27.0429 105.814 24.6223 104.312 22.653C100.846 18.1722 95.7956 17.7733 91.5981 17.7733C90.7616 17.7733 90.22 17.8167 89.6078 17.8657L89.6078 17.8657L89.6078 17.8657L89.6078 17.8657L89.6078 17.8657L89.6078 17.8657L89.6078 17.8657C89.4825 17.8758 89.3542 17.8861 89.2199 17.8963ZM93.5393 33.2703V33.2703V24.1197C93.5147 22.7175 93.5763 21.3152 93.7236 19.9207C100.962 20.9345 102.573 25.9972 102.573 29.2183C102.573 32.8414 100.504 37.9041 93.7236 38.5789C93.5393 36.7374 93.5393 35.8796 93.5393 33.2703ZM144.875 17.8363L143.288 21.3634C140.794 20.3526 139.973 20.1367 137.342 20.1367V35.3248C137.311 37.1769 137.526 39.0249 137.982 40.8194H133.32C133.771 38.8998 133.985 36.9313 133.956 34.9589V20.1367C132.437 20.1067 131.1 20.1067 126.688 21.7023L127.904 17.8363H144.875ZM164.692 40.7564C163.832 39.5897 162.768 38.1261 161.124 34.527L153.395 17.7133H153.208L144.42 35.3248C142.533 39.1008 141.864 39.9196 141.103 40.8194H146.671C146.549 39.0078 147.432 37.0134 147.827 36.1556L148.981 33.6692H156.995L158.333 36.7674C159.153 38.6389 159.275 39.8056 159.275 40.8194L164.692 40.7564ZM155.803 30.9699H150.268L153.157 24.8005L155.803 30.9699ZM203.489 40.7564C202.629 39.5897 201.565 38.1261 199.921 34.527L192.198 17.7133H192.014L183.223 35.3248C181.339 39.1008 180.67 39.9196 179.909 40.8194H185.477C185.355 39.0078 186.235 37.0134 186.63 36.1556L187.787 33.6692H195.795L197.133 36.7674C197.953 38.6389 198.075 39.8056 198.075 40.8194L203.489 40.7564ZM194.603 30.9699H189.068L191.957 24.8005L194.603 30.9699ZM211.203 17.8033L211.196 17.8218L211.196 17.8219C210.653 19.3471 210.29 20.3654 210.29 23.5018V28.0007L216.161 20.8025C217.61 19.0674 217.741 18.5402 217.92 17.82L217.924 17.8033H223.703C221.695 19.3268 219.886 21.1004 218.32 23.0819L214.214 28.0217L221.97 37.8711C222.755 38.9102 223.619 39.885 224.556 40.7864L218.991 40.8194C218.694 39.7127 218.352 38.5789 216.527 36.3385L210.284 28.4206V35.0459C210.295 36.9961 210.561 38.9363 211.075 40.8164H205.941C206.563 38.8628 206.871 36.8216 206.854 34.7699V22.773C206.834 21.1058 206.568 19.451 206.063 17.8633L211.203 17.8033ZM232.243 17.9195L232.279 17.8033H227.14C227.734 19.2159 228.031 20.6586 228.031 23.2679V34.2211C228.031 37.9929 227.609 39.3319 227.162 40.747L227.14 40.8194H232.279C231.656 38.7624 231.368 36.6171 231.426 34.467V23.8797C231.426 20.512 231.83 19.2298 232.243 17.9195Z" fill="#3F4B57"/>
</svg>
