<svg width="33" height="28" viewBox="0 0 33 28" fill="none" xmlns="http://www.w3.org/2000/svg">
<path d="M2.58949 20.7206H1.26836C0.903535 20.7206 0.607788 21.0164 0.607788 21.3812V22.7023C0.607788 23.0672 0.903535 23.3629 1.26836 23.3629H2.58949C2.95431 23.3629 3.25006 23.0672 3.25006 22.7023V21.3812C3.25006 21.0164 2.95431 20.7206 2.58949 20.7206Z" fill="white"/>
<path d="M31.6544 20.7206H30.3333C29.9685 20.7206 29.6727 21.0164 29.6727 21.3812V22.7023C29.6727 23.0672 29.9685 23.3629 30.3333 23.3629H31.6544C32.0193 23.3629 32.315 23.0672 32.315 22.7023V21.3812C32.315 21.0164 32.0193 20.7206 31.6544 20.7206Z" fill="white"/>
<path d="M6.55287 24.6841H5.23174C4.86691 24.6841 4.57117 24.9798 4.57117 25.3447V26.6658C4.57117 27.0306 4.86691 27.3264 5.23174 27.3264H6.55287C6.91769 27.3264 7.21344 27.0306 7.21344 26.6658V25.3447C7.21344 24.9798 6.91769 24.6841 6.55287 24.6841Z" fill="white"/>
<path d="M27.6911 24.6841H26.37C26.0052 24.6841 25.7094 24.9798 25.7094 25.3447V26.6658C25.7094 27.0306 26.0052 27.3264 26.37 27.3264H27.6911C28.0559 27.3264 28.3517 27.0306 28.3517 26.6658V25.3447C28.3517 24.9798 28.0559 24.6841 27.6911 24.6841Z" fill="white"/>
<path d="M16.4615 6.1882C22.2986 6.1882 27.0306 5.00522 27.0306 3.54593C27.0306 2.08664 22.2986 0.903656 16.4615 0.903656C10.6243 0.903656 5.8924 2.08664 5.8924 3.54593C5.8924 5.00522 10.6243 6.1882 16.4615 6.1882Z" fill="white"/>
<path d="M25.0488 21.3812V17.1073C26.218 16.7242 27.0305 16.1826 27.0305 15.4361V5.60025C26.616 5.86885 26.1729 6.09041 25.7093 6.26082V7.44984C25.2866 7.93866 22.1621 8.84364 16.4614 8.84364C10.7607 8.84364 7.6362 7.93866 7.21344 7.44984V6.26082C6.74988 6.09041 6.30677 5.86885 5.8923 5.60025V15.4361C5.8923 16.1826 6.7048 16.7242 7.87401 17.1073V21.3812H4.57117V22.7024H8.53458C8.70977 22.7024 8.87779 22.6328 9.00167 22.5089C9.12555 22.385 9.19514 22.217 9.19514 22.0418V17.4508C10.504 17.7051 11.8279 17.875 13.1586 17.9595V25.3446H8.53458V26.6658H13.8191C13.9943 26.6658 14.1623 26.5962 14.2862 26.4723C14.4101 26.3484 14.4797 26.1804 14.4797 26.0052V18.0321C15.4573 18.0718 16.2038 18.0784 16.4614 18.0784C16.719 18.0784 17.4655 18.0784 18.4431 18.0321V26.0052C18.4431 26.1804 18.5127 26.3484 18.6366 26.4723C18.7605 26.5962 18.9285 26.6658 19.1037 26.6658H24.3882V25.3446H19.7642V17.9595C21.0949 17.875 22.4188 17.7051 23.7276 17.4508V22.0748C23.7276 22.25 23.7972 22.418 23.9211 22.5419C24.045 22.6658 24.213 22.7354 24.3882 22.7354H28.3516V21.3812H25.0488ZM7.21344 8.92951C9.85571 10.1053 15.6291 10.1516 16.4614 10.1516C17.2937 10.1516 23.0671 10.1053 25.7093 8.92951V11.4C25.2866 11.8889 22.1621 12.7938 16.4614 12.7938C10.7607 12.7938 7.6362 11.8889 7.21344 11.4V8.92951ZM16.4614 16.7572C10.7607 16.7572 7.6362 15.8523 7.21344 15.3634V12.8929C9.85571 14.0687 15.6291 14.115 16.4614 14.115C17.2937 14.115 23.0671 14.0687 25.7093 12.8929V15.3634C25.2866 15.8523 22.1621 16.7572 16.4614 16.7572Z" fill="white"/>
</svg>
