<svg width="34" height="35" viewBox="0 0 34 35" fill="none" xmlns="http://www.w3.org/2000/svg">
<path d="M32.3513 26.1735H27.6157V24.7513C27.6157 23.5925 26.673 22.6498 25.5142 22.6498H18.9048C18.7262 22.0749 18.2777 21.6256 17.7034 21.446V19.9261C20.2306 19.8879 26.0551 19.5246 26.0551 17.0681C26.0551 12.0854 26.0551 7.84021 26.0551 2.85936C26.0551 0.418424 19.6197 0.0977478 17.1617 0.0977478C14.7056 0.0977478 8.26175 0.421478 8.26175 2.85936C8.26175 7.84021 8.26175 12.0854 8.26175 17.0681C8.26175 19.5246 14.0916 19.8879 16.6187 19.9261V21.4439C16.0414 21.6224 15.5901 22.0728 15.4109 22.6498H8.80499C7.64622 22.6498 6.70352 23.5925 6.70352 24.7513V26.1735H1.95458C1.10324 26.1735 0.41449 26.8676 0.41449 27.7136V32.7626C0.41449 33.6086 1.10324 34.2974 1.95458 34.2974H13.2781C14.1296 34.2974 14.8184 33.6086 14.8184 32.7626V27.7136C14.8184 26.8676 14.1296 26.1735 13.2781 26.1735H7.78815V24.7513C7.78815 24.1904 8.2444 23.7345 8.80499 23.7345H15.4109C15.6434 24.4828 16.333 25.0299 17.1579 25.0299C17.9827 25.0299 18.6724 24.4828 18.9049 23.7345H25.5142C26.0748 23.7345 26.5311 24.1904 26.5311 24.7513V26.1735H21.0224C20.1764 26.1735 19.4822 26.8676 19.4822 27.7136V32.7626C19.4822 33.6086 20.1764 34.2974 21.0224 34.2974H32.3513C33.2027 34.2974 33.8915 33.6086 33.8915 32.7626V27.7136C33.8915 26.8676 33.2027 26.1735 32.3513 26.1735ZM3.54365 31.1682C3.54365 31.4719 3.29963 31.7105 3.00134 31.7105C2.70304 31.7105 2.45902 31.4719 2.45902 31.1682V29.3027C2.45902 29.0043 2.70304 28.7604 3.00134 28.7604C3.29963 28.7604 3.54365 29.0043 3.54365 29.3027V31.1682ZM5.87019 31.1682C5.87019 31.4719 5.62605 31.7105 5.32788 31.7105C5.02415 31.7105 4.78557 31.4719 4.78557 31.1682V29.3027C4.78557 29.0043 5.02415 28.7604 5.32788 28.7604C5.62605 28.7604 5.87019 29.0043 5.87019 29.3027V31.1682ZM11.1469 29.0856C11.7434 29.0856 12.2315 29.5683 12.2315 30.1702C12.2315 30.7668 11.7434 31.2548 11.1469 31.2548C10.5449 31.2548 10.0623 30.7668 10.0623 30.1702C10.0623 29.5683 10.5449 29.0856 11.1469 29.0856ZM8.19118 29.3027V31.1682C8.19118 31.4719 7.94716 31.7105 7.64887 31.7105C7.3507 31.7105 7.10655 31.4719 7.10655 31.1682V29.3027C7.10655 29.0043 7.3507 28.7604 7.64887 28.7604C7.94716 28.7604 8.19118 29.0043 8.19118 29.3027ZM9.34638 4.42143C11.3583 5.6035 15.5938 5.72292 17.1611 5.72292C18.7284 5.72292 22.9639 5.6035 24.9705 4.42143V9.79557C24.9705 10.7772 21.4671 11.5745 17.1611 11.5745C12.8551 11.5745 9.34638 10.7772 9.34638 9.79557V4.42143ZM16.6187 18.8414C12.5623 18.7763 9.34638 18.0063 9.34638 17.0681V11.3576C9.3518 11.3576 9.3518 11.3629 9.35723 11.3629C11.3068 12.4583 14.9368 12.6591 17.1611 12.6591C19.4457 12.6591 23.0094 12.457 24.9596 11.3629C24.965 11.3629 24.965 11.3576 24.9705 11.3576V17.0681C24.9705 18.0063 21.7599 18.7763 17.7034 18.8414C17.5245 18.8467 17.3455 18.8467 17.1611 18.8467C16.9768 18.8467 16.7978 18.8467 16.6187 18.8414ZM22.6168 31.1682C22.6168 31.4719 22.3728 31.7105 22.0745 31.7105C21.7762 31.7105 21.5321 31.4719 21.5321 31.1682V29.3027C21.5321 29.0043 21.7762 28.7604 22.0745 28.7604C22.3728 28.7604 22.6168 29.0043 22.6168 29.3027V31.1682ZM24.9379 31.1682C24.9379 31.4719 24.6939 31.7105 24.3956 31.7105C24.0973 31.7105 23.8533 31.4719 23.8533 31.1682V29.3027C23.8533 29.0043 24.0973 28.7604 24.3956 28.7604C24.6939 28.7604 24.9379 29.0043 24.9379 29.3027V31.1682ZM27.2644 31.1682C27.2644 31.4719 27.0204 31.7105 26.7221 31.7105C26.4184 31.7105 26.1798 31.4719 26.1798 31.1682V29.3027C26.1798 29.0043 26.4184 28.7604 26.7221 28.7604C27.0204 28.7604 27.2644 29.0043 27.2644 29.3027V31.1682ZM30.2146 31.2548C29.618 31.2548 29.13 30.7668 29.13 30.1702C29.13 29.5683 29.618 29.0856 30.2146 29.0856C30.8166 29.0856 31.2992 29.5683 31.2992 30.1702C31.2992 30.7668 30.8166 31.2548 30.2146 31.2548Z" fill="white"/>
<path d="M22.5894 9.23087C23.0665 9.23087 23.4568 8.84071 23.4568 8.35818C23.4568 7.8812 23.0665 7.49078 22.5894 7.49078C22.107 7.49078 21.7167 7.8812 21.7167 8.35818C21.7167 8.84071 22.107 9.23087 22.5894 9.23087Z" fill="white"/>
<path d="M19.5091 9.44773C19.9861 9.44773 20.3765 9.05757 20.3765 8.5806C20.3765 8.09806 19.9861 7.70764 19.5091 7.70764C19.0267 7.70764 18.6363 8.09806 18.6363 8.5806C18.6363 9.05757 19.0267 9.44773 19.5091 9.44773Z" fill="white"/>
<path d="M10.7077 8.76524C12.3673 9.24797 14.5257 9.40526 15.6644 9.45398H15.6916C15.979 9.45398 16.2176 9.22626 16.2339 8.93339C16.2447 8.63495 16.0116 8.38551 15.7133 8.36936C13.8315 8.28806 12.1611 8.06033 11.0115 7.72404C10.724 7.64274 10.4203 7.80533 10.339 8.09264C10.2576 8.38021 10.4203 8.68394 10.7077 8.76524Z" fill="white"/>
<path d="M22.5894 16.4003C23.0665 16.4003 23.4568 16.0099 23.4568 15.5329C23.4568 15.0504 23.0665 14.6602 22.5894 14.6602C22.107 14.6602 21.7167 15.0504 21.7167 15.5329C21.7167 16.0099 22.107 16.4003 22.5894 16.4003Z" fill="white"/>
<path d="M19.5091 16.6227C19.9861 16.6227 20.3765 16.2323 20.3765 15.7498C20.3765 15.2675 19.9861 14.8771 19.5091 14.8771C19.0267 14.8771 18.6363 15.2675 18.6363 15.7498C18.6363 16.2323 19.0267 16.6227 19.5091 16.6227Z" fill="white"/>
<path d="M15.7133 15.5389C13.8315 15.4573 12.1611 15.2296 11.0115 14.8933C10.724 14.812 10.4203 14.9748 10.339 15.2621C10.2576 15.5494 10.4203 15.8532 10.7077 15.9345C12.3673 16.4172 14.5257 16.5745 15.6644 16.6235H15.6916C15.979 16.6235 16.2176 16.3955 16.2339 16.1082C16.2447 15.81 16.0116 15.555 15.7133 15.5389Z" fill="white"/>
</svg>
