<svg width="21" height="21" viewBox="0 0 21 21" fill="none" xmlns="http://www.w3.org/2000/svg">
<rect x="0.0151367" y="0.675964" width="20.0752" height="20.0752" rx="4" fill="#0B558D"/>
<g clip-path="url(#clip0_407_1070)">
<path d="M8.76378 4.21356C7.29689 4.21356 5.96684 4.48651 4.98134 4.94407C3.99585 5.40162 3.31934 6.06683 3.31934 6.86171V14.5654C3.31934 15.3603 3.9958 16.0255 4.98134 16.4831C5.96689 16.9406 7.29689 17.2136 8.76378 17.2136C10.0513 17.2136 11.2326 17.0021 12.1686 16.6417C12.6548 16.9993 13.2685 17.2136 13.9352 17.2136C15.5071 17.2136 16.787 16.0251 16.787 14.5654C16.787 13.1913 15.6526 12.0579 14.2082 11.9297V6.86171C14.2082 6.06683 13.5317 5.40162 12.5461 4.94407C11.5606 4.48651 10.2307 4.21356 8.76378 4.21356ZM8.76378 4.69504C10.1606 4.69504 11.4232 4.96101 12.3143 5.37475C13.2055 5.78849 13.6897 6.32702 13.6897 6.86171C13.6897 7.3964 13.2055 7.93493 12.3143 8.34867C11.4232 8.76241 10.1606 9.02838 8.76378 9.02838C7.36699 9.02838 6.1044 8.76241 5.21322 8.34867C4.32205 7.93493 3.83785 7.3964 3.83785 6.86171C3.83785 6.32702 4.3221 5.78849 5.21322 5.37475C6.10435 4.96101 7.36694 4.69504 8.76378 4.69504ZM8.76378 5.05615C7.41962 5.05615 6.20738 5.31688 5.38714 5.69768C4.56585 6.07901 4.22674 6.51495 4.22674 6.86171C4.22571 6.9282 4.28295 6.98285 4.35456 6.98377C4.42617 6.98473 4.48502 6.93157 4.486 6.86508C4.486 6.86392 4.486 6.86282 4.486 6.86166C4.486 6.67894 4.7296 6.27214 5.50308 5.913C6.2737 5.55526 7.45608 5.2969 8.76378 5.2969C8.83539 5.29786 8.89424 5.2447 8.89522 5.17821C8.89626 5.11172 8.83902 5.05707 8.76741 5.05615C8.76622 5.05615 8.76497 5.05615 8.76378 5.05615ZM3.83785 8.00797C4.1261 8.30534 4.51981 8.5651 4.98134 8.77935C5.96684 9.23691 7.29689 9.50986 8.76378 9.50986C10.2307 9.50986 11.5606 9.23691 12.5461 8.77935C13.0076 8.5651 13.4014 8.30529 13.6897 8.00797V9.42964C13.6897 9.96433 13.2055 10.5029 12.3143 10.9166C11.4232 11.3303 10.1606 11.5962 8.76378 11.5962C7.36694 11.5962 6.1044 11.3303 5.21322 10.9166C4.32205 10.5029 3.83785 9.96433 3.83785 9.42964V8.00797ZM3.83785 10.5758C4.1261 10.8731 4.51981 11.1329 4.98134 11.3472C5.96684 11.8047 7.29694 12.0777 8.76378 12.0777C10.2306 12.0777 11.5606 11.8047 12.5461 11.3472C13.0076 11.1329 13.4014 10.8731 13.6897 10.5758V11.9278C12.4828 12.024 11.488 12.8212 11.1815 13.8779C10.4678 14.0594 9.64277 14.1641 8.76378 14.1641C7.36694 14.1641 6.1044 13.8982 5.21322 13.4844C4.32205 13.0707 3.83785 12.5322 3.83785 11.9975V10.5758ZM13.9352 12.3987C15.2269 12.3987 16.2685 13.3659 16.2685 14.5654C16.2685 15.7649 15.2269 16.7321 13.9352 16.7321C12.6434 16.7321 11.6018 15.7649 11.6018 14.5654C11.6018 13.3659 12.6434 12.3987 13.9352 12.3987ZM13.6948 12.6131C13.6831 12.6128 13.6715 12.6139 13.6601 12.6165C12.6768 12.83 11.9356 13.5839 11.7958 14.5125C11.7844 14.5782 11.8325 14.6399 11.9032 14.6505C11.9739 14.661 12.0404 14.6164 12.0518 14.5507C12.052 14.5491 12.0523 14.5476 12.0525 14.5459C12.1775 13.715 12.8394 13.042 13.7192 12.851C13.7891 12.8367 13.8333 12.7725 13.818 12.7076C13.8052 12.6535 13.7544 12.6145 13.6948 12.6131ZM3.83785 13.1437C4.1261 13.4411 4.51981 13.7009 4.98134 13.9151C5.96684 14.3727 7.29694 14.6456 8.76378 14.6456C9.59605 14.6456 10.3837 14.5565 11.0897 14.3968C11.0859 14.4526 11.0833 14.5087 11.0833 14.5654C11.0833 15.216 11.338 15.8123 11.759 16.2739C10.9311 16.5588 9.89156 16.7321 8.76373 16.7321C7.36689 16.7321 6.10435 16.4661 5.21317 16.0524C4.322 15.6386 3.83785 15.1001 3.83785 14.5654V13.1437ZM12.6389 14.3247C12.4957 14.3228 12.378 14.4291 12.3759 14.562C12.3739 14.6949 12.4883 14.8043 12.6315 14.8062C12.6339 14.8062 12.6364 14.8062 12.6388 14.8062H15.2314C15.3746 14.808 15.4923 14.7018 15.4944 14.5688C15.4964 14.4359 15.3819 14.3266 15.2388 14.3247C15.2363 14.3246 15.2339 14.3246 15.2315 14.3247H12.6389Z" fill="white"/>
</g>
<defs>
<clipPath id="clip0_407_1070">
<rect width="14" height="13" fill="white" transform="translate(3.05322 4.21356)"/>
</clipPath>
</defs>
</svg>
