<svg width="32" height="26" viewBox="0 0 32 26" fill="none" xmlns="http://www.w3.org/2000/svg">
<path d="M18.167 6.85946C17.4047 8.48096 18.5252 10.1825 18.3368 11.7313C18.2807 12.1903 18.1928 12.4633 17.9294 12.8264C16.2769 12.6556 13.6344 13.9914 11.7283 13.9438C10.034 13.901 10.0762 12.6636 9.18636 11.5963C9.00455 10.8291 11.1221 8.0086 11.8976 6.56075C14.0576 2.52764 12.8082 2.61303 13.3801 1.90895C13.7769 1.4204 15.4554 0.921064 17.5739 0.842021C18.7178 0.799166 19.6287 2.42098 19.6287 2.42098C19.6287 2.42098 22.4474 1.27946 24.9878 2.59176C26.6396 3.44505 26.7748 5.01131 27.826 6.94454C28.7609 8.86506 27.6171 11.4897 27.6171 11.4897C27.6171 11.4897 27.5928 12.3426 28.7114 12.0703C29.3089 11.9249 29.659 11.5309 29.8238 10.9707C30.1108 9.99484 29.6076 9.68057 29.5556 9.45582C29.4075 8.81554 30.5394 9.15521 30.7303 8.7711C30.9207 8.38699 31.0454 8.01178 31.4478 9.27075C32.3887 12.2157 31.2477 14.4143 29.8461 15.0485C28.2167 15.7853 26.7634 15.3653 24.8394 14.52C24.4064 14.3298 23.5503 13.5429 23.5685 14.0584C23.6139 15.3387 23.5159 15.4663 24.0371 16.0993C24.137 16.2208 23.9416 16.4161 23.3171 16.3977C22.5444 16.3754 21.6454 15.412 21.6454 15.412C20.3321 17.3747 21.3814 20.4098 21.2837 21.1771C21.0956 22.6494 20.1367 23.5074 19.8644 23.8017C19.463 24.2353 19.7542 24.381 19.6741 24.634C19.5563 25.0042 19.2078 25.4292 18.696 25.5359C18.1852 25.6898 14.3598 22.6649 14.3976 22.3951C14.4358 22.1256 15.1066 21.4717 15.5222 21.2625C15.8188 21.1129 15.734 20.8787 15.7091 20.6749C15.6514 20.1974 12.5965 19.6835 12.1515 19.8327C11.6433 20.3444 11.6855 22.0091 11.6855 22.0091C11.6855 22.0091 11.7658 22.2656 11.982 22.5002C12.1468 22.8329 12.2555 23.7138 11.9568 23.848C10.7773 24.3778 5.71607 23.9376 5.37355 23.6306C5.18291 23.4601 5.37355 22.5424 5.71229 22.2649C6.62579 21.5177 5.83928 18.6375 5.83928 18.6375C0.840716 13.8149 3.15141 9.47551 3.15141 9.47551C3.15141 9.47551 2.78935 9.97548 2.30187 9.87644C1.66819 9.74724 1.37829 9.04124 1.14227 8.36858C0.737991 8.16479 0.683792 7.75052 0.798492 7.42451C0.928947 7.0531 1.80306 6.45345 2.18056 5.99157C2.18717 6.52805 1.87049 7.07786 2.05262 7.45848C2.24011 7.85083 1.93792 8.22573 1.72239 8.30732C1.75611 8.86443 2.09989 9.08156 2.47739 9.09489C2.93587 9.11172 2.91571 8.41588 3.61651 7.62132C3.89223 6.78169 4.69575 5.8773 6.72915 4.89576C8.73702 3.92629 12.4077 4.18882 12.4077 4.18882C12.1887 4.70371 12.1474 5.08115 11.7305 5.7919C10.7247 7.50863 8.25742 10.7465 8.46571 11.6252C9.48383 12.8464 9.62153 14.6416 11.5613 14.6908C13.7431 14.7457 16.2583 13.2956 18.1496 13.4912C18.5385 12.8413 18.9541 12.5236 18.9204 12.0052C18.76 9.49836 17.8695 7.80004 18.167 6.85946ZM24.011 8.71428C23.8985 8.46794 23.8279 8.46636 23.7147 8.38985C23.4891 8.3089 23.2295 8.35589 22.9632 8.47651C22.6818 8.60413 22.6109 8.72444 22.4965 8.88094C22.4379 9.12981 22.4839 9.24092 22.5545 9.37773C22.6478 9.55868 22.818 9.66502 22.9434 9.72946C23.1501 9.60026 23.2257 9.51106 23.4825 9.40789C23.6486 9.34091 23.8792 9.33012 23.9911 9.30504C24.0185 9.22631 24.1105 8.93204 24.011 8.71428Z" fill="#5482FF"/>
</svg>
