<svg width="24" height="20" viewBox="0 0 24 20" fill="none" xmlns="http://www.w3.org/2000/svg">
<path d="M5.71829 19.6333C4.45086 19.63 3.23612 19.1259 2.33873 18.2309C1.44132 17.3359 0.933979 16.1225 0.927246 14.8551V11.661C0.927221 11.4058 1.02777 11.1607 1.20711 10.9789C1.38645 10.7973 1.63015 10.6934 1.88546 10.6901C2.13856 10.6934 2.38036 10.7953 2.55936 10.9743C2.73834 11.1533 2.84036 11.3952 2.84366 11.6483V14.8423C2.85033 15.6026 3.15534 16.33 3.693 16.8676C4.23065 17.4053 4.95796 17.7103 5.71829 17.7169H18.4944C18.8713 17.7169 19.2445 17.6424 19.5925 17.4978C19.9407 17.3532 20.2566 17.1414 20.5226 16.8742C20.7885 16.6071 20.999 16.2901 21.1421 15.9414C21.2851 15.5928 21.3579 15.2192 21.3563 14.8423V11.6483C21.3491 11.5177 21.3692 11.3871 21.4152 11.2646C21.461 11.1422 21.5319 11.0307 21.6232 10.937C21.7144 10.8434 21.8241 10.7697 21.9452 10.7206C22.0665 10.6714 22.1966 10.648 22.3273 10.6517C22.4535 10.6464 22.5793 10.6672 22.6971 10.7125C22.8149 10.758 22.9221 10.8273 23.0121 10.9159C23.1019 11.0047 23.1726 11.1109 23.2197 11.2282C23.2667 11.3454 23.289 11.4709 23.2855 11.5972V14.7912C23.2888 15.422 23.1673 16.0471 22.9279 16.6306C22.6884 17.2141 22.3359 17.7444 21.8906 18.1911C21.4451 18.6376 20.9157 18.9916 20.3328 19.2326C19.7499 19.4735 19.1252 19.5967 18.4944 19.595H5.71829V19.6333Z" fill="black"/>
<path d="M12.1062 15.1489C11.8531 15.1456 11.6113 15.0437 11.4323 14.8647C11.2533 14.6857 11.1514 14.4438 11.148 14.1907V2.69221C11.1464 2.56591 11.1699 2.44054 11.2175 2.32351C11.2651 2.20647 11.3356 2.10016 11.4249 2.01084C11.5142 1.92151 11.6205 1.85099 11.7375 1.80344C11.8546 1.7559 11.9799 1.73229 12.1062 1.734C12.3582 1.73399 12.6 1.83319 12.7793 2.01013C12.9587 2.18707 13.0611 2.42753 13.0644 2.67944V14.1779C13.0644 14.4332 12.9639 14.6784 12.7847 14.8601C12.6053 15.0417 12.3615 15.1456 12.1062 15.1489Z" fill="black"/>
<path d="M6.66383 7.49603C6.47706 7.49016 6.29596 7.43049 6.14225 7.32424C5.98852 7.21799 5.86873 7.06964 5.79725 6.89699C5.72577 6.72434 5.70561 6.53473 5.73922 6.35091C5.77282 6.1671 5.85876 5.99687 5.9867 5.86069L11.391 0.418061C11.5745 0.240856 11.8195 0.141815 12.0745 0.141815C12.3295 0.141815 12.5746 0.240856 12.758 0.418061L18.1879 5.82236C18.3674 6.00202 18.4681 6.24557 18.4681 6.4995C18.4681 6.75342 18.3674 6.99696 18.1879 7.17663C18.0083 7.35601 17.7647 7.45681 17.5108 7.45681C17.2569 7.45681 17.0133 7.35601 16.8336 7.17663L12.1065 2.44946L7.35374 7.20218C7.26398 7.29445 7.15675 7.36789 7.0383 7.41835C6.91986 7.46882 6.79258 7.49527 6.66383 7.49603Z" fill="black"/>
</svg>
