<svg width="23" height="22" viewBox="0 0 23 22" fill="none" xmlns="http://www.w3.org/2000/svg">
<g clip-path="url(#clip0_454_860)">
<path d="M19.822 20.8588H2.59486C1.34543 20.8588 0.328125 19.8415 0.328125 18.5921V3.17829C0.328125 1.92887 1.34543 0.91156 2.59486 0.91156H19.822C21.0714 0.91156 22.0887 1.92887 22.0887 3.17829V18.5921C22.0887 19.8415 21.0714 20.8588 19.822 20.8588ZM2.59486 1.81825C1.84502 1.81825 1.23482 2.42846 1.23482 3.17829V18.5921C1.23482 19.3419 1.84502 19.9521 2.59486 19.9521H19.822C20.5718 19.9521 21.1821 19.3419 21.1821 18.5921V3.17829C21.1821 2.42846 20.5718 1.81825 19.822 1.81825H2.59486Z" fill="black"/>
<path d="M21.6354 7.25844H0.781471C0.531224 7.25844 0.328125 7.05534 0.328125 6.80509C0.328125 6.55484 0.531224 6.35175 0.781471 6.35175H21.6354C21.8856 6.35175 22.0887 6.55484 22.0887 6.80509C22.0887 7.05534 21.8856 7.25844 21.6354 7.25844Z" fill="black"/>
<path d="M21.6354 11.7919H0.781471C0.531224 11.7919 0.328125 11.5888 0.328125 11.3385C0.328125 11.0883 0.531224 10.8852 0.781471 10.8852H21.6354C21.8856 10.8852 22.0887 11.0883 22.0887 11.3385C22.0887 11.5888 21.8856 11.7919 21.6354 11.7919Z" fill="black"/>
<path d="M21.6354 16.3253H0.781471C0.531224 16.3253 0.328125 16.1222 0.328125 15.872C0.328125 15.6217 0.531224 15.4186 0.781471 15.4186H21.6354C21.8856 15.4186 22.0887 15.6217 22.0887 15.872C22.0887 16.1222 21.8856 16.3253 21.6354 16.3253Z" fill="black"/>
<path d="M6.22166 20.8588C5.97141 20.8588 5.76831 20.6557 5.76831 20.4055V6.80509C5.76831 6.55484 5.97141 6.35175 6.22166 6.35175C6.4719 6.35175 6.675 6.55484 6.675 6.80509V20.4055C6.675 20.6557 6.4719 20.8588 6.22166 20.8588Z" fill="black"/>
<path d="M11.2085 20.8588C10.9582 20.8588 10.7551 20.6557 10.7551 20.4055V6.80509C10.7551 6.55484 10.9582 6.35175 11.2085 6.35175C11.4587 6.35175 11.6618 6.55484 11.6618 6.80509V20.4055C11.6618 20.6557 11.4587 20.8588 11.2085 20.8588Z" fill="black"/>
<path d="M16.1953 20.8588C15.945 20.8588 15.7419 20.6557 15.7419 20.4055V6.80509C15.7419 6.55484 15.945 6.35175 16.1953 6.35175C16.4455 6.35175 16.6486 6.55484 16.6486 6.80509V20.4055C16.6486 20.6557 16.4455 20.8588 16.1953 20.8588Z" fill="black"/>
</g>
<defs>
<clipPath id="clip0_454_860">
<rect width="21.7606" height="21.7606" fill="white" transform="translate(0.328125 0.00488281)"/>
</clipPath>
</defs>
</svg>
