<svg width="23" height="23" viewBox="0 0 23 23" fill="none" xmlns="http://www.w3.org/2000/svg">
<g clip-path="url(#clip0_170_2895)">
<path d="M18.6875 15.5394L21.6128 12.6141C22.0437 12.1749 22.2839 11.5834 22.2813 10.9681C22.2775 10.3577 22.032 9.77356 21.5984 9.34377L19.7153 7.45345L20.1466 7.0222C20.4189 6.7499 20.6349 6.42662 20.7823 6.07083C20.9296 5.71504 21.0055 5.33371 21.0055 4.94861C21.0055 4.56351 20.9296 4.18218 20.7823 3.82639C20.6349 3.4706 20.4189 3.14732 20.1466 2.87502C19.8743 2.60271 19.551 2.3867 19.1952 2.23933C18.8394 2.09196 18.4581 2.01611 18.073 2.01611C17.6879 2.01611 17.3065 2.09196 16.9507 2.23933C16.595 2.3867 16.2717 2.60271 15.9994 2.87502L15.5681 3.30627L13.6563 1.43752C13.2122 1.01269 12.6213 0.775574 12.0067 0.775574C11.3922 0.775574 10.8013 1.01269 10.3572 1.43752L7.46063 4.31252C7.39326 4.37933 7.33979 4.45883 7.3033 4.54641C7.26681 4.634 7.24802 4.72795 7.24802 4.82283C7.24802 4.91771 7.26681 5.01166 7.3033 5.09924C7.33979 5.18683 7.39326 5.26632 7.46063 5.33314L7.68344 5.55595C7.95154 5.80563 8.12463 6.14065 8.17313 6.50377C8.22164 6.8669 8.14255 7.2356 7.94938 7.54689C7.82418 7.72714 7.66102 7.87776 7.47136 7.98818C7.2817 8.09859 7.07015 8.1661 6.85159 8.18597C6.63304 8.20584 6.41278 8.17758 6.20632 8.10318C5.99986 8.02878 5.81221 7.91005 5.65656 7.75533L5.3475 7.44627C5.28068 7.3789 5.20119 7.32543 5.1136 7.28894C5.02602 7.25245 4.93207 7.23366 4.83719 7.23366C4.7423 7.23366 4.64836 7.25245 4.56077 7.28894C4.47319 7.32543 4.39369 7.3789 4.32688 7.44627L1.4375 10.386C1.21502 10.5993 1.03697 10.8546 0.913615 11.1371C0.790257 11.4196 0.72403 11.7237 0.71875 12.0319C0.725284 12.3367 0.792168 12.6372 0.915536 12.916C1.0389 13.1948 1.21631 13.4464 1.4375 13.6563L3.32063 15.5466L2.88938 15.9778C2.42053 16.5382 2.17773 17.2533 2.20852 17.9833C2.2393 18.7132 2.54146 19.4054 3.05582 19.9242C3.57018 20.4431 4.25969 20.7513 4.98935 20.7884C5.719 20.8255 6.43624 20.589 7.00063 20.125L7.43188 19.6938L9.34375 21.5985C9.78164 22.0352 10.3748 22.2804 10.9933 22.2804C11.6117 22.2804 12.2049 22.0352 12.6428 21.5985L15.5394 18.6875C15.6067 18.6207 15.6602 18.5412 15.6967 18.4536C15.7332 18.366 15.752 18.2721 15.752 18.1772C15.752 18.0823 15.7332 17.9884 15.6967 17.9008C15.6602 17.8132 15.6067 17.7337 15.5394 17.6669L15.3166 17.4441C15.0365 17.1625 14.8677 16.7891 14.8413 16.3928C14.8148 15.9966 14.9326 15.6041 15.1728 15.2878C15.3075 15.1358 15.4722 15.0133 15.6565 14.928C15.8408 14.8426 16.0407 14.7963 16.2438 14.7919C16.4471 14.7875 16.6492 14.8241 16.8381 14.8994C17.0271 14.9747 17.1989 15.0872 17.3434 15.2303L17.6525 15.5394C17.7195 15.609 17.7999 15.6643 17.8888 15.7021C17.9778 15.7399 18.0734 15.7593 18.17 15.7593C18.2666 15.7593 18.3622 15.7399 18.4512 15.7021C18.5401 15.6643 18.6205 15.609 18.6875 15.5394ZM16.2222 13.3831C15.8235 13.3924 15.4309 13.4833 15.0687 13.6501C14.7065 13.817 14.3823 14.0564 14.1163 14.3535C13.6737 14.8877 13.4261 15.5567 13.4144 16.2504C13.4026 16.9441 13.6273 17.6211 14.0516 18.17L11.6078 20.6138C11.4373 20.7734 11.2125 20.8623 10.9789 20.8623C10.7453 20.8623 10.5205 20.7734 10.35 20.6138L7.95656 18.2203C7.88975 18.153 7.81025 18.0995 7.72266 18.063C7.63508 18.0265 7.54113 18.0077 7.44625 18.0077C7.35137 18.0077 7.25742 18.0265 7.16984 18.063C7.08225 18.0995 7.00275 18.153 6.93594 18.2203L6.00156 19.1547C5.71836 19.42 5.3431 19.5648 4.95509 19.5585C4.56709 19.5521 4.19674 19.3952 3.92235 19.1208C3.64795 18.8464 3.491 18.4761 3.48467 18.088C3.47834 17.7 3.62313 17.3248 3.88844 17.0416L4.82281 16.1072C4.89018 16.0404 4.94365 15.9609 4.98014 15.8733C5.01663 15.7857 5.03542 15.6918 5.03542 15.5969C5.03542 15.502 5.01663 15.4081 4.98014 15.3205C4.94365 15.2329 4.89018 15.1534 4.82281 15.0866L2.415 12.6644C2.24865 12.4974 2.15526 12.2712 2.15526 12.0355C2.15526 11.7997 2.24865 11.5736 2.415 11.4066L4.85156 8.9772C5.16383 9.23541 5.52633 9.42593 5.91609 9.53669C6.30585 9.64745 6.71437 9.67603 7.11575 9.62062C7.51714 9.56521 7.90264 9.42702 8.24781 9.2148C8.59298 9.00259 8.89031 8.72098 9.12094 8.38783C9.47176 7.85867 9.64548 7.23178 9.61706 6.59753C9.58864 5.96327 9.35955 5.35443 8.96281 4.85877L11.4066 2.41502C11.5762 2.25373 11.8014 2.1638 12.0355 2.1638C12.2696 2.1638 12.4947 2.25373 12.6644 2.41502L15.0938 4.80845C15.1606 4.87582 15.2401 4.92929 15.3277 4.96578C15.4152 5.00227 15.5092 5.02106 15.6041 5.02106C15.6989 5.02106 15.7929 5.00227 15.8805 4.96578C15.9681 4.92929 16.0476 4.87582 16.1144 4.80845L17.0487 3.87408C17.1858 3.72781 17.3508 3.61058 17.5341 3.52938C17.7173 3.44817 17.915 3.40464 18.1154 3.40137C18.3158 3.3981 18.5148 3.43516 18.7006 3.51035C18.8864 3.58554 19.0552 3.69732 19.1969 3.83905C19.3386 3.98077 19.4504 4.14955 19.5256 4.33534C19.6008 4.52113 19.6379 4.72015 19.6346 4.92055C19.6313 5.12095 19.5878 5.31865 19.5066 5.50189C19.4254 5.68513 19.3081 5.85018 19.1619 5.9872L18.2275 6.92158C18.1601 6.9884 18.1067 7.06789 18.0702 7.15548C18.0337 7.24306 18.0149 7.33701 18.0149 7.43189C18.0149 7.52677 18.0337 7.62072 18.0702 7.70831C18.1067 7.79589 18.1601 7.87539 18.2275 7.9422L20.6209 10.3356C20.7873 10.5027 20.8807 10.7288 20.8807 10.9645C20.8807 11.2003 20.7873 11.4264 20.6209 11.5935L18.1844 14.0228C17.6301 13.5646 16.9264 13.3267 16.2078 13.3544L16.2222 13.3831Z" fill="#D6DDEA"/>
<path d="M8.98438 12.0391H7.54688V14.7344C7.54688 14.925 7.6226 15.1078 7.75739 15.2426C7.89218 15.3774 8.075 15.4532 8.26562 15.4532H10.9609V14.0157H8.98438V12.0391Z" fill="#D6DDEA"/>
<path d="M14.7344 7.54691H12.0391V8.98441H14.0156V10.961H15.4531V8.26566C15.4531 8.07503 15.3774 7.89221 15.2426 7.75742C15.1078 7.62263 14.925 7.54691 14.7344 7.54691Z" fill="#D6DDEA"/>
<path d="M9.32941 9.28326L10.5628 8.54439L13.6771 13.7431L12.4438 14.4819L9.32941 9.28326Z" fill="#D6DDEA"/>
<path d="M17.6082 18.6245L18.6246 17.6081L20.1646 19.148L19.1481 20.1645L17.6082 18.6245Z" fill="#D6DDEA"/>
<path d="M14.603 20.2993L15.9054 19.6927L16.8244 21.6658L15.5221 22.2724L14.603 20.2993Z" fill="#D6DDEA"/>
<path d="M19.6762 15.9253L20.2828 14.6229L22.2559 15.542L21.6493 16.8444L19.6762 15.9253Z" fill="#D6DDEA"/>
<path d="M2.83441 3.85211L3.85088 2.83565L5.39082 4.37559L4.37436 5.39206L2.83441 3.85211Z" fill="#D6DDEA"/>
<path d="M6.14807 1.32632L7.45045 0.719699L8.36948 2.6928L7.06711 3.29942L6.14807 1.32632Z" fill="#D6DDEA"/>
<path d="M0.713074 7.44928L1.3197 6.1469L3.2928 7.06594L2.68617 8.36832L0.713074 7.44928Z" fill="#D6DDEA"/>
</g>
<defs>
<clipPath id="clip0_170_2895">
<rect width="23" height="23" fill="white"/>
</clipPath>
</defs>
</svg>
