<svg width="16" height="19" viewBox="0 0 16 19" fill="none" xmlns="http://www.w3.org/2000/svg">
<path d="M9.9228 9.32694V17.1212C9.96237 17.4179 9.86346 17.7344 9.63596 17.9422C9.54445 18.0339 9.43576 18.1066 9.3161 18.1562C9.19644 18.2059 9.06817 18.2314 8.93863 18.2314C8.80909 18.2314 8.68081 18.2059 8.56116 18.1562C8.4415 18.1066 8.33281 18.0339 8.2413 17.9422L6.25317 15.954C6.14536 15.8485 6.06337 15.7195 6.01362 15.5771C5.96386 15.4347 5.94768 15.2828 5.96633 15.1331V9.32694H5.93665L0.239328 2.02724C0.0787033 1.82104 0.00622622 1.55964 0.0377337 1.30017C0.0692413 1.04069 0.202172 0.804239 0.407479 0.642472C0.595411 0.503995 0.803126 0.424866 1.02073 0.424866H14.8684C15.086 0.424866 15.2937 0.503995 15.4817 0.642472C15.687 0.804239 15.8199 1.04069 15.8514 1.30017C15.8829 1.55964 15.8104 1.82104 15.6498 2.02724L9.95248 9.32694H9.9228Z" fill="white"/>
</svg>
