<svg width="15" height="17" viewBox="0 0 15 17" fill="none" xmlns="http://www.w3.org/2000/svg">
<path d="M8.79882 8.5V15.395C8.83382 15.6575 8.74632 15.9375 8.54507 16.1212C8.46412 16.2024 8.36797 16.2667 8.26212 16.3106C8.15627 16.3545 8.04279 16.3771 7.9282 16.3771C7.8136 16.3771 7.70013 16.3545 7.59427 16.3106C7.48842 16.2667 7.39227 16.2024 7.31132 16.1212L5.55257 14.3625C5.45719 14.2692 5.38467 14.1551 5.34065 14.0291C5.29664 13.9031 5.28232 13.7687 5.29882 13.6363V8.5H5.27257L0.232571 2.0425C0.0904779 1.86009 0.0263628 1.62885 0.0542352 1.39931C0.0821075 1.16978 0.199701 0.960603 0.381321 0.8175C0.547571 0.695 0.731321 0.625 0.923821 0.625H13.1738C13.3663 0.625 13.5501 0.695 13.7163 0.8175C13.8979 0.960603 14.0155 1.16978 14.0434 1.39931C14.0713 1.62885 14.0072 1.86009 13.8651 2.0425L8.82507 8.5H8.79882Z" fill="#3C6BEB"/>
</svg>
