<svg width="31" height="32" viewBox="0 0 31 32" fill="none" xmlns="http://www.w3.org/2000/svg">
<path d="M18.6032 20.298V16.113H12.3257V17.6824H6.57135V16.113H0.29386V20.298H2.90948V25.0532C2.13348 25.1844 1.43507 25.6023 0.95266 26.2241C0.470248 26.8459 0.23904 27.6263 0.304854 28.4106C0.370669 29.1948 0.728703 29.9257 1.308 30.4584C1.88731 30.9912 2.6456 31.2868 3.43261 31.2868C4.21962 31.2868 4.97791 30.9912 5.55721 30.4584C6.13651 29.9257 6.49454 29.1948 6.56036 28.4106C6.62617 27.6263 6.39497 26.8459 5.91255 26.2241C5.43014 25.6023 4.73173 25.1844 3.95573 25.0532V20.298H6.57135V18.7287H12.3257V20.298H18.6032Z" fill="white"/>
<path d="M28.0193 20.298H30.6349V16.1131H28.0193V10.8818C28.0193 10.7431 27.9642 10.61 27.8661 10.5119C27.768 10.4138 27.6349 10.3587 27.4962 10.3587H19.6493L15.9875 8.52775V5.12744H18.6031C18.8806 5.12744 19.1467 5.01721 19.3429 4.821C19.5391 4.62479 19.6493 4.35867 19.6493 4.08119V1.98869C19.6493 1.71121 19.5391 1.44509 19.3429 1.24888C19.1467 1.05267 18.8806 0.942444 18.6031 0.942444H12.3256C12.0481 0.942444 11.782 1.05267 11.5858 1.24888C11.3896 1.44509 11.2793 1.71121 11.2793 1.98869V4.08119C11.2793 4.35867 11.3896 4.62479 11.5858 4.821C11.782 5.01721 12.0481 5.12744 12.3256 5.12744H14.9412V8.52775L10.2331 10.8818L15.4643 13.4974L19.6493 11.4049H26.9731V16.1131H24.3575V20.298H26.9731V25.0062C26.9754 25.0215 26.9785 25.0367 26.9825 25.0517C26.339 25.159 25.7449 25.4642 25.2829 25.9248C24.8208 26.3855 24.5138 26.9786 24.4045 27.6218H20.1254C19.9942 26.8458 19.5763 26.1474 18.9545 25.665C18.3327 25.1826 17.5523 24.9513 16.768 25.0172C15.9838 25.083 15.2529 25.441 14.7202 26.0203C14.1874 26.5996 13.8918 27.3579 13.8918 28.1449C13.8918 28.9319 14.1874 29.6902 14.7202 30.2695C15.2529 30.8488 15.9838 31.2069 16.768 31.2727C17.5523 31.3385 18.3327 31.1073 18.9545 30.6249C19.5763 30.1424 19.9942 29.444 20.1254 28.668H24.4045C24.5 29.2369 24.7503 29.7685 25.1281 30.2044C25.5059 30.6403 25.9965 30.9637 26.546 31.139C27.0956 31.3143 27.6828 31.3348 28.2432 31.1982C28.8036 31.0617 29.3156 30.7733 29.7228 30.3648C30.1301 29.9563 30.4169 29.4435 30.5518 28.8826C30.6866 28.3218 30.6644 27.7346 30.4874 27.1856C30.3104 26.6366 29.9855 26.147 29.5485 25.7706C29.1114 25.3941 28.5791 25.1454 28.0099 25.0517C28.0138 25.0367 28.017 25.0215 28.0193 25.0062V20.298Z" fill="white"/>
</svg>
