<svg width="29" height="22" viewBox="0 0 29 22" fill="none" xmlns="http://www.w3.org/2000/svg">
<path d="M27.4993 9.13448C27.2193 8.79611 26.8501 8.52187 26.423 8.33503C25.996 8.1482 25.5237 8.05429 25.0463 8.06128H24.7298V6.33033C24.7299 5.98494 24.6512 5.64302 24.4984 5.32457C24.3456 5.00612 24.1217 4.71756 23.8398 4.47576C23.5579 4.23397 23.2238 4.04381 22.8569 3.91643C22.49 3.78904 22.0977 3.72698 21.7031 3.73389H15.2936C15.0538 3.73265 14.821 3.66273 14.6309 3.53483L10.6744 0.834535C10.1329 0.469694 9.46864 0.271893 8.7852 0.271973H3.40439C3.00975 0.265066 2.6175 0.327122 2.2506 0.454509C1.88371 0.581896 1.54955 0.772053 1.26768 1.01385C0.985823 1.25564 0.761927 1.54421 0.609106 1.86265C0.456284 2.1811 0.37761 2.52303 0.377689 2.86841V18.447C0.37683 18.9261 0.534887 19.3951 0.832684 19.7972C1.10638 20.1779 1.48571 20.4918 1.93537 20.7097C2.38502 20.9276 2.89038 21.0424 3.40439 21.0435H22.1977C22.8435 21.0576 23.4769 20.8868 24.0018 20.5572C24.5266 20.2277 24.9142 19.7572 25.1057 19.2173L27.9345 11.428C28.0707 11.0424 28.1023 10.6344 28.0267 10.2362C27.9512 9.83811 27.7706 9.46088 27.4993 9.13448ZM2.35593 2.86841C2.35568 2.75025 2.3831 2.6333 2.43647 2.52476C2.48985 2.41622 2.56806 2.31839 2.66629 2.23731C2.76452 2.15622 2.88068 2.0936 3.00762 2.05329C3.13457 2.01298 3.2696 1.99584 3.40439 2.00293H8.7852C9.02829 2.00292 9.26464 2.07287 9.4578 2.20199L13.4143 4.90229C13.952 5.26707 14.6132 5.46497 15.2936 5.46485H21.7031C21.8379 5.45776 21.9729 5.4749 22.0999 5.5152C22.2268 5.55551 22.343 5.61814 22.4412 5.69922C22.5394 5.78031 22.6176 5.87813 22.671 5.98667C22.7244 6.09521 22.7518 6.21217 22.7516 6.33033V8.06128H6.92566C6.28485 8.05288 5.65816 8.22624 5.13932 8.55541C4.62048 8.88459 4.23738 9.3519 4.04732 9.88745L2.35593 14.587V2.86841ZM26.0948 10.9087L23.2659 18.698C23.2024 18.882 23.0707 19.0423 22.8916 19.1535C22.7125 19.2648 22.4962 19.3207 22.2768 19.3125H3.48352C3.26044 19.3121 3.0429 19.2516 2.86038 19.1394L6.02556 10.4067C6.08906 10.2228 6.22073 10.0625 6.39982 9.95124C6.57892 9.83997 6.79524 9.78404 7.01468 9.79224H25.0463C25.213 9.79123 25.3776 9.82436 25.5271 9.88898C25.6765 9.9536 25.8065 10.0479 25.9069 10.1644C26.001 10.2677 26.0669 10.3885 26.0995 10.5175C26.1321 10.6465 26.1305 10.7803 26.0948 10.9087Z" fill="white"/>
</svg>
