<svg width="21" height="21" viewBox="0 0 21 21" fill="none" xmlns="http://www.w3.org/2000/svg">
<rect x="0.0395508" y="0.675964" width="20.0752" height="20.0752" rx="4" fill="#0B558D"/>
<path d="M7.13853 13.5825C6.9463 13.5846 6.76267 13.6625 6.62749 13.7992C6.49232 13.9358 6.4165 14.1203 6.4165 14.3126C6.41651 14.5048 6.49233 14.6893 6.62751 14.826C6.7627 14.9626 6.94633 15.0405 7.13856 15.0426C7.33078 15.0405 7.51441 14.9626 7.64959 14.8259C7.78477 14.6893 7.86058 14.5048 7.86058 14.3125C7.86058 14.1203 7.78475 13.9358 7.64957 13.7991C7.51439 13.6625 7.33075 13.5846 7.13853 13.5825ZM7.13853 14.574C7.06985 14.573 7.00432 14.545 6.95611 14.4961C6.9079 14.4472 6.88087 14.3812 6.88088 14.3125C6.88088 14.2439 6.90791 14.1779 6.95612 14.129C7.00433 14.0801 7.06986 14.0521 7.13854 14.0511C7.20722 14.0521 7.27275 14.0801 7.32096 14.129C7.36917 14.1779 7.3962 14.2439 7.39619 14.3126C7.39619 14.3812 7.36916 14.4472 7.32095 14.4961C7.27274 14.545 7.20721 14.573 7.13853 14.574Z" fill="white"/>
<path d="M9.8208 12.3432C9.56295 12.3455 9.31644 12.4495 9.13492 12.6327C8.9534 12.8158 8.85156 13.0632 8.85156 13.3211C8.85157 13.579 8.95341 13.8264 9.13494 14.0095C9.31646 14.1927 9.56298 14.2967 9.82083 14.299C10.0787 14.2967 10.3252 14.1926 10.5067 14.0095C10.6882 13.8264 10.7901 13.5789 10.7901 13.3211C10.7901 13.0632 10.6882 12.8158 10.5067 12.6326C10.3252 12.4495 10.0787 12.3455 9.8208 12.3432ZM9.8208 13.8304C9.68672 13.8289 9.55865 13.7745 9.46438 13.6792C9.37011 13.5838 9.31724 13.4552 9.31724 13.3211C9.31724 13.187 9.37011 13.0583 9.46439 12.963C9.55866 12.8676 9.68674 12.8133 9.82081 12.8118C9.95495 12.8132 10.0831 12.8675 10.1774 12.9629C10.2718 13.0582 10.3247 13.187 10.3247 13.3211C10.3247 13.4552 10.2718 13.584 10.1774 13.6793C10.0831 13.7747 9.95493 13.829 9.8208 13.8304Z" fill="white"/>
<path d="M16.3535 14.6373L15.2022 13.9725V12.6428C15.2022 12.6017 15.1914 12.5612 15.1708 12.5256C15.1502 12.49 15.1207 12.4604 15.085 12.4398L13.8165 11.7074C13.7809 11.6869 13.7405 11.676 13.6994 11.676C13.6583 11.676 13.6179 11.6869 13.5822 11.7074L12.6754 12.231L11.0423 8.55648V5.48512C11.1874 5.42029 11.306 5.30784 11.3785 5.16639C11.4509 5.02495 11.4729 4.86299 11.4408 4.70735C11.4086 4.55171 11.3243 4.41171 11.2017 4.31054C11.0791 4.20938 10.9257 4.15311 10.7668 4.15106H7.15742C6.99841 4.15294 6.84481 4.20912 6.72212 4.31028C6.59942 4.41144 6.51499 4.55151 6.48284 4.70725C6.45068 4.86298 6.47273 5.02503 6.54533 5.16652C6.61792 5.308 6.7367 5.42042 6.88197 5.48512L6.88194 8.55646L3.78714 15.5197C3.71087 15.696 3.67939 15.8884 3.69552 16.0799C3.71164 16.2713 3.77486 16.4558 3.87955 16.6169C3.98425 16.778 4.12715 16.9107 4.29555 17.0031C4.46394 17.0956 4.6526 17.145 4.8447 17.1469L12.15 17.1469C12.2146 17.1756 12.349 17.2837 12.4288 17.2716C12.4529 17.3409 13.6529 16.5798 13.6984 16.5749L14.8507 17.2403C14.8864 17.2608 14.9268 17.2716 14.9679 17.2716C15.009 17.2716 15.0494 17.2608 15.085 17.2403L16.3535 16.5079C16.3892 16.4873 16.4187 16.4577 16.4393 16.4221C16.4599 16.3865 16.4707 16.3461 16.4707 16.3049V14.8402C16.4707 14.7991 16.4599 14.7587 16.4393 14.7231C16.4187 14.6874 16.3892 14.6578 16.3535 14.6373ZM7.15742 4.61966H10.7668C10.8263 4.62083 10.8829 4.64527 10.9246 4.68775C10.9662 4.73022 10.9896 4.78733 10.9896 4.84682C10.9896 4.9063 10.9662 4.96342 10.9246 5.00589C10.8829 5.04836 10.8263 5.0728 10.7668 5.07396H7.15742C7.09794 5.07279 7.0413 5.04835 6.99965 5.00588C6.958 4.96341 6.93467 4.9063 6.93467 4.84681C6.93467 4.78732 6.958 4.73021 6.99965 4.68774C7.0413 4.64527 7.09794 4.62083 7.15742 4.61966ZM7.33039 8.70142C7.35171 8.59537 7.35849 8.48691 7.35052 8.37903H8.12984C8.19121 8.37787 8.24967 8.35267 8.29266 8.30886C8.33565 8.26505 8.35973 8.20612 8.35973 8.14473C8.35973 8.08335 8.33565 8.02442 8.29266 7.98061C8.24967 7.9368 8.19121 7.9116 8.12984 7.91044H7.35054V7.2254H8.12984C8.19119 7.2242 8.24962 7.19899 8.29258 7.15519C8.33555 7.11138 8.35961 7.05247 8.35961 6.99111C8.35961 6.92975 8.33555 6.87083 8.29258 6.82703C8.24962 6.78322 8.19119 6.75801 8.12984 6.75681H7.35054V5.54255H10.5737V8.60624C10.5737 8.63902 10.5806 8.67144 10.5938 8.70142L11.445 10.6165C10.7681 10.5311 10.6892 10.1883 9.86853 10.1972C8.95035 10.1882 8.94409 10.6145 8.09918 10.6259C7.39339 10.6282 7.31235 10.3069 6.6563 10.2181L7.33039 8.70142ZM4.84467 16.6783C4.73025 16.6775 4.61782 16.6483 4.51745 16.5933C4.41708 16.5384 4.33191 16.4594 4.26956 16.3635C4.20722 16.2675 4.16964 16.1576 4.1602 16.0436C4.15076 15.9295 4.16975 15.8149 4.21548 15.71L6.45571 10.6695C6.68615 10.6809 6.91092 10.745 7.11281 10.8566C7.41543 11.0201 7.75534 11.102 8.09918 11.0945C8.44309 11.102 8.78306 11.0201 9.08579 10.8568C9.3249 10.7242 9.59522 10.6582 9.86853 10.6658C10.1418 10.6582 10.4122 10.7242 10.6513 10.8568C10.954 11.0201 11.294 11.102 11.6379 11.0945C11.6442 11.0945 11.6496 11.0914 11.6558 11.0909L12.2702 12.4734C12.247 12.4951 12.2286 12.5214 12.2159 12.5505C12.2033 12.5796 12.1967 12.611 12.1966 12.6428V13.9713L11.0432 14.6373C11.0076 14.6579 10.978 14.6874 10.9574 14.7231C10.9369 14.7587 10.926 14.7991 10.9261 14.8402V16.3049C10.926 16.3461 10.9369 16.3865 10.9574 16.4221C10.978 16.4577 11.0076 16.4873 11.0432 16.5079L11.3384 16.6783L4.84467 16.6783ZM13.463 16.1697L12.4288 16.7668L11.3947 16.1697V14.9755L12.4288 14.3784L13.463 14.9755V16.1697ZM12.6652 13.9723V12.778L13.6994 12.181L14.7336 12.778V13.9723L13.6994 14.5693L12.6652 13.9723ZM16.0021 16.1697L14.9679 16.7668L13.9337 16.1697V14.9755L14.9679 14.3784L16.0021 14.9755V16.1697Z" fill="white"/>
</svg>
