<svg width="23" height="22" viewBox="0 0 23 22" fill="none" xmlns="http://www.w3.org/2000/svg">
<path fill-rule="evenodd" clip-rule="evenodd" d="M22.077 10.7664C22.077 11.2335 22.0472 11.6938 21.9896 12.1452H9.13979V13.0399H21.8366C21.6647 13.8399 21.404 14.607 21.0652 15.3302H15.9972V16.2249H20.5935C20.0002 17.2321 19.2478 18.1344 18.3708 18.8971H12.3245V19.7918H17.1869C15.496 20.8959 13.4758 21.5377 11.3057 21.5377C5.35689 21.5377 0.534424 16.7152 0.534424 10.7664C0.534424 4.81758 5.35689 -0.00488281 11.3057 -0.00488281C14.3197 -0.00488281 17.0446 1.23304 18.9996 3.22818H11.4158V4.12288H19.7847C20.2473 4.71235 20.6496 5.35126 20.9826 6.03036H9.13979V6.92506H21.3718C21.5902 7.49681 21.7612 8.09193 21.8801 8.70564H11.3057V9.60034H22.0146C22.0558 9.98337 22.077 10.3724 22.077 10.7664Z" fill="white"/>
</svg>
