<svg width="20" height="20" viewBox="0 0 20 20" fill="none" xmlns="http://www.w3.org/2000/svg">
<g clip-path="url(#clip0_454_1035)">
<path d="M10.4065 11.6729C10.143 11.6729 9.92936 11.8866 9.92936 12.1501C9.92914 13.3853 8.92771 14.3864 7.69253 14.3862C6.45735 14.386 5.4562 13.3846 5.45642 12.1494C5.45664 10.9143 6.45786 9.91327 7.69289 9.91327C7.95644 9.91327 8.17007 9.69964 8.17007 9.4361C8.17007 9.17255 7.95644 8.95892 7.69289 8.95892C5.93095 8.96013 4.50292 10.3882 4.50171 12.1501C4.50171 13.9125 5.93036 15.3411 7.69271 15.3411C9.45506 15.3411 10.8837 13.9125 10.8837 12.1501C10.8837 11.8866 10.6701 11.6729 10.4065 11.6729Z" fill="white"/>
<path d="M14.1974 13.2476C14.1519 12.988 13.9046 12.8145 13.645 12.86L12.6463 13.0351C12.4636 13.0671 12.316 13.2021 12.2678 13.3812C12.1613 13.7764 12.0038 14.1561 11.7991 14.5106C11.7058 14.6717 11.7147 14.8723 11.8219 15.0245L12.4047 15.8551C12.4863 15.9708 12.4726 16.1285 12.3724 16.2284L11.7734 16.8275C11.6736 16.9276 11.5162 16.9414 11.4005 16.8601L10.5698 16.2773C10.4176 16.1701 10.217 16.1612 10.0559 16.2545C9.70148 16.4592 9.3218 16.6168 8.92651 16.7232C8.74739 16.7714 8.61239 16.919 8.58038 17.1017L8.40309 18.0993C8.37883 18.2386 8.25781 18.3403 8.11642 18.3401H7.26889C7.1275 18.3403 7.00652 18.2386 6.98222 18.0993L6.80713 17.1009C6.77513 16.9183 6.64012 16.7707 6.461 16.7225C6.06564 16.616 5.68585 16.4584 5.3312 16.2538C5.17014 16.1605 4.96951 16.1693 4.81732 16.2765L3.98814 16.859C3.87245 16.9406 3.71484 16.927 3.61485 16.8267L3.01581 16.2277C2.91583 16.1278 2.90206 15.9705 2.98315 15.8548L3.56603 15.0241C3.67317 14.872 3.68209 14.6713 3.58879 14.5103C3.38401 14.1558 3.22643 13.7761 3.12006 13.3808C3.0719 13.2017 2.92431 13.0667 2.74162 13.0347L1.74323 12.8596C1.60419 12.8354 1.50266 12.7148 1.50244 12.5737V11.7261C1.5023 11.5847 1.60393 11.4638 1.74323 11.4395L2.74162 11.2644C2.92431 11.2324 3.0719 11.0974 3.12006 10.9182C3.22636 10.5226 3.38393 10.1425 3.58879 9.78771C3.68209 9.62665 3.67317 9.42602 3.56603 9.27384L2.98351 8.44576C2.90195 8.33006 2.91561 8.17245 3.01581 8.07246L3.61522 7.47306C3.71513 7.37304 3.87252 7.35942 3.98814 7.44076L4.81879 8.02364C4.97097 8.13082 5.17161 8.13971 5.33267 8.0464C5.68728 7.84169 6.06708 7.68412 6.46247 7.57767C6.64159 7.52951 6.7766 7.38192 6.8086 7.19923L6.98369 6.20084C7.0292 5.94126 6.85566 5.69394 6.59608 5.64842C6.3365 5.60291 6.08917 5.77645 6.04366 6.03603L5.91959 6.74445C5.64746 6.83434 5.38255 6.94479 5.12712 7.0748L4.53799 6.6615C4.04306 6.31324 3.36925 6.37196 2.94204 6.80061L2.3408 7.39781C1.91255 7.82525 1.85401 8.49883 2.20205 8.99377L2.61536 9.5829C2.48531 9.8384 2.37486 10.1035 2.28501 10.3757L1.57659 10.4998C0.981296 10.6043 0.547363 11.1217 0.548097 11.7261V12.5737C0.547326 13.1786 0.982067 13.6965 1.57806 13.8004L2.28647 13.9248C2.37633 14.1969 2.48678 14.4619 2.61682 14.7173L2.20205 15.3064C1.85412 15.8014 1.91281 16.475 2.34116 16.9024L2.94057 17.5014C3.36793 17.9298 4.04163 17.9883 4.53653 17.6401L5.12382 17.2268C5.37925 17.3568 5.64415 17.4673 5.91629 17.5572L6.04035 18.2656C6.14489 18.8618 6.66354 19.2962 7.26889 19.2945H8.11642C8.72155 19.2952 9.23936 18.8603 9.34312 18.2641L9.46756 17.5557C9.73969 17.4658 10.0046 17.3554 10.26 17.2254L10.8495 17.6387C11.3445 17.9868 12.0182 17.9281 12.4455 17.4996L13.0449 16.9002C13.4732 16.4728 13.5319 15.7992 13.184 15.3042L12.7711 14.7169C12.9011 14.4615 13.0115 14.1966 13.1014 13.9244L13.8098 13.8C14.0694 13.7545 14.243 13.5072 14.1974 13.2476Z" fill="white"/>
<path d="M18.4458 4.83248L17.9466 4.74512C17.8843 4.56512 17.8107 4.38919 17.7264 4.2184L18.0201 3.80473C18.3226 3.37454 18.2716 2.78904 17.8993 2.41762L17.4265 1.94375C17.0549 1.57068 16.4685 1.51951 16.038 1.82262L15.6228 2.1137C15.452 2.02935 15.2761 1.95579 15.0961 1.89347L15.0102 1.39647C14.9198 0.878262 14.4696 0.500378 13.9435 0.501222H13.2759C12.7499 0.500561 12.2997 0.878629 12.2096 1.39684L12.1218 1.89603C11.9418 1.95836 11.7659 2.03192 11.5951 2.11627L11.18 1.82262C10.7498 1.5201 10.1643 1.57108 9.79286 1.94338L9.32083 2.41615C8.94775 2.78776 8.89659 3.37413 9.1997 3.80473L9.49078 4.21987C9.40643 4.39066 9.33287 4.56659 9.27054 4.74659L8.77318 4.83248C8.25512 4.92285 7.87727 5.3729 7.87793 5.89878V6.56645C7.8769 7.09259 8.25486 7.54308 8.77318 7.63349L9.27201 7.72085C9.33434 7.90085 9.40789 8.07678 9.49224 8.24757L9.2008 8.66271C8.89824 9.09275 8.94889 9.67813 9.32083 10.0498L9.79286 10.5218C10.1644 10.8944 10.7501 10.9454 11.1803 10.6426L11.5966 10.3515C11.7674 10.4358 11.9433 10.5094 12.1233 10.5718L12.211 11.071C12.3014 11.589 12.7514 11.9669 13.2773 11.9662H13.945C14.471 11.9662 14.9207 11.5875 15.0102 11.0691L15.0976 10.5703C15.2776 10.508 15.4535 10.4344 15.6243 10.3501L16.038 10.643C16.4685 10.9462 17.055 10.8951 17.4265 10.5218L17.8989 10.0494C18.271 9.6781 18.3221 9.09294 18.0201 8.66271L17.7282 8.2461C17.8126 8.07527 17.8861 7.89938 17.9485 7.71938L18.4477 7.63165C18.9646 7.54077 19.3415 7.09167 19.3415 6.56682V5.89915C19.3423 5.37301 18.9642 4.9227 18.4458 4.83248ZM18.3871 6.56792C18.3871 6.63021 18.3424 6.68347 18.281 6.69419L17.4941 6.8322C17.3114 6.86421 17.1638 6.99921 17.1156 7.17834C17.034 7.48138 16.9132 7.77245 16.7563 8.04422C16.663 8.20529 16.6719 8.40592 16.779 8.5581L17.2382 9.21293C17.2741 9.26391 17.2681 9.33336 17.2239 9.37737L16.7519 9.8494C16.7074 9.89216 16.6387 9.89708 16.5885 9.86115L15.9326 9.40233C15.7804 9.29515 15.5798 9.28627 15.4187 9.37957C15.147 9.53652 14.8559 9.65732 14.5528 9.73892C14.3741 9.78766 14.2397 9.93551 14.2082 10.1181L14.0702 10.9051C14.0594 10.9664 14.0062 11.0112 13.9439 11.0111H13.2759C13.2136 11.0112 13.1603 10.9664 13.1496 10.9051L13.0112 10.1181C12.9792 9.9354 12.8442 9.78781 12.6651 9.73965C12.3619 9.65802 12.0707 9.53722 11.7988 9.3803C11.6378 9.287 11.4371 9.29588 11.2849 9.40306L10.632 9.86115C10.581 9.89705 10.5115 9.89099 10.4675 9.84683L9.99548 9.3748C9.95132 9.33079 9.94526 9.26134 9.98116 9.21036L10.4403 8.55553C10.5475 8.40335 10.5564 8.20272 10.4631 8.04165C10.3061 7.76992 10.1853 7.47881 10.1038 7.17577C10.0549 6.99716 9.90709 6.86293 9.72459 6.83147L8.93762 6.69346C8.87629 6.68274 8.83151 6.62948 8.83154 6.56719L8.83191 5.89915C8.83187 5.83686 8.87665 5.7836 8.93799 5.77288L9.72459 5.6345C9.90727 5.60249 10.0549 5.46749 10.103 5.28837C10.1846 4.98532 10.3054 4.69425 10.4624 4.42248C10.5557 4.26142 10.5468 4.06078 10.4396 3.9086L9.98153 3.25414C9.94563 3.20316 9.95169 3.13371 9.99584 3.0897L10.4682 2.6173C10.5123 2.57314 10.5817 2.56709 10.6327 2.60298L11.2871 3.06217C11.4393 3.16931 11.64 3.17823 11.801 3.08493C12.0728 2.92798 12.3639 2.80718 12.6669 2.72558C12.846 2.67742 12.981 2.52983 13.013 2.34715L13.1511 1.56018C13.1623 1.49994 13.2146 1.45612 13.2759 1.45557H13.9435C14.0058 1.45553 14.0591 1.50031 14.0698 1.56165L14.2078 2.34861C14.2398 2.5313 14.3748 2.67889 14.5539 2.72705C14.857 2.80861 15.1481 2.92941 15.4198 3.0864C15.5809 3.1797 15.7815 3.17082 15.9337 3.06364L16.5885 2.60445C16.6395 2.56855 16.709 2.57461 16.753 2.61877L17.2254 3.09117C17.2683 3.13536 17.2737 3.20378 17.2382 3.25414L16.779 3.91007C16.6719 4.06225 16.663 4.26288 16.7563 4.42395C16.9132 4.69572 17.034 4.98679 17.1156 5.28983C17.1638 5.46896 17.3114 5.60396 17.4941 5.63597L18.281 5.77398C18.3424 5.7847 18.3871 5.83796 18.3871 5.90025V6.56792Z" fill="white"/>
<path d="M13.6094 3.95337C12.3503 3.95337 11.3296 4.97408 11.3296 6.23315C11.331 7.49164 12.3509 8.51151 13.6094 8.51294C14.8684 8.51294 15.8892 7.49223 15.8892 6.23315C15.8892 4.97408 14.8684 3.95337 13.6094 3.95337ZM13.6094 7.55859C12.8774 7.55859 12.2839 6.96517 12.2839 6.23315C12.2838 5.50077 12.877 4.90669 13.6094 4.90588V4.90771C14.3414 4.90771 14.9348 5.50113 14.9348 6.23315C14.9348 6.96517 14.3414 7.55859 13.6094 7.55859Z" fill="white"/>
</g>
<defs>
<clipPath id="clip0_454_1035">
<rect width="18.7933" height="18.7933" fill="white" transform="translate(0.548096 0.501221)"/>
</clipPath>
</defs>
</svg>
