<svg width="22" height="21" viewBox="0 0 22 21" fill="none" xmlns="http://www.w3.org/2000/svg">
<path d="M10.9445 0.0858154C5.16137 0.0858154 0.482666 4.78021 0.482666 10.5477C0.482666 16.3017 5.14446 21.0095 10.9445 21.0095C16.7257 21.0095 21.4063 16.3165 21.4063 10.5477C21.4063 4.78393 16.7304 0.0858154 10.9445 0.0858154ZM18.3321 16.7164C17.5132 16.2956 16.5852 15.9668 15.6834 15.7327C16.106 14.2907 16.3462 12.6637 16.3801 10.9661H20.5603C20.4689 13.0773 19.6879 15.0944 18.3321 16.7164ZM3.55686 16.7164C2.20109 15.0944 1.42009 13.0773 1.32869 10.9661H5.50887C5.54285 12.6637 5.78301 14.2907 6.20558 15.7327C5.30289 15.9673 4.39045 16.2897 3.55686 16.7164ZM3.55686 4.37885C4.38912 4.80523 5.30423 5.128 6.20558 5.36264C5.78301 6.80457 5.54285 8.43151 5.50887 10.1292H1.32869C1.42009 8.01794 2.20109 6.0009 3.55686 4.37885ZM15.4248 4.56641C15.001 3.38514 14.3704 2.15148 13.4881 1.26637C15.085 1.70501 16.5561 2.55159 17.7439 3.73649C17.0178 4.08692 16.185 4.37634 15.4248 4.56641ZM11.363 5.10264V0.964066C12.3849 1.16431 13.3516 2.09403 14.121 3.63309C14.2971 3.98511 14.4578 4.35981 14.6029 4.75368C13.5363 4.96773 12.4421 5.07979 11.363 5.10264ZM10.526 5.10264C9.43779 5.07963 8.34059 4.96572 7.28608 4.75368C7.43117 4.35977 7.59194 3.98507 7.76791 3.63309C8.53744 2.09403 9.50412 1.16426 10.526 0.964066V5.10264ZM10.526 5.93976V10.1292H6.34594C6.37988 8.49165 6.61267 6.92857 7.02119 5.55275C8.10516 5.7771 9.29124 5.91465 10.526 5.93976ZM10.526 10.9661V15.1555C9.35979 15.1793 8.15877 15.3062 7.02123 15.5426C6.61267 14.1667 6.37988 12.6037 6.34594 10.9661H10.526ZM10.526 15.9927V20.1312C9.50412 19.931 8.53744 19.0012 7.76791 17.4622C7.5919 17.1102 7.43117 16.7355 7.28608 16.3416C8.29996 16.1369 9.40326 16.0164 10.526 15.9927ZM11.363 15.9927C12.4831 16.0163 13.582 16.1359 14.6029 16.3416C14.4578 16.7355 14.2971 17.1102 14.121 17.4622C13.3516 19.0012 12.3849 19.931 11.363 20.1312V15.9927ZM11.363 15.1555V10.9661H15.5431C15.5091 12.6037 15.2764 14.1667 14.8678 15.5426C13.7902 15.3188 12.5961 15.1807 11.363 15.1555ZM11.363 10.1292V5.93976C12.6117 5.91436 13.7932 5.77484 14.8678 5.55275C15.2764 6.92853 15.5091 8.49165 15.5431 10.1292H11.363ZM6.46424 4.56641C5.6796 4.36826 4.87149 4.08764 4.14502 3.73649C5.33294 2.55159 6.80396 1.70501 8.40094 1.26637C7.51729 2.15278 6.88694 3.38803 6.46424 4.56641ZM6.46424 16.5289C6.88677 17.707 7.5172 18.9425 8.40094 19.8289C6.80396 19.3903 5.33294 18.5437 4.14502 17.3588C4.87258 17.007 5.68107 16.7276 6.46424 16.5289ZM15.4247 16.5289C16.1746 16.7163 17.0182 17.0076 17.744 17.3588C16.5561 18.5437 15.085 19.3903 13.4881 19.8289C14.3718 18.9424 15.0023 17.7069 15.4247 16.5289ZM16.3801 10.1292C16.3462 8.43151 16.106 6.80457 15.6834 5.36264C16.6003 5.12453 17.5186 4.79607 18.3321 4.37889C19.6879 6.0009 20.469 8.01798 20.5603 10.1292H16.3801V10.1292Z" fill="white"/>
</svg>
