<svg width="21" height="21" viewBox="0 0 21 21" fill="none" xmlns="http://www.w3.org/2000/svg">
<rect x="0.924805" y="0.675964" width="20.0752" height="20.0752" rx="4" fill="#309C6F"/>
<g clip-path="url(#clip0_407_1066)">
<path d="M16.8341 9.99856C16.7103 9.83973 16.547 9.71101 16.3581 9.62331C16.1692 9.53561 15.9603 9.49153 15.7491 9.49481H15.6091V8.68231C15.6092 8.52019 15.5744 8.35969 15.5068 8.21022C15.4392 8.06074 15.3402 7.92529 15.2155 7.81179C15.0908 7.6983 14.943 7.60904 14.7807 7.54924C14.6184 7.48945 14.4449 7.46032 14.2704 7.46356H11.4354C11.3293 7.46298 11.2264 7.43016 11.1423 7.37012L9.39227 6.10262C9.15275 5.93137 8.85894 5.83852 8.55664 5.83856H6.17664C6.00209 5.83532 5.82859 5.86445 5.66631 5.92424C5.50402 5.98404 5.35622 6.0733 5.23155 6.18679C5.10688 6.30029 5.00785 6.43574 4.94025 6.58522C4.87266 6.73469 4.83786 6.89519 4.83789 7.05731V14.3698C4.83751 14.5947 4.90742 14.8148 5.03914 15.0036C5.1602 15.1823 5.32798 15.3296 5.52687 15.4319C5.72576 15.5342 5.94929 15.5881 6.17664 15.5886H14.4891C14.7748 15.5952 15.055 15.515 15.2871 15.3603C15.5193 15.2056 15.6907 14.9848 15.7754 14.7314L17.0266 11.0751C17.0869 10.8941 17.1008 10.7026 17.0674 10.5157C17.034 10.3288 16.9541 10.1518 16.8341 9.99856ZM5.71289 7.05731C5.71278 7.00185 5.72491 6.94695 5.74852 6.896C5.77213 6.84506 5.80672 6.79914 5.85017 6.76108C5.89362 6.72302 5.945 6.69362 6.00115 6.6747C6.05729 6.65578 6.11702 6.64773 6.17664 6.65106H8.55664C8.66416 6.65106 8.7687 6.68389 8.85414 6.7445L10.6041 8.012C10.842 8.18322 11.1344 8.27612 11.4354 8.27606H14.2704C14.33 8.27273 14.3897 8.28078 14.4459 8.2997C14.502 8.31862 14.5534 8.34802 14.5969 8.38608C14.6403 8.42414 14.6749 8.47006 14.6985 8.521C14.7221 8.57195 14.7343 8.62685 14.7341 8.68231V9.49481H7.73414C7.45071 9.49087 7.17351 9.57224 6.94402 9.72675C6.71453 9.88127 6.54508 10.1006 6.46102 10.352L5.71289 12.5579V7.05731ZM16.2129 10.8314L14.9616 14.4876C14.9336 14.574 14.8753 14.6492 14.7961 14.7014C14.7169 14.7537 14.6212 14.7799 14.5241 14.7761H6.21164C6.11297 14.7759 6.01675 14.7475 5.93602 14.6948L7.33602 10.5957C7.3641 10.5094 7.42234 10.4342 7.50156 10.3819C7.58077 10.3297 7.67646 10.3035 7.77352 10.3073H15.7491C15.8229 10.3068 15.8957 10.3224 15.9618 10.3527C16.0279 10.3831 16.0854 10.4273 16.1298 10.482C16.1714 10.5305 16.2006 10.5872 16.215 10.6477C16.2294 10.7083 16.2287 10.7711 16.2129 10.8314Z" fill="white"/>
</g>
<defs>
<clipPath id="clip0_407_1066">
<rect width="14" height="13" fill="white" transform="translate(3.96289 4.21356)"/>
</clipPath>
</defs>
</svg>
