<svg width="4" height="18" viewBox="0 0 4 18" fill="none" xmlns="http://www.w3.org/2000/svg">
<path d="M0.123047 1.94666C0.123047 2.34448 0.281082 2.72601 0.562387 3.00732C0.843692 3.28862 1.22522 3.44666 1.62305 3.44666C2.02087 3.44666 2.4024 3.28862 2.68371 3.00732C2.96501 2.72601 3.12305 2.34448 3.12305 1.94666C3.12305 1.54883 2.96501 1.1673 2.68371 0.885995C2.4024 0.60469 2.02087 0.446655 1.62305 0.446655C1.22522 0.446655 0.843692 0.60469 0.562387 0.885995C0.281082 1.1673 0.123047 1.54883 0.123047 1.94666ZM2.37305 5.88416H0.873047C0.769922 5.88416 0.685547 5.96853 0.685547 6.07166V16.9467C0.685547 17.0498 0.769922 17.1342 0.873047 17.1342H2.37305C2.47617 17.1342 2.56055 17.0498 2.56055 16.9467V6.07166C2.56055 5.96853 2.47617 5.88416 2.37305 5.88416Z" fill="white"/>
</svg>
