<svg width="21" height="21" viewBox="0 0 21 21" fill="none" xmlns="http://www.w3.org/2000/svg">
<rect x="0.334473" y="0.675964" width="20.0752" height="20.0752" rx="4" fill="#309C6F"/>
<g clip-path="url(#clip0_407_1067)">
<path d="M8.77739 6.29328L8.44604 5.88919H8.99204C9.10005 5.88919 9.18787 5.80766 9.18787 5.70709V4.22626H9.95159V5.70709C9.95159 5.80766 10.0391 5.88919 10.1474 5.88919H10.6926L10.3556 6.30032L9.56948 7.25879L8.79399 6.31334C8.7889 6.30631 8.78357 6.29953 8.77739 6.29328ZM15.7437 9.22763V13.8122C15.7437 14.2775 15.3357 14.656 14.8343 14.656H14.138V16.8933C14.138 17.0629 13.9894 17.2009 13.8067 17.2009H5.33191C5.1497 17.2009 5.00146 17.0629 5.00146 16.8933V12.7931C5.00146 12.6239 5.14972 12.4863 5.33191 12.4863H13.8067C13.9894 12.4863 14.138 12.6239 14.138 12.7931V14.2919H14.8343C15.1196 14.2919 15.3516 14.0767 15.3516 13.8122V9.22763C15.3516 8.9774 15.1324 8.77382 14.8629 8.77382H12.7152V10.9262C12.7152 11.1695 12.5427 11.5163 11.7209 11.7883C11.1432 11.9793 10.3792 12.0845 9.56948 12.0845C8.75948 12.0845 7.9955 11.9793 7.41838 11.7883C6.59689 11.5163 6.42432 11.1696 6.42432 10.9262V7.33927C6.42432 6.76951 7.32607 6.42742 8.27156 6.27762L8.54174 6.60719C7.45931 6.74475 6.81624 7.08212 6.81624 7.33927C6.81624 7.67093 7.86359 8.13362 9.56946 8.13362C11.2756 8.13362 12.3232 7.67093 12.3232 7.33927C12.3232 7.08212 11.6799 6.74475 10.5966 6.60719L10.8671 6.27762C11.8128 6.42717 12.7152 6.76948 12.7152 7.33927V8.40974H14.8629C15.3486 8.40974 15.7437 8.77664 15.7437 9.22763ZM12.3232 10.6149C12.1781 10.7108 11.9823 10.8048 11.7208 10.8916C11.1431 11.0828 10.3789 11.1881 9.56943 11.1881C8.7597 11.1881 7.99574 11.0826 7.41805 10.8916C7.15714 10.8048 6.96157 10.7108 6.81624 10.6149V10.9262C6.81624 11.2579 7.86359 11.7206 9.56946 11.7206C11.2756 11.7206 12.3232 11.2579 12.3232 10.9262V10.6149H12.3232ZM12.3232 8.82115C12.1781 8.91702 11.9823 9.01107 11.7208 9.09758C11.1431 9.28879 10.3789 9.39406 9.56943 9.39406C8.7597 9.39406 7.99574 9.28882 7.41805 9.09758C7.15714 9.01107 6.96157 8.91702 6.81624 8.82115V9.133C6.81624 9.46465 7.86359 9.92734 9.56946 9.92734C11.2756 9.92734 12.3232 9.46465 12.3232 9.133V8.82115H12.3232ZM13.7459 12.8504H5.39352V16.8368H13.7459V12.8504ZM5.95543 14.1516H6.64179C6.75004 14.1516 6.83784 14.0701 6.83784 13.9695V13.3322C6.83784 13.2317 6.75007 13.1501 6.64179 13.1501H5.95543C5.84718 13.1501 5.75941 13.2317 5.75941 13.3322V13.9695C5.75941 14.0701 5.84718 14.1516 5.95543 14.1516ZM7.59059 14.1516H8.27774C8.38599 14.1516 8.47377 14.0701 8.47377 13.9695V13.3322C8.47377 13.2317 8.38599 13.1501 8.27774 13.1501H7.59059C7.48234 13.1501 7.39456 13.2317 7.39456 13.3322V13.9695C7.39453 14.0701 7.48231 14.1516 7.59059 14.1516ZM9.22575 14.1516H9.91289C10.0211 14.1516 10.1089 14.0701 10.1089 13.9695V13.3322C10.1089 13.2317 10.0211 13.1501 9.91289 13.1501H9.22575C9.11749 13.1501 9.02972 13.2317 9.02972 13.3322V13.9695C9.02969 14.0701 9.11746 14.1516 9.22575 14.1516ZM10.8617 14.1516H11.5481C11.6563 14.1516 11.7441 14.0701 11.7441 13.9695V13.3322C11.7441 13.2317 11.6564 13.1501 11.5481 13.1501H10.8617C10.7534 13.1501 10.6657 13.2317 10.6657 13.3322V13.9695C10.6656 14.0701 10.7534 14.1516 10.8617 14.1516ZM12.4969 14.1516H13.184C13.2923 14.1516 13.38 14.0701 13.38 13.9695V13.3322C13.38 13.2317 13.2923 13.1501 13.184 13.1501H12.4969C12.3886 13.1501 12.3008 13.2317 12.3008 13.3322V13.9695C12.3008 14.0701 12.3886 14.1516 12.4969 14.1516ZM5.95543 15.3443H6.64179C6.75004 15.3443 6.83784 15.2628 6.83784 15.1623V14.5242C6.83784 14.4236 6.75007 14.3421 6.64179 14.3421H5.95543C5.84718 14.3421 5.75941 14.4236 5.75941 14.5242V15.1623C5.75941 15.2628 5.84718 15.3443 5.95543 15.3443ZM7.59059 15.3443H8.27774C8.38599 15.3443 8.47377 15.2628 8.47377 15.1623V14.5242C8.47377 14.4236 8.38599 14.3421 8.27774 14.3421H7.59059C7.48234 14.3421 7.39456 14.4236 7.39456 14.5242V15.1623C7.39453 15.2628 7.48231 15.3443 7.59059 15.3443ZM9.22575 15.3443H9.91289C10.0211 15.3443 10.1089 15.2628 10.1089 15.1623V14.5242C10.1089 14.4236 10.0211 14.3421 9.91289 14.3421H9.22575C9.11749 14.3421 9.02972 14.4236 9.02972 14.5242V15.1623C9.02969 15.2628 9.11746 15.3443 9.22575 15.3443ZM10.8617 15.3443H11.5481C11.6563 15.3443 11.7441 15.2628 11.7441 15.1623V14.5242C11.7441 14.4236 11.6564 14.3421 11.5481 14.3421H10.8617C10.7534 14.3421 10.6657 14.4236 10.6657 14.5242V15.1623C10.6656 15.2628 10.7534 15.3443 10.8617 15.3443ZM12.4969 15.3443H13.184C13.2923 15.3443 13.38 15.2628 13.38 15.1623V14.5242C13.38 14.4236 13.2923 14.3421 13.184 14.3421H12.4969C12.3886 14.3421 12.3008 14.4236 12.3008 14.5242V15.1623C12.3008 15.2628 12.3886 15.3443 12.4969 15.3443ZM5.95543 16.537H6.64179C6.75004 16.537 6.83784 16.4555 6.83784 16.3549V15.7168C6.83784 15.6163 6.75007 15.5348 6.64179 15.5348H5.95543C5.84718 15.5348 5.75941 15.6163 5.75941 15.7168V16.3549C5.75941 16.4555 5.84718 16.537 5.95543 16.537ZM7.59059 16.537H11.548C11.6563 16.537 11.7441 16.4555 11.7441 16.3549V15.7168C11.7441 15.6163 11.6563 15.5348 11.548 15.5348H7.59059C7.48234 15.5348 7.39456 15.6163 7.39456 15.7168V16.3549C7.39453 16.4555 7.48231 16.537 7.59059 16.537ZM12.4969 16.537H13.184C13.2923 16.537 13.38 16.4555 13.38 16.3549V15.7168C13.38 15.6163 13.2923 15.5348 13.184 15.5348H12.4969C12.3886 15.5348 12.3008 15.6163 12.3008 15.7168V16.3549C12.3008 16.4555 12.3886 16.537 12.4969 16.537Z" fill="white"/>
</g>
<defs>
<clipPath id="clip0_407_1067">
<rect width="14" height="13" fill="white" transform="translate(3.37256 4.21356)"/>
</clipPath>
</defs>
</svg>
