<svg width="23" height="19" viewBox="0 0 23 19" fill="none" xmlns="http://www.w3.org/2000/svg">
<path fill-rule="evenodd" clip-rule="evenodd" d="M9.05943 1.85468C4.81069 1.85468 1.3664 5.29897 1.3664 9.54771C1.3664 13.7964 4.81069 17.2407 9.05943 17.2407V18.194C4.28418 18.194 0.413086 14.3229 0.413086 9.54771C0.413086 4.77247 4.28418 0.901367 9.05943 0.901367V1.85468ZM14.7499 16.764C18.7353 16.764 21.9662 13.5331 21.9662 9.5476C21.9662 5.56211 18.7353 2.33123 14.7499 2.33123C12.8327 2.33123 11.0902 3.07882 9.79791 4.29837C11.0693 4.73423 12.0334 6.83175 12.0334 9.35358C12.0334 12.0795 10.907 14.3097 9.48349 14.4813C10.8002 15.8862 12.6725 16.764 14.7499 16.764ZM6.5807 9.45469C6.58035 9.48562 6.58018 9.51659 6.58018 9.5476C6.58018 14.0596 10.2379 17.7173 14.7499 17.7173C19.2619 17.7173 22.9195 14.0596 22.9195 9.5476C22.9195 5.0356 19.2619 1.37791 14.7499 1.37791C12.078 1.37791 9.70577 2.6605 8.21518 4.64357C7.25271 5.43688 6.58018 7.24723 6.58018 9.35358C6.58018 9.38736 6.58035 9.42107 6.5807 9.45469Z" fill="white"/>
</svg>
