<svg width="19" height="11" viewBox="0 0 19 11" fill="none" xmlns="http://www.w3.org/2000/svg">
<path d="M0.336914 6.2616H2.33691V4.2616H0.336914V6.2616ZM0.336914 10.2616H2.33691V8.2616H0.336914V10.2616ZM0.336914 2.2616H2.33691V0.261597H0.336914V2.2616ZM4.33691 6.2616H18.3369V4.2616H4.33691V6.2616ZM4.33691 10.2616H18.3369V8.2616H4.33691V10.2616ZM4.33691 0.261597V2.2616H18.3369V0.261597H4.33691ZM0.336914 6.2616H2.33691V4.2616H0.336914V6.2616ZM0.336914 10.2616H2.33691V8.2616H0.336914V10.2616ZM0.336914 2.2616H2.33691V0.261597H0.336914V2.2616ZM4.33691 6.2616H18.3369V4.2616H4.33691V6.2616ZM4.33691 10.2616H18.3369V8.2616H4.33691V10.2616ZM4.33691 0.261597V2.2616H18.3369V0.261597H4.33691Z" fill="white"/>
</svg>
