<svg width="19" height="19" viewBox="0 0 19 19" fill="none" xmlns="http://www.w3.org/2000/svg">
<path d="M6.33694 7.76157C6.33694 7.56266 6.41596 7.37189 6.55661 7.23124C6.69727 7.09059 6.88803 7.01157 7.08694 7.01157H11.5869C11.7859 7.01157 11.9766 7.09059 12.1173 7.23124C12.2579 7.37189 12.3369 7.56266 12.3369 7.76157C12.3369 7.96048 12.2579 8.15125 12.1173 8.2919C11.9766 8.43255 11.7859 8.51157 11.5869 8.51157H7.08694C6.88803 8.51157 6.69727 8.43255 6.55661 8.2919C6.41596 8.15125 6.33694 7.96048 6.33694 7.76157ZM7.08694 10.0116C6.88803 10.0116 6.69727 10.0906 6.55661 10.2312C6.41596 10.3719 6.33694 10.5627 6.33694 10.7616C6.33694 10.9605 6.41596 11.1512 6.55661 11.2919C6.69727 11.4326 6.88803 11.5116 7.08694 11.5116H10.0869C10.2859 11.5116 10.4766 11.4326 10.6173 11.2919C10.7579 11.1512 10.8369 10.9605 10.8369 10.7616C10.8369 10.5627 10.7579 10.3719 10.6173 10.2312C10.4766 10.0906 10.2859 10.0116 10.0869 10.0116H7.08694ZM0.336944 9.26157C0.337326 7.28014 0.991582 5.35422 2.19822 3.78256C3.40485 2.21091 5.09642 1.08138 7.0105 0.569191C8.92459 0.0570049 10.9542 0.190794 12.7845 0.949804C14.6148 1.70881 16.1434 3.05062 17.1333 4.76706C18.1232 6.48351 18.519 8.47865 18.2593 10.443C17.9996 12.4073 17.0989 14.231 15.6969 15.6313C14.295 17.0315 12.4701 17.9299 10.5055 18.1871C8.54079 18.4444 6.54615 18.0461 4.83094 17.0541L1.32394 18.2241C1.19438 18.2673 1.05546 18.2744 0.922175 18.2445C0.788894 18.2146 0.666313 18.1488 0.567662 18.0543C0.469012 17.9598 0.398038 17.8402 0.3624 17.7083C0.326763 17.5765 0.327815 17.4374 0.365444 17.3061L1.43344 13.5696C0.713474 12.2478 0.336474 10.7667 0.336944 9.26157ZM9.33694 1.76157C8.01272 1.76149 6.71207 2.11202 5.56723 2.77753C4.42238 3.44304 3.47415 4.39981 2.81892 5.55057C2.16369 6.70133 1.82483 8.00506 1.83678 9.32924C1.84873 10.6534 2.21106 11.9508 2.88694 13.0896C2.93895 13.1775 2.97242 13.2752 2.98532 13.3766C2.99822 13.4779 2.99026 13.5809 2.96194 13.6791L2.19844 16.3491L4.68544 15.5211C4.79107 15.4858 4.90321 15.4745 5.01374 15.488C5.12427 15.5015 5.2304 15.5395 5.32444 15.5991C6.30735 16.2211 7.42147 16.606 8.57874 16.7233C9.736 16.8406 10.9047 16.6872 11.9924 16.2751C13.0802 15.8629 14.0572 15.2035 14.8462 14.3487C15.6351 13.494 16.2145 12.4675 16.5385 11.3503C16.8624 10.2331 16.9221 9.05592 16.7127 7.91172C16.5034 6.76751 16.0307 5.68768 15.3322 4.75759C14.6337 3.82749 13.7284 3.07262 12.6878 2.55264C11.6473 2.03267 10.5001 1.76184 9.33694 1.76157Z" fill="white"/>
</svg>
