<svg width="34" height="34" viewBox="0 0 34 34" fill="none" xmlns="http://www.w3.org/2000/svg">
<path d="M19.3726 2.37502C19.3726 2.51315 19.3587 2.64817 19.3373 2.78041L24.9911 5.71307C25.0591 5.55555 25.1441 5.40495 25.2458 5.26197L19.3641 2.21161C19.3679 2.26596 19.3726 2.31997 19.3726 2.37502Z" fill="white"/>
<path d="M16.9297 30.0519C15.8637 30.0519 14.9963 30.9351 14.9963 32.0204C14.9963 33.1057 15.8637 33.9882 16.9297 33.9882C17.9953 33.9882 18.8623 33.1054 18.8623 32.0201C18.8623 30.9347 17.9956 30.0519 16.9297 30.0519Z" fill="white"/>
<path d="M16.9296 4.34315C17.9956 4.34315 18.8626 3.46034 18.8626 2.375C18.8626 1.28967 17.9956 0.40686 16.9296 0.40686C15.8637 0.40686 14.9966 1.28967 14.9966 2.375C14.9966 3.45999 15.8637 4.34315 16.9296 4.34315Z" fill="white"/>
<path d="M31.4874 15.2294C30.4215 15.2294 29.5541 16.1122 29.5541 17.1976C29.5541 18.2829 30.4215 19.1657 31.4874 19.1657C32.5534 19.1657 33.4204 18.2829 33.4204 17.1976C33.4204 16.1122 32.5534 15.2294 31.4874 15.2294Z" fill="white"/>
<path d="M8.61377 5.26197C8.71509 5.40495 8.8001 5.5559 8.8681 5.71307L14.5216 2.78041C14.5002 2.64817 14.4862 2.51349 14.4862 2.37502C14.4862 2.31997 14.491 2.26596 14.4944 2.21161L8.61377 5.26197Z" fill="white"/>
<path d="M27.2233 8.68447C27.7401 8.68447 28.2253 8.47986 28.5905 8.10805C28.9553 7.73623 29.1566 7.2422 29.1566 6.71598C29.1566 6.1901 28.9553 5.69607 28.5905 5.32426C28.2257 4.95244 27.7401 4.74783 27.2236 4.74783C26.7071 4.74783 26.2219 4.95244 25.8564 5.32426C25.1026 6.09143 25.1026 7.34018 25.8564 8.1077C26.2216 8.47986 26.7071 8.68447 27.2233 8.68447Z" fill="white"/>
<path d="M28.1441 9.02138L31.0849 14.7468C31.2161 14.7247 31.3498 14.7101 31.4875 14.7101C31.5408 14.7101 31.5935 14.715 31.6463 14.7184L28.5939 8.77557C28.4525 8.87389 28.3015 8.95594 28.1441 9.02138Z" fill="white"/>
<path d="M25.8567 26.287C25.1029 27.0549 25.1029 28.3033 25.8567 29.0708C26.2216 29.4423 26.7071 29.6469 27.2236 29.6469C27.7401 29.6469 28.2253 29.4423 28.5905 29.0708C28.9556 28.699 29.1569 28.2046 29.1569 27.6787C29.1569 27.1529 28.9556 26.6588 28.5905 26.2867C28.2256 25.9152 27.7401 25.7106 27.2236 25.7106C26.7071 25.7106 26.2216 25.9156 25.8567 26.287Z" fill="white"/>
<path d="M2.37171 14.7101C2.50908 14.7101 2.6427 14.7247 2.77395 14.7468L5.71442 9.02103C5.55699 8.95594 5.4067 8.87355 5.26492 8.77557L2.21292 14.7184C2.26596 14.715 2.31799 14.7101 2.37171 14.7101Z" fill="white"/>
<path d="M14.4866 32.0201C14.4866 31.8819 14.5006 31.7473 14.522 31.6147L8.86853 28.6824C8.80053 28.8392 8.71552 28.9901 8.6142 29.1331L14.4948 32.1835C14.4914 32.1291 14.4866 32.0755 14.4866 32.0201Z" fill="white"/>
<path d="M25.2451 29.1338C25.1438 28.9908 25.0588 28.8399 24.9911 28.6827L19.337 31.615C19.3584 31.7476 19.3723 31.8819 19.3723 32.0204C19.3723 32.0755 19.3676 32.1295 19.3642 32.1838L25.2451 29.1338Z" fill="white"/>
<path d="M31.4875 19.685C31.3501 19.685 31.2161 19.6705 31.0849 19.6483L28.1441 25.3745C28.3015 25.4395 28.4521 25.5219 28.5936 25.6203L31.6463 19.6771C31.5935 19.6802 31.5412 19.685 31.4875 19.685Z" fill="white"/>
<path d="M8.00243 8.10843C8.75591 7.34091 8.75591 6.09217 8.00243 5.32499C7.63725 4.95352 7.15205 4.74857 6.63556 4.74857C6.11908 4.74857 5.63387 4.95317 5.26869 5.32499C4.51521 6.09217 4.51521 7.34091 5.26869 8.10843C5.63387 8.4799 6.11908 8.68485 6.63556 8.68485C7.15205 8.68485 7.63725 8.4799 8.00243 8.10843Z" fill="white"/>
<path d="M5.71488 25.3741L2.77407 19.6479C2.64282 19.6701 2.50919 19.6846 2.37183 19.6846C2.3181 19.6846 2.26574 19.6798 2.21338 19.6767L5.26571 25.6195C5.40716 25.5215 5.55745 25.4391 5.71488 25.3741Z" fill="white"/>
<path d="M6.63587 25.7106C6.11938 25.7106 5.63418 25.9156 5.269 26.287C4.51552 27.0545 4.51552 28.3029 5.269 29.0705C5.63384 29.4419 6.11938 29.6469 6.63587 29.6469C7.15235 29.6469 7.6379 29.4419 8.00308 29.0705C8.75656 28.3029 8.75656 27.0545 8.00308 26.287C7.63756 25.9156 7.15201 25.7106 6.63587 25.7106Z" fill="white"/>
<path d="M4.30472 17.1976C4.30472 16.1122 3.43767 15.2294 2.37172 15.2294C1.30577 15.2294 0.438721 16.1122 0.438721 17.1976C0.438721 18.2829 1.30577 19.1657 2.37172 19.1657C3.43733 19.1657 4.30472 18.2829 4.30472 17.1976Z" fill="white"/>
<path d="M16.933 16.8977L19.7792 15.2246L16.933 13.5587L14.0867 15.2246L16.933 16.8977Z" fill="white"/>
<path d="M16.678 17.3474L13.8344 15.6756V19.0116L16.678 20.6761V17.3474Z" fill="white"/>
<path d="M20.2903 14.9244L23.123 13.2595L20.29 11.594L17.4447 13.2592L20.2903 14.9244Z" fill="white"/>
<path d="M13.3244 15.3761L10.4886 13.7092V17.0535L13.3244 18.7135V15.3761Z" fill="white"/>
<path d="M20.0312 19.6071L17.188 21.2716V24.6242L20.0312 22.9527V19.6071Z" fill="white"/>
<path d="M13.5761 14.9244L16.421 13.2592L13.5761 11.5943L10.7434 13.2595L13.5761 14.9244Z" fill="white"/>
<path d="M16.678 24.6242V21.2751L13.8344 19.6109V22.9524L16.678 24.6242Z" fill="white"/>
<path d="M20.5413 19.3086V22.6529L23.3777 20.9856V17.6486L20.5413 19.3086Z" fill="white"/>
<path d="M13.3244 19.3121L10.4886 17.6525V20.9857L13.3244 22.653V19.3121Z" fill="white"/>
<path d="M16.9297 6.9303C11.3694 6.9303 6.84576 11.5361 6.84576 17.1975C6.84576 22.8593 11.3694 27.4648 16.9297 27.4648C22.4903 27.4648 27.0136 22.8589 27.0136 17.1975C27.0136 11.5361 22.4903 6.9303 16.9297 6.9303ZM23.8878 21.1356C23.8878 21.2283 23.8392 21.3142 23.7603 21.3602L17.0606 25.2986C17.0568 25.301 17.0524 25.3 17.0483 25.3021C17.0133 25.3208 16.9752 25.3336 16.9331 25.3336C16.8909 25.3336 16.8528 25.3204 16.8178 25.3021C16.8141 25.3 16.8096 25.301 16.8056 25.2986L10.1062 21.3602C10.0273 21.3139 9.97869 21.228 9.97869 21.1356V17.2432C9.97358 17.2131 9.9729 17.1827 9.97869 17.1522V13.2592C9.97869 13.2547 9.98175 13.2512 9.98209 13.2467C9.98379 13.2072 9.99195 13.1678 10.0123 13.1314C10.0134 13.1297 10.0144 13.1283 10.0157 13.1266C10.0365 13.0913 10.065 13.0646 10.097 13.0438C10.1008 13.0414 10.1025 13.0369 10.1062 13.0345L16.8052 9.09612C16.8841 9.04973 16.9813 9.04973 17.0602 9.09612L23.7603 13.0341C23.7644 13.0366 23.7661 13.0411 23.7695 13.0435C23.8014 13.0643 23.8296 13.0906 23.85 13.1255C23.8514 13.128 23.8531 13.1297 23.8545 13.1321C23.8745 13.1685 23.8827 13.2072 23.8844 13.2464C23.8847 13.2509 23.8878 13.2543 23.8878 13.2588V21.1356Z" fill="white"/>
<path d="M17.188 17.3475V20.6724L20.0312 19.0078V15.676L17.188 17.3475Z" fill="white"/>
<path d="M16.933 12.9597L19.7792 11.2938L16.9326 9.62094L14.0867 11.2941L16.933 12.9597Z" fill="white"/>
<path d="M23.3777 13.7092L20.5413 15.3765V18.7094L23.3777 17.0493V13.7092Z" fill="white"/>
</svg>
