<svg width="18" height="17" viewBox="0 0 18 17" fill="none" xmlns="http://www.w3.org/2000/svg">
<path fill-rule="evenodd" clip-rule="evenodd" d="M1.45986 0.479492C1.14132 0.479492 0.83582 0.59859 0.610575 0.810585C0.38533 1.02258 0.258789 1.31011 0.258789 1.60991L0.258789 8.39245C0.258789 8.69225 0.38533 8.97978 0.610575 9.19177C0.83582 9.40377 1.14132 9.52287 1.45986 9.52287H6.26416C6.5827 9.52287 6.8882 9.40377 7.11344 9.19177C7.33869 8.97978 7.46523 8.69225 7.46523 8.39245V1.60991C7.46523 1.31011 7.33869 1.02258 7.11344 0.810585C6.8882 0.59859 6.5827 0.479492 6.26416 0.479492L1.45986 0.479492ZM9.86738 1.60991C9.86738 1.31011 9.99392 1.02258 10.2192 0.810585C10.4444 0.59859 10.7499 0.479492 11.0684 0.479492L15.8727 0.479492C16.1913 0.479492 16.4968 0.59859 16.722 0.810585C16.9473 1.02258 17.0738 1.31011 17.0738 1.60991V3.88206C17.0738 4.18187 16.9473 4.4694 16.722 4.68139C16.4968 4.89339 16.1913 5.01248 15.8727 5.01248H11.0684C10.7499 5.01248 10.4444 4.89339 10.2192 4.68139C9.99392 4.4694 9.86738 4.18187 9.86738 3.88206V1.60991ZM9.86738 8.39245C9.86738 8.09264 9.99392 7.80511 10.2192 7.59312C10.4444 7.38112 10.7499 7.26202 11.0684 7.26202H15.8727C16.1913 7.26202 16.4968 7.38112 16.722 7.59312C16.9473 7.80511 17.0738 8.09264 17.0738 8.39245V15.175C17.0738 15.4748 16.9473 15.7623 16.722 15.9743C16.4968 16.1863 16.1913 16.3054 15.8727 16.3054H11.0684C10.7499 16.3054 10.4444 16.1863 10.2192 15.9743C9.99392 15.7623 9.86738 15.4748 9.86738 15.175V8.39245ZM0.258789 12.9028C0.258789 12.603 0.38533 12.3155 0.610575 12.1035C0.83582 11.8915 1.14132 11.7724 1.45986 11.7724H6.26416C6.5827 11.7724 6.8882 11.8915 7.11344 12.1035C7.33869 12.3155 7.46523 12.603 7.46523 12.9028V15.175C7.46523 15.4748 7.33869 15.7623 7.11344 15.9743C6.8882 16.1863 6.5827 16.3054 6.26416 16.3054H1.45986C1.14132 16.3054 0.83582 16.1863 0.610575 15.9743C0.38533 15.7623 0.258789 15.4748 0.258789 15.175V12.9028Z" fill="white"/>
</svg>
