<svg width="23" height="24" viewBox="0 0 23 24" fill="none" xmlns="http://www.w3.org/2000/svg">
<g clip-path="url(#clip0_170_2990)">
<path d="M13.3426 13.0168L11.2201 15.1392L8.57483 12.4939L10.6973 10.3714C10.978 10.0908 10.978 9.63567 10.6973 9.355C10.4166 9.07428 9.96148 9.07428 9.68081 9.355L7.55834 11.4775L6.59346 10.5126C6.31279 10.2319 5.85769 10.2319 5.57701 10.5126L3.15689 12.9327C1.22714 14.8624 1.06924 17.903 2.68265 20.0149L0.210782 22.4869C-0.0699351 22.7675 -0.0699351 23.2227 0.210782 23.5033C0.351118 23.6437 0.535028 23.7138 0.718983 23.7138C0.902938 23.7138 1.08685 23.6436 1.22718 23.5033L3.69905 21.0314C4.66074 21.766 5.81483 22.1337 6.9691 22.1337C8.34968 22.1337 9.73027 21.6082 10.7813 20.5571L13.2015 18.137C13.3362 18.0022 13.412 17.8194 13.412 17.6288C13.412 17.4382 13.3363 17.2554 13.2015 17.1206L12.2366 16.1557L14.359 14.0333C14.6397 13.7526 14.6397 13.2975 14.359 13.0169C14.0783 12.7361 13.6232 12.7361 13.3426 13.0168ZM9.7649 19.5407C8.22332 21.0823 5.71501 21.0823 4.17339 19.5407C2.6318 17.9991 2.6318 15.4908 4.17339 13.9492L6.08531 12.0373L11.6768 17.6288L9.7649 19.5407ZM22.7897 0.924374C22.509 0.643657 22.0539 0.643657 21.7732 0.924374L19.3014 3.39625C17.1895 1.78283 14.1488 1.94078 12.2191 3.87049L9.799 6.29065C9.51828 6.57132 9.51828 7.02643 9.799 7.3071L16.407 13.9151C16.5417 14.0499 16.7246 14.1257 16.9152 14.1257C17.1058 14.1257 17.2886 14.0499 17.4234 13.9151L19.8435 11.4949C21.7733 9.56519 21.9312 6.52461 20.3178 4.41274L22.7897 1.94082C23.0704 1.6601 23.0704 1.20505 22.7897 0.924374ZM18.8271 10.4785L16.9152 12.3904L11.3236 6.79885L13.2356 4.88693C14.7772 3.34539 17.2855 3.34539 18.8271 4.88693C20.3687 6.42852 20.3687 8.93686 18.8271 10.4785Z" fill="#D6DDEA"/>
</g>
<defs>
<clipPath id="clip0_170_2990">
<rect width="23" height="23" fill="white" transform="translate(0 0.713593)"/>
</clipPath>
</defs>
</svg>
