<svg width="22" height="22" viewBox="0 0 22 22" fill="none" xmlns="http://www.w3.org/2000/svg">
<path d="M4.71094 9.65823L5.8993 8.46987L13.5741 16.1447L12.3858 17.333L4.71094 9.65823Z" fill="white"/>
<path d="M1.09816 13.2726C0.86051 13.5102 0.86051 13.8955 1.09816 14.1332L5.19552 18.2306C5.34782 18.3828 5.5692 18.4432 5.77784 18.3895L7.29394 17.9982L6.90267 19.5143C6.84887 19.7229 6.90928 19.9443 7.06161 20.0966L7.91354 20.9486C8.03236 21.0674 8.1881 21.1268 8.3438 21.1268C8.4995 21.1268 8.65529 21.0674 8.77407 20.9486L11.5279 18.1947L3.85203 10.5187L1.09816 13.2726Z" fill="white"/>
<path d="M21.1139 0.932908C20.7902 0.609176 20.0606 0.120453 18.8115 0.484389C17.8642 0.760494 16.8077 1.47664 15.6715 2.61291C14.9949 3.28946 14.4565 4.25117 13.9814 5.09961C13.6657 5.66338 13.3676 6.19588 13.1469 6.41665C12.6754 6.88801 11.4347 6.84517 9.82797 6.30192C9.0171 6.0278 8.13799 6.23283 7.53365 6.83713L6.76172 7.60906L14.4377 15.2851L15.2096 14.5131C15.8139 13.9088 16.019 13.0297 15.7449 12.2188C15.2016 10.6121 15.1587 9.37138 15.6301 8.89989C15.8446 8.68545 16.3513 8.40525 16.8878 8.10857C17.6978 7.6607 18.7059 7.1033 19.4339 6.37527C20.5701 5.23908 21.2863 4.18249 21.5624 3.23526C21.9264 1.9863 21.4376 1.25664 21.1139 0.932908ZM18.445 4.21015C18.1089 4.21015 17.8365 3.9377 17.8365 3.60163C17.8365 3.26557 18.1089 2.99311 18.445 2.99311C18.781 2.99311 19.0535 3.26557 19.0535 3.60163C19.0535 3.9377 18.781 4.21015 18.445 4.21015Z" fill="white"/>
</svg>
