<svg width="24" height="24" viewBox="0 0 24 24" fill="none" xmlns="http://www.w3.org/2000/svg">
<g clip-path="url(#clip0_454_1197)">
<path d="M5.44574 14.11C5.44574 12.7624 6.54199 11.6661 7.88956 11.6661H15.4432C16.0557 11.6661 16.554 11.1678 16.554 10.5553V4.29024C16.554 2.45269 15.0591 0.957764 13.2215 0.957764H10.1112C8.27366 0.957764 6.77873 2.45269 6.77873 4.29024V6.112H11.6664C12.0345 6.112 12.3329 6.41036 12.3329 6.7785C12.3329 7.14663 12.0345 7.44499 11.6664 7.44499H3.62399C1.78643 7.44499 0.291504 8.93992 0.291504 10.7775V13.8878C0.291504 15.7253 1.78643 17.2203 3.62399 17.2203H5.44574V14.11ZM10.1112 4.33468C9.74308 4.33468 9.44472 4.03632 9.44472 3.66818C9.44472 3.30005 9.74308 3.00169 10.1112 3.00169C10.4794 3.00169 10.7777 3.30005 10.7777 3.66818C10.7777 4.03632 10.4794 4.33468 10.1112 4.33468Z" fill="white"/>
<path d="M19.7088 7.44501H17.8871V10.5553C17.8871 11.9029 16.7908 12.9991 15.4433 12.9991H7.88964C7.27712 12.9991 6.77881 13.4975 6.77881 14.11V20.375C6.77881 22.2126 8.27374 23.7075 10.1113 23.7075H13.2216C15.0592 23.7075 16.5541 22.2126 16.5541 20.375V18.5533H11.6664C11.2983 18.5533 11 18.2549 11 17.8868C11 17.5186 11.2983 17.2203 11.6664 17.2203H19.7088C21.5464 17.2203 23.0413 15.7254 23.0413 13.8878V10.7775C23.0413 8.93994 21.5464 7.44501 19.7088 7.44501ZM13.2216 20.3306C13.5897 20.3306 13.8881 20.629 13.8881 20.9971C13.8881 21.3652 13.5897 21.6636 13.2216 21.6636C12.8535 21.6636 12.5551 21.3652 12.5551 20.9971C12.5551 20.629 12.8535 20.3306 13.2216 20.3306Z" fill="white"/>
</g>
<defs>
<clipPath id="clip0_454_1197">
<rect width="22.7497" height="22.7497" fill="white" transform="translate(0.291504 0.957764)"/>
</clipPath>
</defs>
</svg>
