<svg width="13" height="22" viewBox="0 0 13 22" fill="none" xmlns="http://www.w3.org/2000/svg">
<path d="M2.1854 17.4036V5.03993H6.59236C7.55022 5.03993 8.34509 5.20494 8.97695 5.53496C9.61284 5.86497 10.0877 6.32177 10.4017 6.90534C10.7156 7.48489 10.8725 8.15498 10.8725 8.91564C10.8725 9.67227 10.7136 10.3383 10.3956 10.9139C10.0817 11.4854 9.6068 11.9301 8.97091 12.248C8.33905 12.566 7.54419 12.7249 6.58633 12.7249H3.2479V11.1191H6.41729C7.02099 11.1191 7.51199 11.0326 7.8903 10.8595C8.27264 10.6865 8.55235 10.4349 8.72944 10.1049C8.90652 9.77489 8.99506 9.37847 8.99506 8.91564C8.99506 8.44878 8.90451 8.04431 8.7234 7.70221C8.54632 7.36012 8.26661 7.09852 7.88427 6.91741C7.50595 6.73228 7.00891 6.63971 6.39314 6.63971H4.05081V17.4036H2.1854ZM8.28874 11.8254L11.3434 17.4036H9.21843L6.22411 11.8254H8.28874Z" fill="white"/>
<path fill-rule="evenodd" clip-rule="evenodd" d="M12.3321 3.92776C11.1777 2.53493 9.43456 1.64773 7.4842 1.64773C4.00844 1.64773 1.19079 4.46539 1.19079 7.94115C1.19079 9.0745 1.49037 10.1379 2.01467 11.0564C0.939268 9.91981 0.279785 8.3856 0.279785 6.69737C0.279785 3.19389 3.11992 0.35376 6.6234 0.35376C9.13386 0.35376 11.3037 1.81206 12.3321 3.92776Z" fill="white"/>
</svg>
