<svg width="21" height="21" viewBox="0 0 21 21" fill="none" xmlns="http://www.w3.org/2000/svg">
<rect x="0.216309" y="0.675964" width="20.0752" height="20.0752" rx="4" fill="#0B558D"/>
<path d="M14.5467 17.7928C14.3166 17.7928 14.1121 17.7534 13.9331 17.6746C13.7552 17.5958 13.6146 17.486 13.5113 17.3454C13.4079 17.2048 13.3531 17.0424 13.3467 16.8581H13.9475C13.9528 16.9465 13.9821 17.0237 14.0354 17.0898C14.0886 17.1547 14.1595 17.2053 14.2479 17.2416C14.3363 17.2778 14.4354 17.2959 14.5451 17.2959C14.6623 17.2959 14.7662 17.2757 14.8567 17.2352C14.9472 17.1936 15.0181 17.1361 15.0692 17.0626C15.1204 16.9891 15.1454 16.9044 15.1443 16.8085C15.1454 16.7095 15.1198 16.6221 15.0676 16.5465C15.0154 16.4708 14.9398 16.4117 14.8407 16.3691C14.7427 16.3265 14.6245 16.3052 14.486 16.3052H14.1968V15.8482H14.486C14.6 15.8482 14.6996 15.8285 14.7848 15.7891C14.8711 15.7497 14.9387 15.6943 14.9877 15.6229C15.0367 15.5504 15.0607 15.4668 15.0596 15.372C15.0607 15.2793 15.0399 15.1989 14.9973 15.1307C14.9558 15.0615 14.8966 15.0077 14.8199 14.9693C14.7443 14.931 14.6554 14.9118 14.5531 14.9118C14.453 14.9118 14.3603 14.9299 14.2751 14.9661C14.1898 15.0024 14.1211 15.054 14.0689 15.1211C14.0167 15.1872 13.989 15.266 13.9858 15.3576H13.4154C13.4197 15.1744 13.4724 15.0136 13.5736 14.8751C13.6758 14.7355 13.8122 14.6269 13.9826 14.5491C14.1531 14.4703 14.3443 14.4308 14.5563 14.4308C14.7747 14.4308 14.9643 14.4719 15.1251 14.5539C15.2871 14.6348 15.4122 14.744 15.5007 14.8815C15.5891 15.0189 15.6333 15.1707 15.6333 15.3369C15.6343 15.5212 15.58 15.6756 15.4703 15.8003C15.3616 15.9249 15.2189 16.0064 15.0421 16.0447V16.0703C15.2722 16.1023 15.4485 16.1875 15.571 16.326C15.6945 16.4634 15.7558 16.6344 15.7547 16.8389C15.7547 17.0221 15.7025 17.1862 15.5981 17.331C15.4948 17.4749 15.3521 17.5878 15.1699 17.6698C14.9888 17.7518 14.7811 17.7928 14.5467 17.7928Z" fill="white"/>
<path d="M13.3722 12.3484V11.9202L14.5083 10.8065C14.617 10.6967 14.7075 10.5993 14.78 10.514C14.8524 10.4288 14.9067 10.3463 14.9429 10.2664C14.9792 10.1865 14.9973 10.1013 14.9973 10.0107C14.9973 9.90737 14.9738 9.81896 14.927 9.74545C14.8801 9.67088 14.8156 9.61336 14.7336 9.57288C14.6516 9.5324 14.5584 9.51216 14.454 9.51216C14.3464 9.51216 14.2521 9.53453 14.1712 9.57927C14.0902 9.62295 14.0273 9.68526 13.9826 9.76623C13.9389 9.84719 13.9171 9.94359 13.9171 10.0554H13.353C13.353 9.84772 13.4004 9.66716 13.4952 9.51376C13.59 9.36036 13.7205 9.24158 13.8867 9.15742C14.054 9.07327 14.2457 9.03119 14.462 9.03119C14.6814 9.03119 14.8742 9.0722 15.0404 9.15423C15.2066 9.23625 15.3355 9.34864 15.4271 9.49139C15.5198 9.63413 15.5661 9.79712 15.5661 9.98034C15.5661 10.1029 15.5427 10.2232 15.4958 10.3415C15.4489 10.4597 15.3664 10.5907 15.2481 10.7346C15.131 10.8784 14.9664 11.0525 14.7544 11.2571L14.1903 11.8307V11.8531H15.6157V12.3484H13.3722Z" fill="white"/>
<path d="M14.7031 3.6763V6.94881H14.1103V4.25314H14.0911L13.3257 4.7421V4.19882L14.139 3.6763H14.7031Z" fill="white"/>
<circle cx="6.16063" cy="5.04247" r="1.40819" fill="white"/>
<circle cx="6.16063" cy="10.4903" r="1.40819" fill="white"/>
<circle cx="6.16063" cy="15.9381" r="1.40819" fill="white"/>
</svg>
