<svg width="21" height="21" viewBox="0 0 21 21" fill="none" xmlns="http://www.w3.org/2000/svg">
<rect x="0.803223" y="0.675964" width="20.0752" height="20.0752" rx="4" fill="#0B558D"/>
<g clip-path="url(#clip0_407_1074)">
<path d="M5.02295 12.4224V7.19479H7.59944V15.7349C7.59944 16.4464 7.02266 17.0231 6.31119 17.0231C5.59972 17.0231 5.02295 16.4464 5.02295 15.7349V13.311" stroke="white" stroke-width="0.5" stroke-miterlimit="10" stroke-linecap="round" stroke-linejoin="round"/>
<path d="M7.76405 4.40399H4.85787C4.75433 4.40399 4.67041 4.48793 4.67041 4.59145V7.00732C4.67041 7.11086 4.75435 7.19478 4.85787 7.19478H7.76405C7.8676 7.19478 7.95151 7.11084 7.95151 7.00732V4.59145C7.95151 4.48793 7.8676 4.40399 7.76405 4.40399Z" stroke="white" stroke-width="0.5" stroke-miterlimit="10" stroke-linecap="round" stroke-linejoin="round"/>
<path d="M7.59925 13.5728H6.54247C6.41465 13.5728 6.31104 13.4691 6.31104 13.3413V11.1114C6.31104 10.9836 6.41465 10.88 6.54247 10.88H7.59928L7.59925 13.5728Z" stroke="white" stroke-width="0.5" stroke-miterlimit="10" stroke-linecap="round" stroke-linejoin="round"/>
<path d="M5.06836 9.11502H7.55392" stroke="white" stroke-width="0.5" stroke-miterlimit="10" stroke-linecap="round" stroke-linejoin="round"/>
<path d="M10.7975 17.0231C10.0861 17.0231 9.50928 16.4464 9.50928 15.7349V7.19479H12.0858V15.7349C12.0858 16.4464 11.509 17.0231 10.7975 17.0231Z" stroke="white" stroke-width="0.5" stroke-miterlimit="10" stroke-linecap="round" stroke-linejoin="round"/>
<path d="M12.2509 4.40399H9.34469C9.24114 4.40399 9.15723 4.48793 9.15723 4.59145V7.00732C9.15723 7.11086 9.24117 7.19478 9.34469 7.19478H12.2509C12.3544 7.19478 12.4383 7.11084 12.4383 7.00732V4.59145C12.4383 4.48793 12.3544 4.40399 12.2509 4.40399Z" stroke="white" stroke-width="0.5" stroke-miterlimit="10" stroke-linecap="round" stroke-linejoin="round"/>
<path d="M12.0858 10.88H9.50928V13.5728H12.0858V10.88Z" stroke="white" stroke-width="0.5" stroke-miterlimit="10" stroke-linecap="round" stroke-linejoin="round"/>
<path d="M9.55469 9.11502H12.0403" stroke="white" stroke-width="0.5" stroke-miterlimit="10" stroke-linecap="round" stroke-linejoin="round"/>
<path d="M16.6595 12.155V7.19479H14.083V15.7349C14.083 16.4464 14.6598 17.0231 15.3713 17.0231C16.0827 17.0231 16.6595 16.4464 16.6595 15.7349V13.0691" stroke="white" stroke-width="0.5" stroke-miterlimit="10" stroke-linecap="round" stroke-linejoin="round"/>
<path d="M13.9184 4.40399H16.8246C16.9281 4.40399 17.0121 4.48793 17.0121 4.59145V7.00732C17.0121 7.11086 16.9281 7.19478 16.8246 7.19478H13.9184C13.8149 7.19478 13.731 7.11084 13.731 7.00732V4.59145C13.731 4.48793 13.8149 4.40399 13.9184 4.40399Z" stroke="white" stroke-width="0.5" stroke-miterlimit="10" stroke-linecap="round" stroke-linejoin="round"/>
<path d="M14.083 13.5728H15.1398C15.2676 13.5728 15.3713 13.4691 15.3713 13.3413V11.1114C15.3713 10.9836 15.2676 10.88 15.1398 10.88H14.083V13.5728Z" stroke="white" stroke-width="0.5" stroke-miterlimit="10" stroke-linecap="round" stroke-linejoin="round"/>
<path d="M16.614 9.11502H14.1284" stroke="white" stroke-width="0.5" stroke-miterlimit="10" stroke-linecap="round" stroke-linejoin="round"/>
<path d="M10.2886 11.5752H10.8176" stroke="white" stroke-width="0.5" stroke-miterlimit="10" stroke-linecap="round" stroke-linejoin="round"/>
<path d="M10.2886 12.4101H11.2746" stroke="white" stroke-width="0.5" stroke-miterlimit="10" stroke-linecap="round" stroke-linejoin="round"/>
<path d="M4.67041 5.91501H7.95154" stroke="white" stroke-width="0.5" stroke-miterlimit="10" stroke-linecap="round" stroke-linejoin="round"/>
<path d="M9.20068 5.91501H12.3054" stroke="white" stroke-width="0.5" stroke-miterlimit="10" stroke-linecap="round" stroke-linejoin="round"/>
<path d="M13.814 5.91501H16.9187" stroke="white" stroke-width="0.5" stroke-miterlimit="10" stroke-linecap="round" stroke-linejoin="round"/>
</g>
<defs>
<clipPath id="clip0_407_1074">
<rect width="13" height="13" fill="white" transform="translate(4.34131 4.21356)"/>
</clipPath>
</defs>
</svg>
