<svg width="14" height="14" viewBox="0 0 14 14" fill="none" xmlns="http://www.w3.org/2000/svg">
<path d="M3.9375 3.0625V0.875H8.3125V3.0625C8.3125 3.17853 8.26641 3.28981 8.18436 3.37186C8.10231 3.45391 7.99103 3.5 7.875 3.5H4.375C4.25897 3.5 4.14769 3.45391 4.06564 3.37186C3.98359 3.28981 3.9375 3.17853 3.9375 3.0625ZM3.5 13.125H10.5V11.62H3.5V13.125ZM3.5 10.745H10.5V9.87H3.5V10.745ZM12.6875 3.80625L10.6619 1.35187C10.5389 1.20292 10.3845 1.08294 10.2099 1.00051C10.0352 0.918075 9.84442 0.87522 9.65125 0.875H9.1875V3.0625C9.1875 3.4106 9.04922 3.74444 8.80308 3.99058C8.55694 4.23672 8.2231 4.375 7.875 4.375H4.375C4.0269 4.375 3.69306 4.23672 3.44692 3.99058C3.20078 3.74444 3.0625 3.4106 3.0625 3.0625V0.875H2.1875C1.8394 0.875 1.50556 1.01328 1.25942 1.25942C1.01328 1.50556 0.875 1.8394 0.875 2.1875V11.8125C0.875 12.1606 1.01328 12.4944 1.25942 12.7406C1.50556 12.9867 1.8394 13.125 2.1875 13.125H2.625V8.75C2.625 8.4019 2.76328 8.06806 3.00942 7.82192C3.25556 7.57578 3.5894 7.4375 3.9375 7.4375H10.0625C10.4106 7.4375 10.7444 7.57578 10.9906 7.82192C11.2367 8.06806 11.375 8.4019 11.375 8.75V13.125H11.8125C12.1606 13.125 12.4944 12.9867 12.7406 12.7406C12.9867 12.4944 13.125 12.1606 13.125 11.8125V4.7775C13.124 4.59402 13.0846 4.41279 13.0092 4.24549C12.9339 4.0782 12.8243 3.92857 12.6875 3.80625ZM10.0625 8.3125H3.9375C3.82147 8.3125 3.71019 8.35859 3.62814 8.44064C3.54609 8.52269 3.5 8.63397 3.5 8.75V8.995H10.5V8.75C10.5 8.63397 10.4539 8.52269 10.3719 8.44064C10.2898 8.35859 10.1785 8.3125 10.0625 8.3125Z" fill="#5482FF"/>
</svg>
