<svg width="14" height="12" viewBox="0 0 14 12" fill="none" xmlns="http://www.w3.org/2000/svg">
<path d="M12.3187 10.9519L9.78531 8.56785M9.78531 8.56785C10.2187 8.16006 10.5624 7.67594 10.7969 7.14313C11.0315 6.61032 11.1522 6.03926 11.1522 5.46255C11.1522 4.88584 11.0315 4.31478 10.7969 3.78197C10.5624 3.24916 10.2187 2.76504 9.78531 2.35724C9.35196 1.94945 8.83749 1.62597 8.27129 1.40527C7.70509 1.18458 7.09824 1.07098 6.48539 1.07098C5.87254 1.07098 5.26569 1.18458 4.69949 1.40527C4.13329 1.62597 3.61882 1.94945 3.18547 2.35724C2.31028 3.18082 1.8186 4.29783 1.8186 5.46255C1.8186 6.62726 2.31028 7.74428 3.18547 8.56785C4.06067 9.39143 5.24768 9.85411 6.48539 9.85411C7.7231 9.85411 8.91011 9.39143 9.78531 8.56785Z" stroke="#B0B0B0" stroke-width="2" stroke-linecap="round" stroke-linejoin="round"/>
</svg>
