<svg width="22" height="23" viewBox="0 0 22 23" fill="none" xmlns="http://www.w3.org/2000/svg">
<g clip-path="url(#clip0_170_2984)">
<path d="M12.0267 22.7395H9.97333C9.27942 22.7395 8.69367 22.2198 8.61117 21.5295L8.39208 19.8098C7.95483 19.6678 7.53317 19.4927 7.13258 19.2883L5.76308 20.3525C5.20758 20.7824 4.42567 20.7329 3.9435 20.237L2.49975 18.7933C2.0075 18.3157 1.958 17.5338 2.38792 16.9792L3.45217 15.6088C3.24683 15.2082 3.07175 14.7865 2.93058 14.3493L1.20725 14.1302C0.51975 14.0458 0 13.4601 0 12.7662V10.7128C0 10.0189 0.51975 9.43317 1.21 9.35067L2.92967 9.13159C3.07175 8.69433 3.24683 8.27267 3.45125 7.87209L2.38792 6.50259C1.95708 5.94709 2.0075 5.16425 2.50433 4.68209L3.94808 3.23834C4.42567 2.74609 5.2085 2.6975 5.76217 3.1265L7.13167 4.19167C7.53225 3.98725 7.95392 3.81217 8.39208 3.67009L8.61117 1.94675C8.69367 1.25925 9.27942 0.739502 9.97333 0.739502H12.0267C12.7206 0.739502 13.3063 1.25925 13.3888 1.9495L13.6079 3.66917C14.0461 3.81125 14.4677 3.98634 14.8683 4.19075L16.2378 3.1265C16.7943 2.69659 17.5753 2.74609 18.0574 3.24292L19.5012 4.68667C19.9934 5.16425 20.0429 5.94617 19.613 6.50075L18.5488 7.87117C18.7541 8.27175 18.9292 8.69342 19.0703 9.13067L20.7937 9.34975C21.4803 9.43317 22 10.0189 22 10.7128V12.7662C22 13.4601 21.4803 14.0458 20.79 14.1283L19.0703 14.3474C18.9283 14.7847 18.7532 15.2063 18.5488 15.6069L19.613 16.9764C20.0438 17.5319 19.9934 18.3138 19.4966 18.796L18.0528 20.2398C17.5753 20.732 16.7924 20.7824 16.2388 20.3516L14.8683 19.2873C14.4677 19.4927 14.0461 19.6678 13.6088 19.8089L13.3898 21.5323C13.3063 22.2198 12.7206 22.7395 12.0267 22.7395ZM7.08583 18.2845C7.16192 18.2845 7.23983 18.3038 7.3095 18.3423C7.81458 18.6246 8.36183 18.8519 8.93567 19.0169C9.11167 19.0673 9.24092 19.2177 9.26383 19.3992L9.5205 21.4158C9.548 21.6459 9.74692 21.8228 9.97333 21.8228H12.0267C12.2531 21.8228 12.452 21.6459 12.4786 21.4204L12.7362 19.4001C12.7591 19.2186 12.8883 19.0683 13.0643 19.0178C13.6382 18.8528 14.1854 18.6255 14.6905 18.3432C14.8509 18.2533 15.0508 18.2689 15.1947 18.3817L16.7988 19.6283C16.9831 19.7713 17.2416 19.7594 17.3993 19.5972L18.8522 18.1443C19.0181 17.9829 19.0309 17.7244 18.8879 17.5393L17.6413 15.9351C17.5285 15.7903 17.5129 15.5913 17.6027 15.4309C17.8851 14.9258 18.1124 14.3786 18.2774 13.8048C18.3278 13.6288 18.4782 13.4995 18.6597 13.4766L20.6763 13.2199C20.9064 13.1915 21.0833 12.9926 21.0833 12.7662V10.7128C21.0833 10.4864 20.9064 10.2875 20.6809 10.2609L18.6606 10.0033C18.4791 9.98042 18.3288 9.85117 18.2783 9.67517C18.1133 9.10134 17.886 8.55409 17.6037 8.049C17.5138 7.88859 17.5285 7.68967 17.6422 7.54484L18.8888 5.94067C19.0328 5.7555 19.0199 5.497 18.8586 5.34117L17.4057 3.88825C17.2453 3.72142 16.9858 3.70859 16.8007 3.8525L15.1965 5.09917C15.0507 5.21192 14.8518 5.2275 14.6914 5.13767C14.1882 4.85534 13.6409 4.62892 13.0653 4.463C12.8893 4.41259 12.76 4.26225 12.7371 4.08075L12.4804 2.06409C12.452 1.83309 12.2531 1.65617 12.0267 1.65617H9.97333C9.74692 1.65617 9.548 1.83309 9.52142 2.05859L9.26383 4.07892C9.24092 4.26042 9.11167 4.41075 8.93567 4.46209C8.36 4.62709 7.81275 4.85442 7.3095 5.13584C7.14908 5.22659 6.95017 5.21009 6.80442 5.09825L5.20025 3.85159C5.01508 3.70767 4.7575 3.7205 4.60075 3.88184L3.14783 5.33567C2.98192 5.497 2.96908 5.7555 3.11208 5.94067L4.35875 7.54484C4.4715 7.68967 4.48708 7.88859 4.39725 8.049C4.114 8.55409 3.88758 9.10134 3.72258 9.67517C3.67217 9.85117 3.52183 9.98042 3.34033 10.0033L1.32367 10.26C1.09358 10.2875 0.916667 10.4864 0.916667 10.7128V12.7662C0.916667 12.9926 1.09358 13.1915 1.31908 13.2181L3.33942 13.4757C3.52092 13.4986 3.67125 13.6278 3.72167 13.8038C3.88667 14.3777 4.114 14.9249 4.39633 15.43C4.48617 15.5904 4.4715 15.7893 4.35783 15.9342L3.11117 17.5383C2.96725 17.7235 2.98008 17.982 3.14142 18.1378L4.59433 19.5908C4.75475 19.7567 5.01233 19.7695 5.19933 19.6265L6.8035 18.3798C6.88692 18.3175 6.98592 18.2845 7.08583 18.2845Z" fill="#D6DDEA"/>
<path d="M11 16.3229C8.47277 16.3229 6.41669 14.2668 6.41669 11.7395C6.41669 9.21227 8.47277 7.15619 11 7.15619C13.5273 7.15619 15.5834 9.21227 15.5834 11.7395C15.5834 14.2668 13.5273 16.3229 11 16.3229ZM11 8.07286C8.97785 8.07286 7.33335 9.71736 7.33335 11.7395C7.33335 13.7617 8.97785 15.4062 11 15.4062C13.0222 15.4062 14.6667 13.7617 14.6667 11.7395C14.6667 9.71736 13.0222 8.07286 11 8.07286Z" fill="#D6DDEA"/>
</g>
<defs>
<clipPath id="clip0_170_2984">
<rect width="22" height="22" fill="white" transform="translate(0 0.739502)"/>
</clipPath>
</defs>
</svg>
