<svg width="21" height="21" viewBox="0 0 21 21" fill="none" xmlns="http://www.w3.org/2000/svg">
<path d="M19.3546 2.50708H1.81419C1.46821 2.50708 1.18774 2.78755 1.18774 3.13352V17.8549C1.18774 18.2009 1.46821 18.4814 1.81419 18.4814H19.3546C19.7005 18.4814 19.981 18.2009 19.981 17.8549V3.13352C19.981 2.78755 19.7005 2.50708 19.3546 2.50708ZM7.45217 4.2298C7.79814 4.2298 8.07861 4.51026 8.07861 4.85624C8.07861 5.20221 7.79814 5.48268 7.45217 5.48268C7.10619 5.48268 6.82572 5.20221 6.82572 4.85624C6.82572 4.51026 7.10619 4.2298 7.45217 4.2298ZM5.57284 4.2298C5.91881 4.2298 6.19928 4.51026 6.19928 4.85624C6.19928 5.20221 5.91881 5.48268 5.57284 5.48268C5.22686 5.48268 4.9464 5.20221 4.9464 4.85624C4.9464 4.51026 5.22686 4.2298 5.57284 4.2298ZM3.69351 4.2298C4.03949 4.2298 4.31995 4.51026 4.31995 4.85624C4.31995 5.20221 4.03949 5.48268 3.69351 5.48268C3.34754 5.48268 3.06707 5.20221 3.06707 4.85624C3.06707 4.51026 3.34754 4.2298 3.69351 4.2298ZM18.7281 17.2285H2.44063V7.22106H18.7281V17.2285Z" fill="white"/>
<path d="M4.25928 15.1998C4.55041 15.4892 5.02058 15.4892 5.3117 15.1998L7.46132 13.0502C7.75071 12.7591 7.75071 12.2889 7.46132 11.9978L5.3117 9.84819C4.9986 9.58006 4.52742 9.61651 4.25928 9.92961C4.01998 10.209 4.01998 10.6212 4.25928 10.9006L5.87896 12.524L4.25928 14.1474C3.96989 14.4385 3.96989 14.9087 4.25928 15.1998Z" fill="white"/>
<path d="M8.73779 14.4796C8.73779 14.8918 9.07197 15.2259 9.48419 15.2259H12.4698C12.882 15.2259 13.2162 14.8918 13.2162 14.4796C13.2162 14.0673 12.882 13.7332 12.4698 13.7332H9.48419C9.07197 13.7332 8.73779 14.0673 8.73779 14.4796Z" fill="white"/>
</svg>
