<svg width="31" height="31" viewBox="0 0 31 31" fill="none" xmlns="http://www.w3.org/2000/svg">
<g clip-path="url(#clip0_344_6)">
<path d="M29.199 14.4422H26.7219L27.8324 13.3318C28.1274 13.037 28.1274 12.5589 27.8325 12.2641C27.5376 11.9693 27.0596 11.9692 26.7648 12.264L24.5864 14.4422H20.9251L22.5541 12.6914C22.8381 12.3861 22.8209 11.9084 22.5156 11.6243C22.3904 11.5079 22.2362 11.4428 22.0781 11.4268C21.9823 11.4221 19.9142 11.4265 19.9142 11.4265L22.3348 9.006H25.3735C25.7906 9.006 26.1286 8.66804 26.1286 8.25096C26.1286 7.83388 25.7906 7.49593 25.3735 7.49593H23.8447L25.6256 5.71506C25.9205 5.42009 25.9205 4.9421 25.6256 4.64714C25.3306 4.35237 24.8359 4.35237 24.541 4.64714L22.7225 6.44895V4.87848C22.7225 4.4614 22.3846 4.12345 21.9675 4.12345C21.5504 4.12345 21.2125 4.4614 21.2125 4.87848V7.95912L18.7121 10.4763L18.6703 8.1966C18.6702 8.19298 18.6739 8.18955 18.6738 8.18593C18.6702 8.00231 18.6029 7.81939 18.4654 7.67663C18.1761 7.37643 17.6823 7.36757 17.382 7.6571L15.7762 9.18992V5.64429L17.9376 3.49959C18.2325 3.20462 18.2409 2.72663 17.946 2.43177C17.651 2.137 17.1605 2.137 16.8656 2.43177L15.7762 3.50855V1.05298C15.7762 0.635896 15.4383 0.297943 15.0212 0.297943C14.6041 0.297943 14.2662 0.635896 14.2662 1.05298V3.50865L13.2061 2.43187C12.9111 2.1371 12.4416 2.1371 12.1466 2.43187C11.8518 2.72684 11.8392 3.20482 12.1341 3.49969L14.2662 5.64439V9.21026L12.6377 7.65237C12.3348 7.36576 11.8656 7.37875 11.5787 7.68147C11.4704 7.79583 11.4092 7.93516 11.386 8.07962C11.3717 8.13831 11.3655 8.19922 11.3657 8.26194L11.3569 10.3991L8.83003 7.88794V4.87848C8.83003 4.4614 8.49207 4.12345 8.07499 4.12345C7.65791 4.12345 7.31996 4.4614 7.31996 4.87848V6.37788L5.60593 4.64714C5.31097 4.35237 4.84144 4.35237 4.54647 4.64714C4.2516 4.9421 4.25583 5.42009 4.5507 5.71506L6.3358 7.49593H4.73593C4.31885 7.49593 3.9809 7.83388 3.9809 8.25096C3.9809 8.66804 4.31885 9.006 4.73593 9.006H7.84587L10.3369 11.497L8.0157 11.5807C7.6109 11.5954 7.25825 11.9265 7.25432 12.3274C7.25392 12.3387 7.21919 12.3501 7.21919 12.3614C7.21919 12.3617 7.21919 12.3621 7.21919 12.3625C7.21919 12.3633 7.25392 12.3642 7.25392 12.3649C7.25845 12.5536 7.35006 12.741 7.49503 12.8842L9.08976 14.4422H5.59415L3.41583 12.2639C3.12087 11.9692 2.64288 11.9692 2.34801 12.2639C2.05315 12.5589 2.05315 13.0369 2.34801 13.3317L3.45842 14.4421H0.910429C0.493349 14.4421 0.155396 14.7801 0.155396 15.1972C0.155396 15.6143 0.493349 15.9522 0.910429 15.9522H3.42922L2.34801 17.0334C2.05315 17.3284 2.05315 17.8064 2.34801 18.1012C2.4955 18.2486 2.68878 18.3223 2.88197 18.3223C3.07516 18.3223 3.26845 18.2486 3.41593 18.1012L5.56486 15.9523H9.09107L7.55553 17.6027C7.27154 17.9079 7.28875 18.3856 7.59409 18.6698C7.73946 18.8051 7.92399 18.8721 8.10811 18.8721C8.11154 18.8721 8.11496 18.8716 8.11848 18.8716C8.1207 18.8716 8.12291 18.8719 8.12503 18.8719C8.12684 18.8719 8.12875 18.8719 8.13056 18.8719L10.3458 18.8593L7.81657 21.3885H4.73593C4.31885 21.3885 3.9809 21.7265 3.9809 22.1436C3.9809 22.5607 4.31885 22.8986 4.73593 22.8986H6.3065L4.55493 24.6502C4.26006 24.9452 4.26006 25.4231 4.55493 25.718C4.70241 25.8654 4.8957 25.9391 5.08889 25.9391C5.28207 25.9391 5.45855 25.8654 5.60603 25.718L7.31996 23.9874V25.5161C7.31996 25.9331 7.65791 26.2711 8.07499 26.2711C8.49207 26.2711 8.83003 25.9331 8.83003 25.5161V22.4773L11.3916 19.9325L11.49 22.3879C11.5049 22.7952 11.844 23.1234 12.2482 23.1153C12.3855 23.1125 12.5345 23.0684 12.6823 22.9599C12.7893 22.8813 14.2663 21.3681 14.2663 21.3681V24.9304L12.1551 27.0582C11.8601 27.3531 11.8686 27.8312 12.1633 28.1261C12.3108 28.2736 12.5081 28.3472 12.7014 28.3472C12.8946 28.3472 13.0732 28.2736 13.2206 28.1262L14.2663 27.0659V29.5429C14.2663 29.96 14.6042 30.2979 15.0213 30.2979C15.4384 30.2979 15.7763 29.96 15.7763 29.5429V26.9949L16.9244 28.1262C17.0719 28.2736 17.2735 28.3472 17.4667 28.3472C17.6599 28.3472 17.8574 28.2736 18.0048 28.1262C18.2997 27.8312 18.285 27.3532 17.9901 27.0583L15.7763 24.8592V21.2652C15.7763 21.2652 17.1585 22.5635 17.3766 22.7729C17.5948 22.9823 17.7735 23.1001 18.0335 23.1001C18.035 23.1001 18.0365 23.1001 18.0381 23.1001C18.4551 23.1001 18.7911 22.7372 18.7886 22.3203L18.7578 19.9348L21.2126 22.4063V25.5161C21.2126 25.9331 21.5505 26.2711 21.9676 26.2711C22.3847 26.2711 22.7226 25.9331 22.7226 25.5161V23.9163L24.5412 25.718C24.6887 25.8654 24.8902 25.9391 25.0835 25.9391C25.2767 25.9391 25.4741 25.8654 25.6216 25.718C25.9164 25.423 25.9186 24.9451 25.6237 24.6502L23.874 22.8986H25.3735C25.7906 22.8986 26.1286 22.5607 26.1286 22.1436C26.1286 21.7265 25.7906 21.3885 25.3735 21.3885H22.3641L19.7726 18.7971L22.094 18.7134C22.1022 18.7131 22.1103 18.7118 22.1184 18.7113C22.1214 18.7111 22.1245 18.7108 22.1275 18.7105C22.5278 18.6784 22.8359 18.3371 22.8213 17.9317C22.8125 17.6877 22.6884 17.4756 22.5037 17.3441L21.1089 15.9523H24.6158L26.7646 18.1012C26.9121 18.2487 27.1053 18.3224 27.2986 18.3224C27.4917 18.3224 27.685 18.2487 27.8324 18.1013C28.1274 17.8065 28.1274 17.3284 27.8325 17.0336L26.7513 15.9524H29.199C29.6161 15.9524 29.9541 15.6145 29.9541 15.1974C29.9541 14.7803 29.6161 14.4422 29.199 14.4422ZM20.269 12.9305L18.8624 14.4422H16.8986L18.4089 12.932L20.269 12.9305ZM17.19 9.94063L17.2258 11.9543L15.7762 13.3954V11.2872L17.19 9.94063ZM12.8664 9.94878L14.2662 11.29V13.3241L12.8643 11.9139L12.8664 9.94878ZM9.80593 13.0272L11.7954 12.9555L13.2821 14.4422H11.2386L9.80593 13.0272ZM9.84459 17.3594L11.1537 15.9523H13.2528L11.8594 17.3457L9.84459 17.3594ZM12.9268 20.5931L12.8409 18.4748L14.2662 17.0412V19.2161L12.9268 20.5931ZM17.2513 20.5594L15.7762 19.2026V16.9698L17.2301 18.4153L17.2513 20.5594ZM20.2887 17.2675L18.3142 17.3385L16.9279 15.9523H18.9707L20.2887 17.2675Z" fill="#5482FF"/>
</g>
<defs>
<clipPath id="clip0_344_6">
<rect width="30" height="30" fill="white" transform="translate(0.0546875 0.297943)"/>
</clipPath>
</defs>
</svg>
