<svg width="21" height="22" viewBox="0 0 21 22" fill="none" xmlns="http://www.w3.org/2000/svg">
<path d="M16.9416 10.5355C16.9416 6.81444 14.0519 3.78711 10.5 3.78711C6.94805 3.78711 4.05841 6.81444 4.05841 10.5355C4.05841 12.8174 5.17051 14.9502 6.98373 16.1905V18.3165C6.98373 20.3476 8.56107 22 10.4999 22C12.4387 22 14.016 20.3476 14.016 18.3165V17.1224C14.016 17.1221 14.016 16.1905 14.016 16.1905C15.8294 14.9502 16.9416 12.8174 16.9416 10.5355ZM12.7743 18.3165C12.7743 19.6303 11.7541 20.6991 10.5 20.6991C9.24587 20.6991 8.22561 19.6303 8.22561 18.3165V17.7728H12.7743V18.3165ZM13.0859 15.2626C12.8932 15.3786 12.7743 15.5937 12.7743 15.8266V16.4719H11.1208V13.1083C11.927 12.8336 12.5116 12.0392 12.5116 11.1041C12.5116 10.7449 12.2336 10.4536 11.8907 10.4536C11.5478 10.4536 11.2698 10.7449 11.2698 11.1041C11.2698 11.5488 10.9244 11.9106 10.5 11.9106C10.0755 11.9106 9.7301 11.5488 9.7301 11.1041C9.7301 10.7449 9.4521 10.4536 9.10921 10.4536C8.76632 10.4536 8.48831 10.7449 8.48831 11.1041C8.48831 12.0391 9.07283 12.8336 9.87907 13.1083V16.4719H8.22569V15.8266C8.22569 15.5937 8.10687 15.3786 7.91409 15.2626C6.30181 14.2922 5.30028 12.4809 5.30028 10.5355C5.30028 7.53176 7.63289 5.08803 10.5001 5.08803C13.3673 5.08803 15.6999 7.53171 15.6999 10.5355C15.6998 12.481 14.6982 14.2923 13.0859 15.2626Z" fill="#D6DDEA"/>
<path d="M10.5 0C10.1571 0 9.87909 0.291243 9.87909 0.650462V1.79236C9.87909 2.15158 10.1571 2.44282 10.5 2.44282C10.8429 2.44282 11.1209 2.15158 11.1209 1.79236V0.650462C11.1209 0.291243 10.8429 0 10.5 0Z" fill="#D6DDEA"/>
<path d="M8.75348 1.95921L8.36809 0.891007C8.24685 0.55499 7.88842 0.385564 7.5678 0.512537C7.24705 0.639553 7.08529 1.01493 7.20653 1.35095L7.59187 2.41915C7.6858 2.67946 7.92197 2.83981 8.17278 2.83981C8.2457 2.83981 8.31994 2.82624 8.39221 2.79762C8.71295 2.6706 8.87472 2.29523 8.75348 1.95921Z" fill="#D6DDEA"/>
<path d="M13.4322 0.512536C13.1114 0.385477 12.7531 0.555032 12.6319 0.891048L12.2465 1.95925C12.1253 2.29523 12.2871 2.6706 12.6078 2.79762C12.6801 2.82624 12.7543 2.83981 12.8272 2.83981C13.078 2.83981 13.3142 2.67945 13.4081 2.41915L13.7935 1.35094C13.9147 1.01488 13.753 0.639552 13.4322 0.512536Z" fill="#D6DDEA"/>
</svg>
