<svg width="21" height="21" viewBox="0 0 21 21" fill="none" xmlns="http://www.w3.org/2000/svg">
<rect x="0.45752" y="0.675964" width="20.0752" height="20.0752" rx="4" fill="#045EA1"/>
<path fill-rule="evenodd" clip-rule="evenodd" d="M10.6489 12.3738C10.854 12.1769 11.1866 12.1769 11.3917 12.3738L13.6462 14.5382L15.9008 12.3738C16.1059 12.1769 16.4384 12.1769 16.6435 12.3738C16.8486 12.5706 16.8486 12.8899 16.6435 13.0868L14.0176 15.6077C13.8125 15.8046 13.48 15.8046 13.2749 15.6077L10.6489 13.0868C10.4438 12.8899 10.4438 12.5706 10.6489 12.3738Z" fill="white"/>
<path fill-rule="evenodd" clip-rule="evenodd" d="M13.6463 8.69684C13.9363 8.69684 14.1715 8.92256 14.1715 9.20102V15.2512C14.1715 15.5296 13.9363 15.7554 13.6463 15.7554C13.3562 15.7554 13.1211 15.5296 13.1211 15.2512V9.20102C13.1211 8.92256 13.3562 8.69684 13.6463 8.69684Z" fill="white"/>
<path fill-rule="evenodd" clip-rule="evenodd" d="M4.19287 10.2094C4.19287 9.93092 4.42801 9.7052 4.71806 9.7052H9.44475C9.73481 9.7052 9.96994 9.93092 9.96994 10.2094C9.96994 10.4878 9.73481 10.7136 9.44475 10.7136H4.71806C4.42801 10.7136 4.19287 10.4878 4.19287 10.2094Z" fill="white"/>
<path fill-rule="evenodd" clip-rule="evenodd" d="M4.19287 6.17593C4.19287 5.89748 4.42801 5.67175 4.71806 5.67175H13.6463C13.9363 5.67175 14.1714 5.89748 14.1714 6.17593C14.1714 6.45438 13.9363 6.68011 13.6463 6.68011H4.71806C4.42801 6.68011 4.19287 6.45438 4.19287 6.17593Z" fill="white"/>
<path fill-rule="evenodd" clip-rule="evenodd" d="M4.19287 14.2428C4.19287 13.9644 4.42801 13.7386 4.71806 13.7386H8.39438C8.68444 13.7386 8.91957 13.9644 8.91957 14.2428C8.91957 14.5213 8.68444 14.747 8.39438 14.747H4.71806C4.42801 14.747 4.19287 14.5213 4.19287 14.2428Z" fill="white"/>
</svg>
