<svg width="17" height="17" viewBox="0 0 17 17" fill="none" xmlns="http://www.w3.org/2000/svg">
<g clip-path="url(#clip0_454_1028)">
<path d="M15.4421 1.12842H8.18858C7.64193 1.12842 7.19946 1.57154 7.19946 2.11754C7.19946 2.66353 7.64193 3.10666 8.18858 3.10666H15.4421C15.9888 3.10666 16.4312 2.66353 16.4312 2.11754C16.4312 1.57154 15.9888 1.12842 15.4421 1.12842Z" fill="white"/>
<path d="M12.8045 5.0849H8.18858C7.64193 5.0849 7.19946 5.52803 7.19946 6.07402C7.19946 6.62001 7.64193 7.06314 8.18858 7.06314H12.8045C13.3511 7.06314 13.7936 6.62001 13.7936 6.07402C13.7936 5.52803 13.3511 5.0849 12.8045 5.0849Z" fill="white"/>
<path d="M10.1668 9.04138H8.18858C7.64193 9.04138 7.19946 9.48451 7.19946 10.0305C7.19946 10.5765 7.64193 11.0196 8.18858 11.0196H10.1668C10.7135 11.0196 11.1559 10.5765 11.1559 10.0305C11.1559 9.48451 10.7135 9.04138 10.1668 9.04138Z" fill="white"/>
<path d="M6.65337 12.6114H5.22113V1.45811C5.22113 0.91212 4.77866 0.468994 4.23201 0.468994C3.68535 0.468994 3.24289 0.91212 3.24289 1.45811V12.6114H1.92406C1.56007 12.6114 1.26465 12.9068 1.26465 13.2708C1.26465 13.4456 1.33389 13.6131 1.45786 13.737L3.82251 16.1017C4.08034 16.3589 4.49775 16.3589 4.75492 16.1017L7.11957 13.737C7.37675 13.4792 7.37675 13.0618 7.11957 12.8046C6.99626 12.6813 6.82811 12.6114 6.65337 12.6114Z" fill="white"/>
</g>
<defs>
<clipPath id="clip0_454_1028">
<rect width="15.8259" height="15.8259" fill="white" transform="translate(0.605225 0.468994)"/>
</clipPath>
</defs>
</svg>
