<svg width="19" height="19" viewBox="0 0 19 19" fill="none" xmlns="http://www.w3.org/2000/svg">
<path fill-rule="evenodd" clip-rule="evenodd" d="M17.8536 0.285324L11.8062 0.524113C11.4351 0.538766 11.1461 0.851481 11.1608 1.22258C11.1754 1.59368 11.4881 1.88264 11.8592 1.86799L16.2845 1.69325L10.3177 8.1506H0.331299V10.484H10.1441L16.2845 17.1292L11.8592 16.9544C11.4881 16.9398 11.1754 17.2287 11.1608 17.5998C11.1461 17.9709 11.4351 18.2836 11.8062 18.2983L17.8536 18.5371C18.2247 18.5517 18.5374 18.2628 18.5521 17.8917L18.7909 11.8443C18.8055 11.4732 18.5166 11.1604 18.1455 11.1458C17.7744 11.1311 17.4616 11.4201 17.447 11.7912L17.2723 16.2164L10.984 9.41121L17.2723 2.60599L17.447 7.03122C17.4616 7.40232 17.7744 7.69127 18.1455 7.67662C18.5166 7.66197 18.8055 7.34925 18.7909 6.97815L18.5521 0.930727C18.5374 0.559627 18.2247 0.27067 17.8536 0.285324Z" fill="white"/>
</svg>
