<svg width="18" height="22" viewBox="0 0 18 22" fill="none" xmlns="http://www.w3.org/2000/svg">
<path d="M11.5415 16.5133C11.5415 15.3207 10.5713 14.3496 9.37781 14.3496H8.51233C7.31884 14.3496 6.34863 15.3207 6.34863 16.5133V19.1097C6.34863 20.3024 7.31884 21.2734 8.51233 21.2734H9.37781C9.66861 21.2734 9.94556 21.2137 10.1992 21.1099C10.3446 21.2085 10.5064 21.2734 10.676 21.2734C10.8976 21.2734 11.1192 21.1886 11.2879 21.0199C11.5865 20.7213 11.6056 20.2678 11.3779 19.9311C11.4818 19.6775 11.5415 19.4005 11.5415 19.1097V16.5133ZM8.07959 19.1097V16.5133C8.07959 16.2744 8.27432 16.0806 8.51233 16.0806H9.37781C9.61582 16.0806 9.81055 16.2744 9.81055 16.5133V18.3784C9.47907 18.1828 9.05066 18.2122 8.76592 18.4979C8.48117 18.7835 8.45088 19.211 8.64648 19.5425H8.51233C8.27432 19.5425 8.07959 19.3486 8.07959 19.1097Z" fill="white"/>
<path d="M16.7344 21.2734H14.1379C13.6593 21.2734 13.2725 20.8857 13.2725 20.408V15.2151C13.2725 14.7373 13.6593 14.3496 14.1379 14.3496C14.6166 14.3496 15.0034 14.7373 15.0034 15.2151V19.5425H16.7344C17.213 19.5425 17.5999 19.9302 17.5999 20.408C17.5999 20.8857 17.213 21.2734 16.7344 21.2734Z" fill="white"/>
<path d="M2.45398 21.2734H1.15576C0.677152 21.2734 0.290283 20.8857 0.290283 20.408C0.290283 19.9302 0.677152 19.5425 1.15576 19.5425H2.45398C2.69199 19.5425 2.88672 19.3486 2.88672 19.1097C2.88672 18.8709 2.69199 18.677 2.45398 18.677C1.26049 18.677 0.290283 17.7059 0.290283 16.5133C0.290283 15.3207 1.26049 14.3496 2.45398 14.3496H3.7522C4.23081 14.3496 4.61768 14.7373 4.61768 15.2151C4.61768 15.6928 4.23081 16.0806 3.7522 16.0806H2.45398C2.21597 16.0806 2.02124 16.2744 2.02124 16.5133C2.02124 16.7522 2.21597 16.946 2.45398 16.946C3.64748 16.946 4.61768 17.9171 4.61768 19.1097C4.61768 20.3024 3.64748 21.2734 2.45398 21.2734Z" fill="white"/>
<path d="M15.0034 9.58948V12.7744C14.7351 12.6706 14.4409 12.6187 14.1379 12.6187C13.2811 12.6187 12.5195 13.0427 12.0435 13.6918C11.3511 13.0341 10.4164 12.6187 9.37781 12.6187H8.51233C7.47376 12.6187 6.53904 13.0341 5.84666 13.6918C5.37064 13.0427 4.60902 12.6187 3.7522 12.6187H2.88672V9.58948C2.88672 11.6926 8.32193 11.7532 8.94507 11.7532C9.56822 11.7532 15.0034 11.6926 15.0034 9.58948Z" fill="white"/>
<path d="M15.0034 7.85852C15.0034 9.96164 9.56476 10.0222 8.94507 10.0222C8.32539 10.0222 2.88672 9.96164 2.88672 7.85852V4.39661C2.88672 6.49972 8.32539 6.5603 8.94507 6.5603C9.56476 6.5603 15.0034 6.49972 15.0034 4.39661V7.85852Z" fill="white"/>
<path d="M8.94507 0.501953C8.32193 0.501953 2.88672 0.562537 2.88672 2.66565C2.88672 4.76877 8.32193 4.82935 8.94507 4.82935C9.56822 4.82935 15.0034 4.76877 15.0034 2.66565C15.0034 0.562537 9.56822 0.501953 8.94507 0.501953Z" fill="white"/>
</svg>
