<svg width="19" height="19" viewBox="0 0 19 19" fill="none" xmlns="http://www.w3.org/2000/svg">
<path fill-rule="evenodd" clip-rule="evenodd" d="M10.4556 0.288368C9.73135 -0.068209 8.88004 -0.0682098 8.15576 0.288368L0.941778 3.84015C0.00443642 4.30164 0.00443061 5.63142 0.941778 6.09292L8.15576 9.64465C8.88004 10.0013 9.73135 10.0013 10.4556 9.64473L17.6696 6.09292C18.607 5.63143 18.607 4.30165 17.6696 3.84015L10.4556 0.288368ZM0.983164 7.94106C1.09795 7.88451 1.23247 7.88451 1.34725 7.94106L8.15576 11.2932C8.88004 11.6498 9.73135 11.6498 10.4556 11.2932L17.2641 7.94106C17.3789 7.88451 17.5134 7.88451 17.6282 7.94106L17.6696 7.96142C18.607 8.42292 18.607 9.75271 17.6696 10.2142L10.4556 13.766C9.73135 14.1226 8.88004 14.1226 8.15576 13.766L0.941778 10.2142C0.00443061 9.75271 0.00443642 8.42292 0.941778 7.96142L0.983164 7.94106ZM1.34725 12.0625C1.23247 12.0059 1.09795 12.0059 0.983164 12.0625L0.941778 12.0828C0.00443642 12.5443 0.00443061 13.8741 0.941778 14.3356L8.15576 17.8874C8.88004 18.244 9.73135 18.244 10.4556 17.8874L17.6696 14.3356C18.607 13.8741 18.607 12.5443 17.6696 12.0828L17.6282 12.0625C17.5134 12.0059 17.3789 12.0059 17.2641 12.0625L10.4556 15.4146C9.73135 15.7712 8.88004 15.7712 8.15576 15.4146L1.34725 12.0625Z" fill="white"/>
</svg>
