<svg width="26" height="26" viewBox="0 0 26 26" fill="none" xmlns="http://www.w3.org/2000/svg">
<path d="M21.2165 0.752101C19.7246 0.752101 18.5013 1.98142 18.5013 3.48064V23.948H15.7849V8.93903C15.7849 7.43981 14.5617 6.21049 13.0698 6.21049C11.578 6.21049 10.3547 7.43981 10.3547 8.93903V23.948H7.63827V14.3974C7.63827 12.8982 6.415 11.6676 4.92314 11.6676C3.43129 11.6676 2.20801 12.8982 2.20801 14.3974V23.948H1.52828C1.15406 23.948 0.849827 24.2537 0.849827 24.631C0.849827 24.8114 0.92111 24.9854 1.0484 25.1133C1.1757 25.2413 1.34882 25.3129 1.52831 25.3129H24.6115C24.791 25.3129 24.9641 25.2412 25.0914 25.1133C25.2187 24.9854 25.29 24.8114 25.29 24.631C25.29 24.4494 25.2187 24.2767 25.0914 24.1488C24.9641 24.0208 24.791 23.9479 24.6115 23.9479H23.9318V3.48061C23.9318 1.98139 22.7083 0.752101 21.2165 0.752101Z" fill="white"/>
</svg>
