<svg width="21" height="23" viewBox="0 0 21 23" fill="none" xmlns="http://www.w3.org/2000/svg">
<path d="M2.76703 13.3224H4.49882V17.2083L4.20899 16.8075C3.98751 16.5008 3.64326 16.3178 3.26526 16.3051C2.88895 16.295 2.5312 16.4523 2.28904 16.7434C1.96842 17.1299 1.91948 17.6825 2.1667 18.1192L3.65043 20.736C4.14571 21.6093 5.07679 22.1519 6.08085 22.1519H8.45221C9.9929 22.1519 11.2463 20.8985 11.2463 19.3582V17.4501C11.2463 17.4471 11.2446 17.4446 11.2446 17.442V15.7685C11.2446 15.5238 11.1657 15.2812 11.0248 15.0893C10.8084 14.788 10.4582 14.6079 10.0882 14.6079C9.91781 14.6079 9.75749 14.6467 9.61153 14.7129C9.41071 14.3666 9.03989 14.1303 8.61126 14.1303C8.42943 14.1303 8.25942 14.1763 8.10585 14.251C7.89871 13.9329 7.54139 13.7211 7.13428 13.7211C7.02375 13.7211 6.91912 13.7418 6.81787 13.7705V13.3224H9.23226C9.26854 13.4595 9.32507 13.5916 9.41367 13.7097C9.62629 13.9924 9.95071 14.1548 10.3042 14.1548H12.6094C12.7406 15.3837 13.783 16.3439 15.0461 16.3439C16.3088 16.3439 17.3512 15.3837 17.4824 14.1548H19.7876C20.1415 14.1548 20.466 13.9924 20.6786 13.7093C20.8908 13.4266 20.9562 13.0693 20.8574 12.7293L20.8283 12.6285C20.695 12.1682 20.4048 11.7843 20.0293 11.5202V7.59591C20.0293 6.26236 19.5104 5.0115 18.5696 4.07578C18.1013 3.60328 17.5339 3.23667 16.9226 2.98988V2.7241C16.9226 2.22206 16.7264 1.74914 16.3708 1.39392C16.0185 1.04166 15.5482 0.847595 15.0457 0.847595C14.0108 0.847595 13.1692 1.68966 13.1692 2.7241V2.98524C11.2982 3.74124 10.0604 5.5553 10.0604 7.59591V7.97686H2.76703C2.05828 7.97686 1.38792 8.25403 0.876605 8.76028C0.373729 9.26906 0.0965576 9.939 0.0965576 10.6478C0.0965576 12.1226 1.29468 13.3224 2.76703 13.3224ZM7.13554 14.5649C7.30725 14.5649 7.45195 14.71 7.45195 14.8813V15.2909V17.4496C7.45195 17.6829 7.64095 17.8715 7.87382 17.8715C8.1067 17.8715 8.2957 17.6829 8.2957 17.4496V15.2909C8.2957 15.1163 8.43745 14.9741 8.6121 14.9741C8.78381 14.9741 8.92851 15.1192 8.92851 15.2909V15.7685V17.4496C8.92851 17.6829 9.11751 17.8715 9.35039 17.8715C9.58326 17.8715 9.77226 17.6829 9.77226 17.4496V15.7685C9.77226 15.5938 9.91401 15.4516 10.0887 15.4516C10.1878 15.4516 10.2819 15.4997 10.3422 15.5841C10.3802 15.636 10.4013 15.7014 10.4013 15.7685V17.4496C10.4013 17.4526 10.403 17.4551 10.403 17.4577V19.3582C10.403 20.4336 9.528 21.3081 8.45264 21.3081H6.08128C5.38054 21.3081 4.73043 20.9297 4.38492 20.3197L2.90118 17.7028C2.82525 17.5695 2.84043 17.4003 2.93831 17.2822C3.01256 17.1931 3.12393 17.1472 3.237 17.1484C3.35259 17.1522 3.45764 17.2083 3.52556 17.302L4.57898 18.7596C4.68614 18.9076 4.87767 18.9713 5.05064 18.9135C5.22487 18.8574 5.34257 18.695 5.34257 18.5123V12.9098C5.34257 12.9065 5.34426 12.9039 5.34426 12.9006C5.34426 12.8972 5.34257 12.8947 5.34257 12.8913V11.4637C5.34257 11.2894 5.48432 11.1473 5.65898 11.1473C5.83364 11.1473 5.97496 11.289 5.97496 11.4637V12.8913C5.97496 12.8947 5.97328 12.8972 5.97328 12.9006C5.97328 12.9039 5.97496 12.9065 5.97496 12.9098V14.8813V17.4496C5.97496 17.6829 6.16396 17.8719 6.39684 17.8719C6.62971 17.8719 6.81871 17.6834 6.81871 17.4501V14.8813C6.81871 14.707 6.96089 14.5649 7.13554 14.5649ZM15.047 15.5002C14.2496 15.5002 13.586 14.9167 13.4607 14.1548H16.6328C16.5075 14.9171 15.8443 15.5002 15.047 15.5002ZM20.0048 13.203C19.9745 13.2435 19.9061 13.311 19.7884 13.311H17.0758H13.0173H10.3051C10.1878 13.311 10.1195 13.2435 10.0891 13.203C10.0587 13.1625 10.0127 13.0778 10.0452 12.9651C10.2401 12.2922 10.7265 11.9838 11.2454 11.9838H18.8481C19.3872 11.9838 19.8686 12.3454 20.0183 12.8643C20.0584 12.998 20.0934 13.0845 20.0048 13.203ZM15.047 1.69135C15.3237 1.69135 15.5827 1.79766 15.7755 1.99088C15.9721 2.18705 16.0801 2.44735 16.0801 2.7241V2.72663C15.4013 2.58277 14.6909 2.58319 14.0146 2.72705V2.7241C14.0142 2.15499 14.4779 1.69135 15.047 1.69135ZM13.7294 3.67542C14.5732 3.38644 15.5186 3.38517 16.3708 3.67669C16.9707 3.87539 17.5242 4.2188 17.9739 4.67231C18.7561 5.45025 19.1868 6.48891 19.1868 7.59633V11.1683C19.0763 11.1498 18.9632 11.1401 18.8485 11.1401H11.2459C11.1307 11.1401 11.0168 11.1502 10.9054 11.1692V7.59633C10.9054 5.81517 12.039 4.24031 13.7294 3.67542ZM1.47356 9.35681C1.82287 9.0113 2.28229 8.82061 2.76703 8.82061H10.0617V11.521C9.72965 11.7552 9.4702 12.0859 9.3217 12.4783H6.81871V11.4632C6.81871 10.8237 6.29854 10.3031 5.65898 10.3031C5.01942 10.3031 4.49882 10.8233 4.49882 11.4632V12.4783H2.76703C1.75959 12.4783 0.940308 11.6569 0.940308 10.6473C0.940308 10.163 1.131 9.7036 1.47356 9.35681Z" fill="#D6DDEA"/>
</svg>
