<svg width="21" height="21" viewBox="0 0 21 21" fill="none" xmlns="http://www.w3.org/2000/svg">
<rect x="0.491211" y="0.588562" width="20.0752" height="20.0752" rx="4" fill="#DC5644"/>
<g clip-path="url(#clip0_655_11)">
<path d="M9.54443 14.8449H7.13818C7.08017 14.8449 7.02453 14.868 6.9835 14.909C6.94248 14.95 6.91943 15.0056 6.91943 15.0637C6.91943 15.1217 6.94248 15.1773 6.9835 15.2183C7.02453 15.2594 7.08017 15.2824 7.13818 15.2824H9.54443C9.60245 15.2824 9.65809 15.2594 9.69911 15.2183C9.74014 15.1773 9.76318 15.1217 9.76318 15.0637C9.76318 15.0056 9.74014 14.95 9.69911 14.909C9.65809 14.868 9.60245 14.8449 9.54443 14.8449Z" fill="white"/>
<path d="M9.54443 15.7199H7.13818C7.08017 15.7199 7.02453 15.743 6.9835 15.784C6.94248 15.825 6.91943 15.8806 6.91943 15.9387C6.91943 15.9967 6.94248 16.0523 6.9835 16.0933C7.02453 16.1344 7.08017 16.1574 7.13818 16.1574H9.54443C9.60245 16.1574 9.65809 16.1344 9.69911 16.0933C9.74014 16.0523 9.76318 15.9967 9.76318 15.9387C9.76318 15.8806 9.74014 15.825 9.69911 15.784C9.65809 15.743 9.60245 15.7199 9.54443 15.7199Z" fill="white"/>
<path d="M7.13818 6.75116H9.54443C9.60245 6.75116 9.65809 6.72811 9.69911 6.68709C9.74014 6.64607 9.76318 6.59043 9.76318 6.53241C9.76318 6.47439 9.74014 6.41875 9.69911 6.37773C9.65809 6.33671 9.60245 6.31366 9.54443 6.31366H7.13818C7.08017 6.31366 7.02453 6.33671 6.9835 6.37773C6.94248 6.41875 6.91943 6.47439 6.91943 6.53241C6.91943 6.59043 6.94248 6.64607 6.9835 6.68709C7.02453 6.72811 7.08017 6.75116 7.13818 6.75116Z" fill="white"/>
<path d="M9.54462 13.9699H7.84766L7.41016 14.4074H9.54462C9.60264 14.4074 9.65828 14.3844 9.6993 14.3433C9.74033 14.3023 9.76337 14.2467 9.76337 14.1887C9.76337 14.1306 9.74033 14.075 9.6993 14.034C9.65828 13.993 9.60264 13.9699 9.54462 13.9699Z" fill="white"/>
<path d="M9.98193 11.7824H8.56006V12.2199H9.98193C10.0399 12.22 10.0955 12.243 10.1365 12.2841C10.1775 12.3251 10.2006 12.3807 10.2007 12.4387V13.0949H8.53629C8.49961 13.2535 8.41903 13.3986 8.30376 13.5136L8.28497 13.5324H10.2007V16.5949H9.54443C9.42844 16.595 9.31723 16.6412 9.23521 16.7232C9.15319 16.8052 9.10706 16.9164 9.10693 17.0324V17.6887H6.70068C6.64269 17.6886 6.58709 17.6655 6.54608 17.6245C6.50507 17.5835 6.482 17.5279 6.48193 17.4699V14.7355H6.04443V17.4699C6.04462 17.6439 6.11382 17.8107 6.23685 17.9337C6.35988 18.0568 6.52669 18.126 6.70068 18.1262H9.23505C9.29254 18.1263 9.34948 18.1151 9.40259 18.0931C9.45569 18.0711 9.50391 18.0388 9.54443 17.998L10.51 17.0324C10.5508 16.9919 10.5831 16.9437 10.6051 16.8906C10.6271 16.8375 10.6383 16.7806 10.6382 16.7231V12.4387C10.638 12.2647 10.5688 12.0979 10.4458 11.9748C10.3227 11.8518 10.1559 11.7826 9.98193 11.7824ZM9.54443 17.3793V17.0324H9.89134L9.54443 17.3793Z" fill="white"/>
<path d="M6.48193 5.87616H10.2007V8.93866H9.54443C9.42844 8.93878 9.31723 8.98492 9.23521 9.06694C9.15319 9.14896 9.10706 9.26017 9.10693 9.37616V10.0324H8.56006V10.4699H9.23505C9.29254 10.4701 9.34948 10.4588 9.40259 10.4368C9.45569 10.4148 9.50391 10.3825 9.54443 10.3417L10.51 9.37616C10.5508 9.33564 10.5831 9.28744 10.6051 9.23434C10.6271 9.18124 10.6383 9.12431 10.6382 9.06683V4.78241C10.638 4.60842 10.5688 4.44161 10.4458 4.31858C10.3227 4.19555 10.1559 4.12635 9.98193 4.12616H6.70068C6.52669 4.12635 6.35988 4.19555 6.23685 4.31858C6.11382 4.44161 6.04462 4.60842 6.04443 4.78241V7.51678H6.48193V5.87616ZM9.54443 9.72305V9.37616H9.89134L9.54443 9.72305ZM6.48193 4.78241C6.482 4.72441 6.50507 4.66881 6.54608 4.6278C6.58709 4.58679 6.64269 4.56373 6.70068 4.56366H9.98193C10.0399 4.56373 10.0955 4.58679 10.1365 4.6278C10.1775 4.66881 10.2006 4.72441 10.2007 4.78241V5.43866H6.48193V4.78241Z" fill="white"/>
<path d="M6.94978 7.51678H7.46631C7.63041 7.51696 7.79234 7.55436 7.9399 7.62616H9.54443C9.60245 7.62616 9.65809 7.60311 9.69911 7.56209C9.74014 7.52107 9.76318 7.46543 9.76318 7.40741C9.76318 7.34939 9.74014 7.29375 9.69911 7.25273C9.65809 7.21171 9.60245 7.18866 9.54443 7.18866H7.13818C7.08017 7.18866 7.02453 7.21171 6.98351 7.25273C6.94248 7.29376 6.91944 7.34939 6.91943 7.40741C6.91964 7.44592 6.93012 7.48367 6.94978 7.51678Z" fill="white"/>
<path d="M9.54448 8.50116C9.60249 8.50116 9.65813 8.47811 9.69916 8.43709C9.74018 8.39607 9.76323 8.34043 9.76323 8.28241C9.76323 8.22439 9.74018 8.16875 9.69916 8.12773C9.65813 8.08671 9.60249 8.06366 9.54448 8.06366H8.41211C8.49034 8.19762 8.53892 8.34681 8.55456 8.50116H9.54448Z" fill="white"/>
<path d="M7.02881 14.1699L7.99439 13.2043C8.03515 13.1638 8.06746 13.1156 8.08946 13.0625C8.11147 13.0094 8.12271 12.9524 8.12256 12.895V8.61053C8.12237 8.43654 8.05317 8.26974 7.93014 8.14671C7.80711 8.02368 7.6403 7.95447 7.46631 7.95428H4.18506C4.01107 7.95447 3.84426 8.02368 3.72123 8.14671C3.5982 8.26974 3.529 8.43654 3.52881 8.61053V13.6418C3.529 13.8158 3.5982 13.9826 3.72123 14.1056C3.84426 14.2286 4.01107 14.2978 4.18506 14.298H6.71943C6.77691 14.2982 6.83386 14.2869 6.88696 14.2649C6.94007 14.2429 6.98828 14.2106 7.02881 14.1699ZM7.02881 13.5512V13.2043H7.37571L7.02881 13.5512ZM3.96631 8.61053C3.96637 8.55254 3.98944 8.49694 4.03045 8.45593C4.07146 8.41492 4.12706 8.39185 4.18506 8.39178H7.46631C7.5243 8.39185 7.57991 8.41492 7.62092 8.45593C7.66192 8.49694 7.68499 8.55254 7.68506 8.61053V9.26678H3.96631V8.61053ZM6.59131 13.8605H4.18506C4.12706 13.8605 4.07146 13.8374 4.03045 13.7964C3.98944 13.7554 3.96637 13.6998 3.96631 13.6418V9.70428H7.68506V12.7668H7.02881C6.91281 12.7669 6.80161 12.813 6.71959 12.8951C6.63757 12.9771 6.59143 13.0883 6.59131 13.2043V13.8605Z" fill="white"/>
<path d="M4.62256 10.5793H7.02881C7.08682 10.5793 7.14246 10.5562 7.18349 10.5152C7.22451 10.4742 7.24756 10.4186 7.24756 10.3605C7.24756 10.3025 7.22451 10.2469 7.18349 10.2059C7.14246 10.1648 7.08682 10.1418 7.02881 10.1418H4.62256C4.56454 10.1418 4.5089 10.1648 4.46788 10.2059C4.42686 10.2469 4.40381 10.3025 4.40381 10.3605C4.40381 10.4186 4.42686 10.4742 4.46788 10.5152C4.5089 10.5562 4.56454 10.5793 4.62256 10.5793Z" fill="white"/>
<path d="M4.62256 11.4543H7.02881C7.08682 11.4543 7.14246 11.4312 7.18349 11.3902C7.22451 11.3492 7.24756 11.2936 7.24756 11.2355C7.24756 11.1775 7.22451 11.1219 7.18349 11.0809C7.14246 11.0398 7.08682 11.0168 7.02881 11.0168H4.62256C4.56454 11.0168 4.5089 11.0398 4.46788 11.0809C4.42686 11.1219 4.40381 11.1775 4.40381 11.2355C4.40381 11.2936 4.42686 11.3492 4.46788 11.3902C4.5089 11.4312 4.56454 11.4543 4.62256 11.4543Z" fill="white"/>
<path d="M7.24756 12.1105C7.24756 12.0525 7.22451 11.9969 7.18349 11.9559C7.14246 11.9148 7.08682 11.8918 7.02881 11.8918H4.62256C4.56454 11.8918 4.5089 11.9148 4.46788 11.9559C4.42686 11.9969 4.40381 12.0525 4.40381 12.1105C4.40381 12.1686 4.42686 12.2242 4.46788 12.2652C4.5089 12.3062 4.56454 12.3293 4.62256 12.3293H7.02881C7.08682 12.3293 7.14246 12.3062 7.18349 12.2652C7.22451 12.2242 7.24756 12.1685 7.24756 12.1105Z" fill="white"/>
<path d="M16.8726 7.95428H13.5913C13.4173 7.95447 13.2505 8.02368 13.1275 8.14671C13.0044 8.26974 12.9352 8.43654 12.9351 8.61053V13.6418C12.9352 13.8158 13.0044 13.9826 13.1275 14.1056C13.2505 14.2286 13.4173 14.2978 13.5913 14.298H16.1257C16.1832 14.2982 16.2401 14.2869 16.2932 14.2649C16.3463 14.2429 16.3945 14.2106 16.4351 14.1699L17.4006 13.2043C17.4414 13.1638 17.4737 13.1156 17.4957 13.0625C17.5177 13.0094 17.529 12.9524 17.5288 12.895V8.61053C17.5286 8.43654 17.4594 8.26974 17.3364 8.14671C17.2134 8.02368 17.0465 7.95447 16.8726 7.95428ZM16.4351 13.5512V13.2043H16.782L16.4351 13.5512ZM17.0913 12.7668H16.4351C16.3191 12.7669 16.2079 12.813 16.1258 12.8951C16.0438 12.9771 15.9977 13.0883 15.9976 13.2043V13.8605H13.5913C13.5333 13.8605 13.4777 13.8374 13.4367 13.7964C13.3957 13.7554 13.3726 13.6998 13.3726 13.6418V9.70428H17.0913V12.7668ZM17.0913 9.26678H13.3726V8.61053C13.3726 8.55254 13.3957 8.49694 13.4367 8.45593C13.4777 8.41492 13.5333 8.39185 13.5913 8.39178H16.8726C16.9306 8.39185 16.9862 8.41492 17.0272 8.45593C17.0682 8.49694 17.0912 8.55254 17.0913 8.61053V9.26678Z" fill="white"/>
<path d="M14.0288 10.5793H16.4351C16.4931 10.5793 16.5487 10.5562 16.5897 10.5152C16.6308 10.4742 16.6538 10.4186 16.6538 10.3605C16.6538 10.3025 16.6308 10.2469 16.5897 10.2059C16.5487 10.1648 16.4931 10.1418 16.4351 10.1418H14.0288C13.9708 10.1418 13.9152 10.1648 13.8741 10.2059C13.8331 10.2469 13.8101 10.3025 13.8101 10.3605C13.8101 10.4186 13.8331 10.4742 13.8741 10.5152C13.9152 10.5562 13.9708 10.5793 14.0288 10.5793Z" fill="white"/>
<path d="M14.0288 11.4543H16.4351C16.4931 11.4543 16.5487 11.4312 16.5897 11.3902C16.6308 11.3492 16.6538 11.2936 16.6538 11.2355C16.6538 11.1775 16.6308 11.1219 16.5897 11.0809C16.5487 11.0398 16.4931 11.0168 16.4351 11.0168H14.0288C13.9708 11.0168 13.9152 11.0398 13.8741 11.0809C13.8331 11.1219 13.8101 11.1775 13.8101 11.2355C13.8101 11.2936 13.8331 11.3492 13.8741 11.3902C13.9152 11.4312 13.9708 11.4543 14.0288 11.4543Z" fill="white"/>
<path d="M14.0288 12.3293H16.4351C16.4931 12.3293 16.5487 12.3062 16.5897 12.2652C16.6308 12.2242 16.6538 12.1686 16.6538 12.1105C16.6538 12.0525 16.6308 11.9969 16.5897 11.9559C16.5487 11.9148 16.4931 11.8918 16.4351 11.8918H14.0288C13.9708 11.8918 13.9152 11.9148 13.8741 11.9559C13.8331 11.9969 13.8101 12.0525 13.8101 12.1105C13.8101 12.1686 13.8331 12.2242 13.8741 12.2652C13.9152 12.3062 13.9708 12.3293 14.0288 12.3293Z" fill="white"/>
<path d="M11.996 10.4434C11.9598 10.4071 11.912 10.3847 11.8609 10.38C11.8099 10.3754 11.7588 10.3889 11.7167 10.4182C11.6746 10.4474 11.6442 10.4905 11.6307 10.54C11.6172 10.5894 11.6215 10.6421 11.6429 10.6886H10.8569C10.7989 10.6886 10.7433 10.7117 10.7023 10.7527C10.6612 10.7937 10.6382 10.8494 10.6382 10.9074C10.6382 10.9654 10.6612 11.0211 10.7023 11.0621C10.7433 11.1031 10.7989 11.1261 10.8569 11.1261H11.6429C11.6216 11.1727 11.6173 11.2253 11.6308 11.2747C11.6443 11.3241 11.6748 11.3672 11.7169 11.3965C11.7589 11.4257 11.8099 11.4392 11.861 11.4346C11.912 11.43 11.9598 11.4076 11.996 11.3714L12.3054 11.0621C12.3257 11.0418 12.3418 11.0176 12.3528 10.9911C12.3638 10.9646 12.3694 10.9361 12.3694 10.9074C12.3694 10.8787 12.3638 10.8502 12.3528 10.8237C12.3418 10.7972 12.3257 10.773 12.3054 10.7527L11.996 10.4434Z" fill="white"/>
</g>
<defs>
<clipPath id="clip0_655_11">
<rect width="14" height="14" fill="white" transform="translate(3.52881 4.12616)"/>
</clipPath>
</defs>
</svg>
