<svg width="29" height="29" viewBox="0 0 29 29" fill="none" xmlns="http://www.w3.org/2000/svg">
<path d="M6.01148 14.7305C6.24101 14.7305 6.46115 14.6393 6.62346 14.477C6.78577 14.3147 6.87695 14.0946 6.87695 13.865V13.0238C6.87764 12.5585 7.06278 12.1124 7.3918 11.7834C7.72081 11.4544 8.16685 11.2693 8.63215 11.2686H18.9937C19.2232 11.2686 19.4433 11.1774 19.6056 11.0151C19.768 10.8528 19.8591 10.6326 19.8591 10.4031C19.8591 10.1736 19.768 9.95343 19.6056 9.79112C19.4433 9.62881 19.2232 9.53763 18.9937 9.53763H8.63215C7.70791 9.53877 6.82186 9.90643 6.16833 10.56C5.5148 11.2135 5.14714 12.0995 5.146 13.0238V13.865C5.146 14.0946 5.23718 14.3147 5.39949 14.477C5.5618 14.6393 5.78194 14.7305 6.01148 14.7305Z" fill="white"/>
<path d="M22.0972 10.4031L19.2471 13.2531C19.1645 13.333 19.0985 13.4285 19.0532 13.5341C19.0078 13.6397 18.9839 13.7532 18.9829 13.8682C18.9819 13.9831 19.0038 14.097 19.0474 14.2034C19.0909 14.3098 19.1551 14.4064 19.2364 14.4877C19.3177 14.5689 19.4143 14.6332 19.5207 14.6767C19.627 14.7202 19.741 14.7421 19.8559 14.7411C19.9708 14.7401 20.0844 14.7163 20.19 14.6709C20.2956 14.6255 20.3911 14.5596 20.4709 14.4769L23.9328 11.015C24.0951 10.8527 24.1862 10.6326 24.1862 10.4031C24.1862 10.1736 24.0951 9.95353 23.9328 9.79123L20.4709 6.32932C20.3077 6.17166 20.0891 6.08443 19.8621 6.0864C19.6352 6.08837 19.4181 6.17939 19.2577 6.33986C19.0972 6.50032 19.0062 6.7174 19.0042 6.94432C19.0022 7.17125 19.0895 7.38987 19.2471 7.5531L22.0972 10.4031Z" fill="white"/>
<path d="M7.23532 19.0579L10.0853 16.2079C10.243 16.0447 10.3302 15.826 10.3283 15.5991C10.3263 15.3722 10.2353 15.1551 10.0748 14.9946C9.91434 14.8342 9.69726 14.7432 9.47034 14.7412C9.24341 14.7392 9.02479 14.8264 8.86156 14.9841L5.39964 18.446C5.23739 18.6083 5.14624 18.8284 5.14624 19.0579C5.14624 19.2874 5.23739 19.5075 5.39964 19.6698L8.86156 23.1317C9.02479 23.2894 9.24341 23.3766 9.47034 23.3746C9.69726 23.3727 9.91434 23.2816 10.0748 23.1212C10.2353 22.9607 10.3263 22.7436 10.3283 22.5167C10.3302 22.2898 10.243 22.0712 10.0853 21.9079L7.23532 19.0579Z" fill="white"/>
<path d="M23.3211 14.7305C23.0915 14.7305 22.8714 14.8217 22.7091 14.984C22.5468 15.1463 22.4556 15.3664 22.4556 15.596V16.4372C22.4549 16.9025 22.2697 17.3486 21.9407 17.6776C21.6117 18.0066 21.1657 18.1917 20.7004 18.1924H10.3389C10.1093 18.1924 9.88919 18.2836 9.72688 18.4459C9.56457 18.6082 9.47339 18.8284 9.47339 19.0579C9.47339 19.2874 9.56457 19.5076 9.72688 19.6699C9.88919 19.8322 10.1093 19.9234 10.3389 19.9234H20.7004C21.6246 19.9222 22.5107 19.5546 23.1642 18.901C23.8177 18.2475 24.1854 17.3615 24.1865 16.4372V15.596C24.1865 15.3664 24.0954 15.1463 23.933 14.984C23.7707 14.8217 23.5506 14.7305 23.3211 14.7305Z" fill="white"/>
</svg>
