<svg width="21" height="21" viewBox="0 0 21 21" fill="none" xmlns="http://www.w3.org/2000/svg">
<g clip-path="url(#clip0_407_772)">
<path d="M16.4058 0.665039H5.15576C2.73951 0.665039 0.780762 2.62379 0.780762 5.04004V16.29C0.780762 18.7063 2.73951 20.665 5.15576 20.665H16.4058C18.822 20.665 20.7808 18.7063 20.7808 16.29V5.04004C20.7808 2.62379 18.822 0.665039 16.4058 0.665039ZM19.5308 16.29C19.5308 18.0159 18.1317 19.415 16.4058 19.415H5.15576C3.42986 19.415 2.03076 18.0159 2.03076 16.29V5.04004C2.03076 3.31414 3.42986 1.91504 5.15576 1.91504H16.4058C18.1317 1.91504 19.5308 3.31414 19.5308 5.04004V16.29Z" fill="#95A1BA"/>
<path d="M7.03076 5.04004H5.78076C5.43557 5.04004 5.15576 5.31984 5.15576 5.66504V6.91504C5.15576 7.26023 5.43557 7.54004 5.78076 7.54004H7.03076C7.37596 7.54004 7.65576 7.26023 7.65576 6.91504V5.66504C7.65576 5.31984 7.37596 5.04004 7.03076 5.04004Z" fill="#95A1BA"/>
<path d="M7.03076 9.41504H5.78076C5.43557 9.41504 5.15576 9.69484 5.15576 10.04V11.29C5.15576 11.6352 5.43557 11.915 5.78076 11.915H7.03076C7.37596 11.915 7.65576 11.6352 7.65576 11.29V10.04C7.65576 9.69484 7.37596 9.41504 7.03076 9.41504Z" fill="#95A1BA"/>
<path d="M7.03076 13.79H5.78076C5.43557 13.79 5.15576 14.0698 5.15576 14.415V15.665C5.15576 16.0102 5.43557 16.29 5.78076 16.29H7.03076C7.37596 16.29 7.65576 16.0102 7.65576 15.665V14.415C7.65576 14.0698 7.37596 13.79 7.03076 13.79Z" fill="#95A1BA"/>
<path d="M16.4058 5.66504H8.90576V6.91504H16.4058V5.66504Z" fill="#95A1BA"/>
<path d="M16.4058 10.04H8.90576V11.29H16.4058V10.04Z" fill="#95A1BA"/>
<path d="M16.4058 14.415H8.90576V15.665H16.4058V14.415Z" fill="#95A1BA"/>
</g>
<defs>
<clipPath id="clip0_407_772">
<rect width="20" height="20" fill="white" transform="translate(0.780762 0.665039)"/>
</clipPath>
</defs>
</svg>
