<svg width="21" height="21" viewBox="0 0 21 21" fill="none" xmlns="http://www.w3.org/2000/svg">
<g clip-path="url(#clip0_407_769)">
<path d="M0.019043 3.44275L0.019043 17.8873C0.0204163 19.4208 1.26324 20.6637 2.79675 20.665H17.2413C18.7748 20.6637 20.0177 19.4208 20.019 17.8873V3.44275C20.0177 1.90924 18.7748 0.666412 17.2413 0.665039H2.79675C1.26324 0.666412 0.0204163 1.90924 0.019043 3.44275ZM14.1858 13.3039H10.2968V8.02618H14.1858V13.3039ZM15.2968 8.02618H18.9079V13.3039H15.2968V8.02618ZM5.57462 8.02618H9.18576V13.3039H5.57462V8.02618ZM5.57462 1.77618H9.18576L9.18576 6.91504H5.57462V1.77618ZM9.18576 14.415V19.5539H5.57462V14.415H9.18576ZM10.2968 19.5539V14.415H14.1858V19.5539H10.2968ZM10.2968 6.91504L10.2968 1.77618H14.1858L14.1858 6.91504H10.2968ZM1.13019 17.8873L1.13019 3.44275C1.1311 2.5228 1.8768 1.7771 2.79675 1.77618H4.46347L4.46347 19.5539H2.79675C1.8768 19.553 1.1311 18.8073 1.13019 17.8873ZM17.2413 19.5539H15.2968V14.415H18.9079V17.8873C18.907 18.8073 18.1613 19.553 17.2413 19.5539ZM18.9079 3.44275V6.91504H15.2968L15.2968 1.77618H17.2413C18.1613 1.7771 18.907 2.5228 18.9079 3.44275Z" fill="#95A1BA"/>
</g>
<defs>
<clipPath id="clip0_407_769">
<rect width="20" height="20" fill="white" transform="matrix(0 -1 1 0 0.019043 20.665)"/>
</clipPath>
</defs>
</svg>
