<svg width="21" height="21" viewBox="0 0 21 21" fill="none" xmlns="http://www.w3.org/2000/svg">
<rect x="0.0683594" y="0.588562" width="20.0752" height="20.0752" rx="4" fill="#8DA746"/>
<g clip-path="url(#clip0_655_6)">
<path d="M8.64733 6.83449C8.57267 6.83449 8.498 6.80795 8.44083 6.75541L6.1075 4.58874C6.02467 4.51074 5.99958 4.39483 6.0445 4.29353C6.08942 4.19224 6.19617 4.12616 6.314 4.12616H10.9807C11.0985 4.12616 11.2052 4.19224 11.2502 4.29353C11.2951 4.39483 11.27 4.51128 11.1872 4.58874L8.85383 6.75541C8.79667 6.80795 8.722 6.83449 8.64733 6.83449ZM7.01808 4.66783L8.64733 6.1807L10.2766 4.66783H7.01808Z" fill="white"/>
<path d="M6.31396 17.1262H4.56396C4.08155 17.1262 3.68896 16.7616 3.68896 16.3137V7.647C3.68896 7.19904 4.08155 6.8345 4.56396 6.8345H6.31396C6.79638 6.8345 7.18896 7.19904 7.18896 7.647V16.3137C7.18896 16.7616 6.79638 17.1262 6.31396 17.1262ZM4.56396 7.37617C4.40355 7.37617 4.2723 7.4975 4.2723 7.647V16.3137C4.2723 16.4632 4.40355 16.5845 4.56396 16.5845H6.31396C6.47438 16.5845 6.60563 16.4632 6.60563 16.3137V7.647C6.60563 7.4975 6.47438 7.37617 6.31396 7.37617H4.56396Z" fill="white"/>
<path d="M15.6471 17.1262H10.9805C10.4981 17.1262 10.1055 16.7616 10.1055 16.3137V7.647C10.1055 7.19904 10.4981 6.8345 10.9805 6.8345H15.6471C16.1296 6.8345 16.5221 7.19904 16.5221 7.647V16.3137C16.5221 16.7616 16.1296 17.1262 15.6471 17.1262ZM10.9805 7.37617C10.8201 7.37617 10.6888 7.4975 10.6888 7.647V16.3137C10.6888 16.4632 10.8201 16.5845 10.9805 16.5845H15.6471C15.8076 16.5845 15.9388 16.4632 15.9388 16.3137V7.647C15.9388 7.4975 15.8076 7.37617 15.6471 7.37617H10.9805Z" fill="white"/>
<path d="M6.8973 12.2512H3.98063C3.81963 12.2512 3.68896 12.1298 3.68896 11.9803C3.68896 11.8308 3.81963 11.7095 3.98063 11.7095H6.8973C7.0583 11.7095 7.18896 11.8308 7.18896 11.9803C7.18896 12.1298 7.0583 12.2512 6.8973 12.2512Z" fill="white"/>
<path d="M16.2305 12.2512H10.3971C10.2361 12.2512 10.1055 12.1298 10.1055 11.9803C10.1055 11.8308 10.2361 11.7095 10.3971 11.7095H16.2305C16.3915 11.7095 16.5221 11.8308 16.5221 11.9803C16.5221 12.1298 16.3915 12.2512 16.2305 12.2512Z" fill="white"/>
<path d="M13.3136 17.1262C13.1526 17.1262 13.022 17.0048 13.022 16.8553V7.10534C13.022 6.95584 13.1526 6.8345 13.3136 6.8345C13.4746 6.8345 13.6053 6.95584 13.6053 7.10534V16.8553C13.6053 17.0048 13.4746 17.1262 13.3136 17.1262Z" fill="white"/>
</g>
<defs>
<clipPath id="clip0_655_6">
<rect width="14" height="13" fill="white" transform="translate(3.10547 4.12616)"/>
</clipPath>
</defs>
</svg>
