<svg width="21" height="21" viewBox="0 0 21 21" fill="none" xmlns="http://www.w3.org/2000/svg">
<rect x="0.590332" y="0.675964" width="20.0752" height="20.0752" rx="4" fill="#045EA1"/>
<path fill-rule="evenodd" clip-rule="evenodd" d="M10.8214 4.4446C11.0045 4.26155 11.3012 4.26155 11.4843 4.4446L13.6718 6.6321C13.8548 6.81516 13.8548 7.11196 13.6718 7.29502L11.4843 9.4825C11.3012 9.66556 11.0045 9.66556 10.8214 9.4825L8.63387 7.29502C8.45082 7.11196 8.45082 6.81516 8.63387 6.6321L10.8214 4.4446ZM9.62824 6.96356L11.1528 8.48815L12.6774 6.96356L11.1528 5.43897L9.62824 6.96356Z" fill="white"/>
<path fill-rule="evenodd" clip-rule="evenodd" d="M10.8214 11.9446C11.0045 11.7615 11.3012 11.7615 11.4843 11.9446L13.6718 14.1321C13.8548 14.3152 13.8548 14.6119 13.6718 14.795L11.4843 16.9825C11.3012 17.1655 11.0045 17.1655 10.8214 16.9825L8.63387 14.795C8.45082 14.6119 8.45082 14.3152 8.63387 14.1321L10.8214 11.9446ZM9.62824 14.4635L11.1528 15.9881L12.6774 14.4635L11.1528 12.939L9.62824 14.4635Z" fill="white"/>
<path fill-rule="evenodd" clip-rule="evenodd" d="M14.5714 8.1946C14.7544 8.01155 15.0512 8.01155 15.2343 8.1946L17.4218 10.3821C17.6048 10.5652 17.6048 10.8619 17.4218 11.045L15.2343 13.2325C15.0512 13.4156 14.7544 13.4156 14.5714 13.2325L12.3839 11.045C12.2008 10.8619 12.2008 10.5652 12.3839 10.3821L14.5714 8.1946ZM13.3783 10.7136L14.9028 12.2381L16.4274 10.7136L14.9028 9.18897L13.3783 10.7136Z" fill="white"/>
<path fill-rule="evenodd" clip-rule="evenodd" d="M7.07137 8.1946C7.25443 8.01155 7.55123 8.01155 7.73429 8.1946L9.92177 10.3821C10.1048 10.5652 10.1048 10.8619 9.92177 11.045L7.73429 13.2325C7.55123 13.4156 7.25443 13.4156 7.07137 13.2325L4.88387 11.045C4.70082 10.8619 4.70082 10.5652 4.88387 10.3821L7.07137 8.1946ZM5.87824 10.7136L7.40283 12.2381L8.92742 10.7136L7.40283 9.18897L5.87824 10.7136Z" fill="white"/>
</svg>
