<svg width="21" height="21" viewBox="0 0 21 21" fill="none" xmlns="http://www.w3.org/2000/svg">
<path d="M8.10942 18.2303H12.3362C12.5703 18.2303 12.7616 18.039 12.7616 17.8049V2.82967C12.7616 2.59557 12.5703 2.40436 12.3362 2.40436H8.10942C7.87532 2.40436 7.68408 2.59557 7.68408 2.82967V17.8049C7.68408 18.039 7.87532 18.2303 8.10942 18.2303Z" fill="white"/>
<path d="M18.1357 7.84782C18.1357 7.61372 17.9445 7.42249 17.7104 7.42249H13.8462C13.6121 7.42249 13.4209 7.61372 13.4209 7.84782V17.8049C13.4209 18.039 13.6121 18.2303 13.8462 18.2303H17.7104C17.9445 18.2303 18.1357 18.039 18.1357 17.8049V7.84782Z" fill="white"/>
<path d="M2.73513 18.2303H6.5993C6.83338 18.2303 7.02461 18.0391 7.02461 17.805V10.713C7.02461 10.4789 6.83338 10.2877 6.5993 10.2877H2.73513C2.50105 10.2877 2.30981 10.4789 2.30981 10.713V17.805C2.30981 18.0391 2.50105 18.2303 2.73513 18.2303Z" fill="white"/>
</svg>
