<svg width="21" height="21" viewBox="0 0 21 21" fill="none" xmlns="http://www.w3.org/2000/svg">
<rect x="0.175781" y="0.588562" width="20.0752" height="20.0752" rx="4" fill="#DC5644"/>
<g clip-path="url(#clip0_655_12)">
<path d="M3.2915 7.00415H16.7082" stroke="white" stroke-miterlimit="10"/>
<path d="M6.38317 16.1042H3.2915V4.49582H16.7082V16.1042H15.4248" stroke="white" stroke-miterlimit="10"/>
<path d="M4.1958 5.75H4.8083" stroke="white" stroke-miterlimit="10"/>
<path d="M5.5083 5.75H6.1208" stroke="white" stroke-miterlimit="10"/>
<path d="M6.8208 5.75H7.4333" stroke="white" stroke-miterlimit="10"/>
<path d="M10.0293 14.3833C10.8186 14.3833 11.4584 13.7435 11.4584 12.9542C11.4584 12.1649 10.8186 11.525 10.0293 11.525C9.23996 11.525 8.6001 12.1649 8.6001 12.9542C8.6001 13.7435 9.23996 14.3833 10.0293 14.3833Z" stroke="white" stroke-miterlimit="10"/>
<path d="M11.079 11.9917C11.0498 11.9625 12.829 10.0958 12.829 10.0958" stroke="white" stroke-miterlimit="10"/>
<path d="M11.4292 13.1292L13.2375 12.8958" stroke="white" stroke-miterlimit="10"/>
<path d="M10.9043 14.0625L12.2168 15.375" stroke="white" stroke-miterlimit="10"/>
<path d="M9.53314 14.2958L8.8623 15.6958" stroke="white" stroke-miterlimit="10"/>
<path d="M8.59997 13.45L6.3833 14.0625" stroke="white" stroke-miterlimit="10"/>
<path d="M8.97897 11.9917L7.1123 10.5042" stroke="white" stroke-miterlimit="10"/>
<path d="M13.6165 10.4167C14.2447 10.4167 14.754 9.90739 14.754 9.27916C14.754 8.65094 14.2447 8.14166 13.6165 8.14166C12.9883 8.14166 12.479 8.65094 12.479 9.27916C12.479 9.90739 12.9883 10.4167 13.6165 10.4167Z" stroke="white" stroke-miterlimit="10"/>
<path d="M14.0831 13.7417C14.5503 13.7417 14.929 13.363 14.929 12.8958C14.929 12.4287 14.5503 12.05 14.0831 12.05C13.616 12.05 13.2373 12.4287 13.2373 12.8958C13.2373 13.363 13.616 13.7417 14.0831 13.7417Z" stroke="white" stroke-miterlimit="10"/>
<path d="M13.0331 17.2417C13.6453 17.2417 14.1415 16.7454 14.1415 16.1333C14.1415 15.5212 13.6453 15.025 13.0331 15.025C12.421 15.025 11.9248 15.5212 11.9248 16.1333C11.9248 16.7454 12.421 17.2417 13.0331 17.2417Z" stroke="white" stroke-miterlimit="10"/>
<path d="M8.48314 17.5042C8.9986 17.5042 9.41647 17.0863 9.41647 16.5708C9.41647 16.0554 8.9986 15.6375 8.48314 15.6375C7.96767 15.6375 7.5498 16.0554 7.5498 16.5708C7.5498 17.0863 7.96767 17.5042 8.48314 17.5042Z" stroke="white" stroke-miterlimit="10"/>
<path d="M5.7708 15.0833C6.1574 15.0833 6.4708 14.7699 6.4708 14.3833C6.4708 13.9967 6.1574 13.6833 5.7708 13.6833C5.3842 13.6833 5.0708 13.9967 5.0708 14.3833C5.0708 14.7699 5.3842 15.0833 5.7708 15.0833Z" stroke="white" stroke-miterlimit="10"/>
<path d="M6.41257 10.7958C6.96025 10.7958 7.40423 10.3518 7.40423 9.80417C7.40423 9.25648 6.96025 8.8125 6.41257 8.8125C5.86488 8.8125 5.4209 9.25648 5.4209 9.80417C5.4209 10.3518 5.86488 10.7958 6.41257 10.7958Z" stroke="white" stroke-miterlimit="10"/>
<path d="M9.94141 11.525V10.0083" stroke="white" stroke-miterlimit="10"/>
<path d="M9.94183 10.0375C10.3123 10.0375 10.6127 9.73716 10.6127 9.36666C10.6127 8.99617 10.3123 8.69583 9.94183 8.69583C9.57134 8.69583 9.271 8.99617 9.271 9.36666C9.271 9.73716 9.57134 10.0375 9.94183 10.0375Z" stroke="white" stroke-miterlimit="10"/>
</g>
<defs>
<clipPath id="clip0_655_12">
<rect width="14" height="14" fill="white" transform="translate(3 4)"/>
</clipPath>
</defs>
</svg>
