<svg width="21" height="21" viewBox="0 0 21 21" fill="none" xmlns="http://www.w3.org/2000/svg">
<rect x="0.75293" y="0.588562" width="20.0752" height="20.0752" rx="4" fill="#DC5644"/>
<g clip-path="url(#clip0_655_7)">
<path d="M9.17009 12.6706C9.26369 12.7201 9.3617 12.7607 9.46283 12.792V12.833C9.46293 12.9245 9.49934 13.0123 9.56406 13.077C9.62879 13.1417 9.71654 13.1781 9.80807 13.1782H10.1368C10.2284 13.1781 10.3161 13.1417 10.3809 13.0769C10.4456 13.0122 10.482 12.9244 10.482 12.8328V12.7918C10.5832 12.7605 10.6812 12.7199 10.7748 12.6705L10.8038 12.6994C10.8686 12.7641 10.9564 12.8004 11.0479 12.8004C11.1394 12.8004 11.2272 12.7641 11.292 12.6994L11.5244 12.467C11.5891 12.4022 11.6254 12.3144 11.6254 12.2229C11.6254 12.1314 11.5891 12.0436 11.5244 11.9788L11.4955 11.9498C11.5449 11.8562 11.5855 11.7582 11.6168 11.6571H11.6578C11.7493 11.657 11.8371 11.6205 11.9018 11.5558C11.9665 11.4911 12.0029 11.4033 12.003 11.3118V10.9832C12.0029 10.8917 11.9665 10.8039 11.9018 10.7392C11.8371 10.6745 11.7493 10.6381 11.6578 10.638H11.6168C11.5855 10.5368 11.5449 10.4388 11.4955 10.3452L11.5244 10.3163C11.5891 10.2515 11.6254 10.1637 11.6254 10.0721C11.6254 9.98061 11.5891 9.89282 11.5244 9.82803L11.292 9.59561C11.2272 9.53098 11.1394 9.49468 11.0479 9.49468C10.9564 9.49468 10.8686 9.53098 10.8038 9.59561L10.7748 9.62459C10.6812 9.57514 10.5832 9.53453 10.482 9.50327V9.46225C10.4819 9.37072 10.4455 9.28297 10.3808 9.21825C10.3161 9.15353 10.2283 9.11713 10.1368 9.11704H9.80807C9.71654 9.11713 9.62879 9.15353 9.56406 9.21825C9.49934 9.28297 9.46293 9.37072 9.46283 9.46225V9.50327C9.3617 9.53454 9.26369 9.57515 9.17009 9.62459L9.14111 9.59561C9.07631 9.53096 8.98852 9.49466 8.89699 9.49466C8.80547 9.49466 8.71768 9.53096 8.65288 9.59561L8.42046 9.82803C8.35582 9.89283 8.31952 9.98062 8.31952 10.0721C8.31952 10.1637 8.35582 10.2515 8.42046 10.3163L8.44942 10.3452C8.39999 10.4388 8.35938 10.5368 8.32812 10.638H8.28711C8.19558 10.6381 8.10784 10.6745 8.04312 10.7392C7.9784 10.8039 7.942 10.8917 7.94189 10.9832V11.3119C7.94199 11.4035 7.97839 11.4912 8.04311 11.5559C8.10783 11.6207 8.19558 11.6571 8.28711 11.6572H8.32812C8.35938 11.7583 8.39999 11.8563 8.44942 11.95L8.42046 11.9789C8.35581 12.0437 8.3195 12.1315 8.3195 12.223C8.3195 12.3146 8.35581 12.4023 8.42046 12.4671L8.65288 12.6996C8.71768 12.7642 8.80547 12.8005 8.89699 12.8005C8.98852 12.8005 9.07631 12.7642 9.14111 12.6996L9.17009 12.6706ZM8.89701 12.4502L8.66986 12.223L8.79108 12.1018C8.81917 12.0737 8.83683 12.0368 8.84113 11.9973C8.84544 11.9578 8.83613 11.918 8.81476 11.8846C8.72872 11.7499 8.66707 11.6011 8.63265 11.4451C8.62405 11.4063 8.60248 11.3716 8.5715 11.3467C8.54052 11.3219 8.50199 11.3083 8.46227 11.3083H8.29091V10.9869H8.46227C8.50199 10.9869 8.54052 10.9734 8.5715 10.9485C8.60248 10.9237 8.62405 10.889 8.63265 10.8502C8.66708 10.6942 8.72873 10.5454 8.81479 10.4107C8.83616 10.3772 8.84546 10.3374 8.84115 10.2979C8.83683 10.2584 8.81917 10.2216 8.79108 10.1935L8.66986 10.0722L8.89701 9.84509L9.01822 9.96631C9.04632 9.99441 9.08317 10.0121 9.12267 10.0164C9.16218 10.0207 9.20197 10.0114 9.23547 9.99001C9.37014 9.90396 9.51892 9.84231 9.67499 9.8079C9.71377 9.7993 9.74845 9.77773 9.77331 9.74675C9.79817 9.71578 9.81171 9.67724 9.81171 9.63753V9.46616H10.1329V9.63753C10.1329 9.67725 10.1465 9.71578 10.1713 9.74676C10.1962 9.77774 10.2309 9.79931 10.2697 9.8079C10.4257 9.84232 10.5745 9.90396 10.7092 9.99001C10.7427 10.0114 10.7824 10.0207 10.822 10.0164C10.8615 10.0121 10.8983 9.99442 10.9264 9.96631L11.0476 9.84509L11.2748 10.0723L11.1536 10.1935C11.1255 10.2216 11.1078 10.2584 11.1035 10.2979C11.0992 10.3374 11.1085 10.3772 11.1299 10.4107C11.2159 10.5454 11.2776 10.6942 11.312 10.8502C11.3206 10.889 11.3422 10.9237 11.3731 10.9485C11.4041 10.9734 11.4426 10.9869 11.4824 10.9869H11.6537V11.3082H11.4826C11.4428 11.3082 11.4043 11.3217 11.3733 11.3466C11.3423 11.3715 11.3208 11.4061 11.3122 11.4449C11.2778 11.601 11.2161 11.7498 11.1301 11.8844C11.1087 11.9179 11.0994 11.9577 11.1037 11.9972C11.108 12.0367 11.1257 12.0736 11.1538 12.1017L11.275 12.2229L11.0478 12.45L10.9266 12.3288C10.8985 12.3007 10.8617 12.2831 10.8222 12.2788C10.7827 12.2744 10.7429 12.2837 10.7094 12.3051C10.5747 12.3912 10.4259 12.4528 10.2699 12.4872C10.2311 12.4958 10.1964 12.5174 10.1715 12.5484C10.1467 12.5794 10.1331 12.6179 10.1331 12.6576V12.829H9.81185V12.6578C9.81185 12.6181 9.79828 12.5795 9.7734 12.5485C9.74851 12.5176 9.7138 12.496 9.67499 12.4874C9.51892 12.453 9.37013 12.3914 9.23547 12.3053C9.20197 12.2839 9.16218 12.2746 9.12268 12.279C9.08319 12.2833 9.04635 12.3009 9.01825 12.329L8.89701 12.4502ZM9.97244 12.2565C10.1918 12.2565 10.4061 12.1914 10.5885 12.0696C10.7708 11.9477 10.913 11.7745 10.9969 11.5719C11.0808 11.3693 11.1028 11.1464 11.06 10.9313C11.0172 10.7162 10.9116 10.5186 10.7565 10.3635C10.6014 10.2084 10.4039 10.1028 10.1888 10.06C9.97367 10.0172 9.75071 10.0392 9.54809 10.1231C9.34547 10.207 9.17229 10.3492 9.05045 10.5315C8.9286 10.7139 8.86357 10.9283 8.86357 11.1476C8.86391 11.4416 8.98084 11.7234 9.18872 11.9313C9.3966 12.1392 9.67845 12.2561 9.97244 12.2565ZM9.97244 10.3877C10.1227 10.3877 10.2696 10.4323 10.3946 10.5158C10.5196 10.5993 10.617 10.7179 10.6745 10.8568C10.732 10.9956 10.747 11.1484 10.7177 11.2958C10.6884 11.4432 10.616 11.5786 10.5098 11.6849C10.4035 11.7912 10.2681 11.8635 10.1207 11.8929C9.97328 11.9222 9.82049 11.9071 9.68164 11.8496C9.54279 11.7921 9.42412 11.6947 9.34062 11.5698C9.25712 11.4448 9.21255 11.2979 9.21255 11.1476C9.21278 10.9461 9.29291 10.753 9.43537 10.6105C9.57782 10.4681 9.77097 10.3879 9.97244 10.3877ZM7.93016 12.4994H5.38446C5.35917 12.4994 5.33418 12.5049 5.31122 12.5155C5.28827 12.5261 5.26789 12.5416 5.25151 12.5609L4.50104 13.4434C4.4742 13.475 4.45946 13.5151 4.45947 13.5565V16.8781C4.45957 16.9587 4.49161 17.0359 4.54858 17.0929C4.60555 17.1498 4.68278 17.1819 4.76334 17.182H7.93016C8.01073 17.1819 8.08799 17.1499 8.14498 17.0929C8.20196 17.0359 8.23402 16.9587 8.23411 16.8781V12.8033C8.23403 12.7227 8.20197 12.6455 8.14499 12.5885C8.088 12.5315 8.01074 12.4995 7.93016 12.4994ZM5.34032 12.9952V13.4942C5.34016 13.505 5.33578 13.5154 5.32812 13.523C5.32047 13.5307 5.31013 13.535 5.29931 13.5352H4.88103L5.34032 12.9952ZM7.88507 16.833H4.80843V13.8843H5.2992C5.40262 13.8842 5.50177 13.843 5.5749 13.7699C5.64802 13.6968 5.68916 13.5976 5.68929 13.4942V12.8484H7.88499L7.88507 16.833ZM7.29991 15.9636C7.29991 16.0099 7.28153 16.0543 7.24881 16.087C7.21609 16.1197 7.17171 16.1381 7.12543 16.1381H5.5681C5.5222 16.1375 5.47837 16.1189 5.44612 16.0862C5.41386 16.0536 5.39577 16.0095 5.39577 15.9636C5.39577 15.9177 5.41386 15.8737 5.44612 15.841C5.47837 15.8083 5.5222 15.7897 5.5681 15.7891H7.12557C7.17184 15.7892 7.2162 15.8076 7.2489 15.8403C7.28161 15.873 7.29998 15.9174 7.29997 15.9637L7.29991 15.9636ZM7.29991 15.1575C7.29991 15.2037 7.28153 15.2481 7.24881 15.2808C7.21609 15.3136 7.17171 15.332 7.12543 15.332H5.5681C5.5222 15.3314 5.47837 15.3128 5.44612 15.2801C5.41386 15.2474 5.39577 15.2034 5.39577 15.1575C5.39577 15.1116 5.41386 15.0675 5.44612 15.0349C5.47837 15.0022 5.5222 14.9836 5.5681 14.983H7.12557C7.17183 14.983 7.21619 15.0014 7.24889 15.0341C7.2816 15.0668 7.29997 15.1112 7.29997 15.1575H7.29991ZM6.26867 14.3513C6.26867 14.305 6.28705 14.2607 6.31976 14.228C6.35247 14.1952 6.39683 14.1768 6.4431 14.1768H7.12543C7.17171 14.1768 7.21609 14.1952 7.24881 14.2279C7.28153 14.2607 7.29991 14.305 7.29991 14.3513C7.29991 14.3976 7.28153 14.442 7.24881 14.4747C7.21609 14.5074 7.17171 14.5258 7.12543 14.5258H6.4431C6.39683 14.5258 6.35247 14.5074 6.31976 14.4747C6.28705 14.442 6.26867 14.3976 6.26867 14.3513ZM15.9697 5.55237H15.8942C15.7767 5.34933 15.6081 5.18067 15.4051 5.06321C15.202 4.94575 14.9718 4.88361 14.7372 4.88299C14.7007 4.88299 14.6642 4.88447 14.6278 4.88745C14.4437 4.58337 14.1687 4.34485 13.8416 4.20562C13.5145 4.06638 13.152 4.03348 12.8052 4.11157C12.4584 4.18965 12.1449 4.37477 11.9091 4.64074C11.6733 4.90672 11.527 5.2401 11.491 5.59374C11.222 5.66762 10.989 5.83655 10.8351 6.0692C10.6813 6.30184 10.617 6.5824 10.6543 6.85883C10.6916 7.13525 10.8279 7.38877 11.0379 7.57234C11.2479 7.75591 11.5173 7.85708 11.7962 7.85706H11.9014V9.93057C11.9014 10.4692 12.8982 10.751 13.8829 10.751C14.8677 10.751 15.8646 10.4692 15.8646 9.93057V7.85706H15.9697C16.2753 7.85706 16.5684 7.73566 16.7845 7.51955C17.0006 7.30344 17.122 7.01034 17.122 6.70472C17.122 6.3991 17.0006 6.10599 16.7845 5.88988C16.5684 5.67378 16.2753 5.55237 15.9697 5.55237ZM12.2503 7.27817C12.627 7.49922 13.2574 7.61302 13.8829 7.61302C14.5085 7.61302 15.1389 7.49922 15.5156 7.27817V7.83853C15.5156 7.99854 14.9393 8.31004 13.8829 8.31004C12.8266 8.31004 12.2503 7.99854 12.2503 7.83853V7.27817ZM15.4182 6.92492C15.4133 6.92864 15.4085 6.93233 15.4032 6.93607L15.4023 6.93673C15.246 7.04638 14.9333 7.16368 14.4976 7.22359C14.2938 7.25005 14.0884 7.263 13.8829 7.26237C13.6774 7.263 13.4721 7.25005 13.2683 7.22359C12.833 7.16368 12.5206 7.04662 12.3642 6.93708L12.3624 6.93585C12.3574 6.93233 12.3529 6.92883 12.3483 6.92533C12.2841 6.87641 12.2509 6.82981 12.2504 6.7917C12.2524 6.62528 12.8718 6.321 13.8829 6.321C14.8939 6.321 15.5137 6.62542 15.5153 6.79181C15.515 6.82979 15.4819 6.87622 15.4182 6.92492ZM13.8829 10.4021C12.8266 10.4021 12.2503 10.0906 12.2503 9.93057V9.37019C12.627 9.59126 13.2574 9.70504 13.8829 9.70504C14.5085 9.70504 15.1389 9.59126 15.5156 9.37019V9.93057C15.5156 10.0906 14.9393 10.4021 13.8829 10.4021ZM13.8829 9.35608C12.8266 9.35608 12.2503 9.04458 12.2503 8.88456V8.32418C12.627 8.54523 13.2574 8.65903 13.8829 8.65903C14.5085 8.65903 15.1389 8.54523 15.5156 8.32418V8.88456C15.5156 9.04458 14.9393 9.35608 13.8829 9.35608ZM15.9697 7.50808H15.8645V6.79257V6.79216C15.8645 6.79172 15.8645 6.79131 15.8645 6.7909C15.8624 6.25333 14.8667 5.97207 13.883 5.97207C12.8993 5.97207 11.9035 6.25333 11.9015 6.7909V7.50813H11.7963C11.5931 7.50819 11.3975 7.43124 11.2487 7.2928C11.1 7.15436 11.0093 6.9647 10.9948 6.76202C10.9803 6.55935 11.0432 6.35872 11.1707 6.20055C11.2983 6.04237 11.481 5.93841 11.6822 5.90959C11.7232 5.90369 11.7607 5.88339 11.7881 5.85233C11.8155 5.82127 11.831 5.78147 11.8317 5.74006C11.8375 5.4399 11.9434 5.15028 12.1326 4.91721C12.3218 4.68415 12.5835 4.52101 12.8761 4.45374C13.1687 4.38646 13.4753 4.4189 13.7474 4.5459C14.0194 4.67291 14.2412 4.88718 14.3774 5.15468C14.3944 5.18799 14.4217 5.21497 14.4551 5.23162C14.4886 5.24828 14.5266 5.25373 14.5634 5.24719C14.7774 5.20911 14.9979 5.24272 15.1908 5.34281C15.3838 5.44289 15.5383 5.60385 15.6304 5.80071C15.6444 5.83076 15.6668 5.85619 15.6948 5.87401C15.7228 5.89183 15.7553 5.90129 15.7885 5.9013H15.9697C16.1827 5.9013 16.3871 5.98594 16.5377 6.1366C16.6884 6.28726 16.773 6.4916 16.773 6.70466C16.773 6.91773 16.6884 7.12206 16.5377 7.27272C16.3871 7.42338 16.1827 7.50802 15.9697 7.50802V7.50808ZM5.29685 10.4453C5.4422 9.48039 5.88988 8.58643 6.57548 7.89205C7.26107 7.19766 8.14926 6.73864 9.11226 6.58101L8.81019 6.37897C8.79091 6.36634 8.77433 6.35001 8.7614 6.33093C8.74846 6.31185 8.73944 6.29039 8.73485 6.26781C8.73025 6.24522 8.73018 6.22194 8.73463 6.19933C8.73909 6.17671 8.74798 6.1552 8.76079 6.13604C8.7736 6.11688 8.79009 6.10045 8.80929 6.0877C8.82849 6.07494 8.85002 6.06612 8.87265 6.06174C8.89528 6.05736 8.91856 6.0575 8.94113 6.06216C8.9637 6.06683 8.98513 6.07592 9.00417 6.08891L9.70417 6.55709C9.70559 6.55802 9.7069 6.55911 9.70822 6.5601C9.70953 6.56108 9.71155 6.56256 9.71319 6.56381C9.71623 6.56611 9.71915 6.56846 9.72197 6.57092C9.72328 6.57207 9.72451 6.57325 9.72577 6.5744C9.72872 6.57713 9.73162 6.57987 9.73436 6.58285C9.73539 6.58397 9.73641 6.58512 9.73742 6.58629C9.74015 6.58933 9.74289 6.59239 9.74524 6.59559C9.74628 6.59696 9.74726 6.59832 9.74827 6.59977C9.75049 6.60283 9.75268 6.6059 9.75467 6.60907C9.75585 6.61093 9.75694 6.61287 9.75804 6.61476C9.75968 6.61749 9.76132 6.62044 9.76279 6.62337C9.764 6.62575 9.76509 6.62824 9.76621 6.6307C9.76733 6.63316 9.76851 6.63584 9.76955 6.63846C9.77059 6.64109 9.77157 6.64393 9.77253 6.64691C9.77348 6.64989 9.7742 6.65192 9.77493 6.65446C9.77567 6.657 9.77641 6.6602 9.77707 6.66313C9.77772 6.66605 9.7783 6.6686 9.77879 6.67133C9.77928 6.67406 9.77966 6.6768 9.78002 6.67953C9.78038 6.68227 9.78079 6.6858 9.781 6.68897C9.781 6.69017 9.78133 6.69132 9.78139 6.69252C9.78144 6.69372 9.78139 6.69526 9.78139 6.69654V6.70644C9.78139 6.70898 9.78122 6.7115 9.78106 6.71401C9.78084 6.71716 9.78054 6.72028 9.78016 6.72342C9.77983 6.72615 9.77947 6.7287 9.77904 6.7313C9.7786 6.73389 9.77794 6.73712 9.77729 6.74002C9.77663 6.74292 9.77603 6.74549 9.77529 6.74822C9.77455 6.75096 9.77373 6.75355 9.77288 6.75618C9.77204 6.7588 9.77097 6.76189 9.76988 6.76468C9.76878 6.76747 9.76793 6.76952 9.76687 6.77193C9.76558 6.77485 9.76413 6.77775 9.76279 6.78062C9.7617 6.78281 9.76052 6.785 9.75932 6.78716C9.75768 6.79008 9.75593 6.79298 9.75413 6.79583C9.75344 6.79692 9.75287 6.79807 9.75213 6.79916L9.28398 7.49916C9.25825 7.53763 9.2183 7.56431 9.17291 7.57332C9.12752 7.58233 9.08041 7.57294 9.04194 7.54722C9.00348 7.5215 8.9768 7.48155 8.96779 7.43616C8.95878 7.39077 8.96816 7.34365 8.99389 7.30519L9.25693 6.91182C7.41298 7.17317 5.92034 8.63007 5.64193 10.4968C5.63576 10.5381 5.61499 10.5758 5.58338 10.6031C5.55178 10.6304 5.51143 10.6455 5.46966 10.6456C5.46097 10.6456 5.4523 10.6449 5.44371 10.6436C5.39794 10.6368 5.35675 10.6121 5.32921 10.5749C5.30167 10.5377 5.29003 10.4911 5.29685 10.4453ZM14.1795 12.7346C13.8518 13.617 13.2619 14.378 12.4891 14.9154C11.7162 15.4528 10.7975 15.7408 9.8562 15.7408C9.76281 15.7408 9.66937 15.7379 9.57587 15.7322L9.83837 16.1248C9.85111 16.1439 9.85997 16.1652 9.86445 16.1877C9.86892 16.2102 9.86893 16.2333 9.86447 16.2558C9.86001 16.2783 9.85116 16.2997 9.83844 16.3187C9.82571 16.3378 9.80936 16.3541 9.79031 16.3669C9.77127 16.3796 9.7499 16.3885 9.72743 16.3929C9.70495 16.3974 9.68182 16.3974 9.65935 16.393C9.63687 16.3885 9.61549 16.3797 9.59644 16.3669C9.57738 16.3542 9.56102 16.3379 9.54828 16.3188L9.08013 15.6188C9.0795 15.6179 9.07904 15.6169 9.07843 15.6161C9.07666 15.6133 9.07502 15.6106 9.07337 15.6076C9.07212 15.6054 9.07089 15.6032 9.06971 15.6009C9.06832 15.5982 9.06698 15.5955 9.0658 15.5926C9.06463 15.5897 9.06359 15.5876 9.06263 15.5851C9.06167 15.5826 9.06066 15.5796 9.05973 15.5769C9.0588 15.5742 9.05795 15.5716 9.05719 15.5689C9.05642 15.5662 9.05582 15.5634 9.05519 15.5607C9.05456 15.5579 9.05391 15.5552 9.05341 15.5523C9.05292 15.5495 9.05259 15.5469 9.05224 15.5441C9.05188 15.5414 9.0515 15.5383 9.05128 15.5354C9.05106 15.5325 9.05101 15.53 9.05093 15.5272C9.05084 15.5245 9.05076 15.5211 9.05093 15.518C9.05093 15.5154 9.05117 15.5129 9.05134 15.5103C9.05155 15.5071 9.05183 15.5038 9.05224 15.5006C9.05224 15.4995 9.05224 15.4984 9.05254 15.4973C9.05284 15.4961 9.05311 15.4945 9.05336 15.493C9.05388 15.4899 9.05448 15.4868 9.05516 15.4837C9.05585 15.4806 9.05645 15.4782 9.05716 15.4757C9.05787 15.4731 9.05872 15.4702 9.05962 15.4675C9.06052 15.4647 9.06154 15.4618 9.0626 15.459C9.06367 15.4562 9.06454 15.4542 9.06558 15.4518C9.06681 15.4491 9.0681 15.4462 9.06947 15.4434C9.07064 15.4411 9.0719 15.4388 9.07316 15.4365C9.07441 15.4342 9.07614 15.4313 9.07772 15.4288C9.07931 15.4263 9.0807 15.4243 9.08226 15.422C9.08382 15.4198 9.08563 15.4173 9.08738 15.415C9.08913 15.4127 9.09088 15.4107 9.09271 15.4085C9.09454 15.4064 9.09651 15.4042 9.0985 15.4021C9.1005 15.3999 9.10228 15.3982 9.10422 15.3963C9.10616 15.3944 9.10876 15.392 9.11111 15.39C9.113 15.3884 9.11488 15.3868 9.11685 15.3852C9.11959 15.3831 9.12232 15.381 9.12505 15.379C9.12612 15.3783 9.12708 15.3775 9.12814 15.3767L9.82815 14.9086C9.86661 14.8834 9.91348 14.8744 9.95855 14.8835C10.0036 14.8927 10.0433 14.9193 10.0688 14.9575C10.0944 14.9958 10.1038 15.0425 10.0951 15.0877C10.0863 15.1328 10.0601 15.1727 10.0221 15.1986L9.73641 15.3897C9.7763 15.3908 9.8162 15.3918 9.85604 15.3918C10.7256 15.3895 11.5738 15.1224 12.2877 14.626C13.0016 14.1296 13.5474 13.4275 13.8523 12.6132C13.8684 12.5698 13.9011 12.5346 13.9432 12.5153C13.9852 12.496 14.0332 12.4942 14.0766 12.5103C14.12 12.5264 14.1552 12.5591 14.1745 12.6012C14.1938 12.6432 14.1956 12.6912 14.1795 12.7346Z" fill="white"/>
</g>
<defs>
<clipPath id="clip0_655_7">
<rect width="14" height="14" fill="white" transform="translate(3.79053 3.62616)"/>
</clipPath>
</defs>
</svg>
