<svg width="21" height="21" viewBox="0 0 21 21" fill="none" xmlns="http://www.w3.org/2000/svg">
<rect x="0.930664" y="0.588562" width="20.0752" height="20.0752" rx="4" fill="#6F4D99"/>
<path d="M16.3094 10.7248C16.4004 10.613 16.4586 10.4783 16.4777 10.3354C16.4969 10.1926 16.4761 10.0473 16.4177 9.91554C16.3594 9.78379 16.2657 9.67076 16.1471 9.58895C16.0285 9.50714 15.8895 9.45975 15.7456 9.45202C15.4952 8.43138 14.9241 7.51797 14.116 6.84604C14.1087 6.66613 14.0521 6.4917 13.9524 6.34177C13.8527 6.19183 13.7137 6.07215 13.5507 5.99577C13.6406 5.88484 13.6986 5.75158 13.7187 5.61023C13.7387 5.46888 13.72 5.32474 13.6645 5.19321C13.609 5.06167 13.5188 4.94768 13.4036 4.8634C13.2883 4.77912 13.1524 4.72772 13.0102 4.71469C12.868 4.70165 12.725 4.72748 12.5964 4.78941C12.4677 4.85133 12.3583 4.94703 12.2798 5.06629C12.2014 5.18554 12.1567 5.32387 12.1507 5.46651C12.1448 5.60915 12.1776 5.75074 12.2458 5.87616C11.4082 5.65132 10.5261 5.65132 9.68851 5.87616C9.75089 5.76273 9.78401 5.63554 9.78486 5.5061C9.78582 5.37975 9.75638 5.25503 9.69904 5.14244C9.6417 5.02986 9.55813 4.9327 9.45539 4.85917C9.35264 4.78565 9.23372 4.7379 9.10865 4.71995C8.98359 4.702 8.85604 4.71438 8.73676 4.75605C8.61748 4.79771 8.50996 4.86744 8.42327 4.95936C8.33659 5.05128 8.27326 5.16269 8.23865 5.2842C8.20403 5.40572 8.19913 5.53377 8.22437 5.65757C8.2496 5.78138 8.30423 5.8973 8.38364 5.99557C8.22056 6.07197 8.0816 6.19168 7.98191 6.34165C7.88221 6.49163 7.82562 6.6661 7.81831 6.84604C7.01027 7.51797 6.43909 8.43138 6.1887 9.45202C6.04481 9.45975 5.90587 9.50714 5.78724 9.58895C5.66862 9.67076 5.57495 9.78379 5.51659 9.91554C5.45823 10.0473 5.43746 10.1926 5.45659 10.3354C5.47571 10.4783 5.53398 10.613 5.62494 10.7248C5.45536 10.8038 5.31177 10.9294 5.21096 11.087C5.11015 11.2445 5.05628 11.4276 5.05566 11.6146V12.7969C5.05566 12.8492 5.07642 12.8993 5.11338 12.9363C5.15033 12.9732 5.20045 12.994 5.25271 12.994H5.44976V14.3733C5.44976 14.4256 5.47052 14.4757 5.50748 14.5127C5.54443 14.5496 5.59455 14.5704 5.64681 14.5704H6.82911C6.88138 14.5704 6.9315 14.5496 6.96845 14.5127C7.0054 14.4757 7.02616 14.4256 7.02616 14.3733V13.579C7.79048 14.5998 8.92045 15.2848 10.179 15.4904V16.3438C10.179 16.3961 10.1997 16.4462 10.2367 16.4832C10.2736 16.5201 10.3238 16.5409 10.376 16.5409H11.5583C11.6106 16.5409 11.6607 16.5201 11.6977 16.4832C11.7346 16.4462 11.7554 16.3961 11.7554 16.3438V15.4898C13.0139 15.2843 14.1439 14.5992 14.9082 13.5784V14.3733C14.9082 14.4256 14.9289 14.4757 14.9659 14.5127C15.0028 14.5496 15.053 14.5704 15.1052 14.5704H16.2875C16.3398 14.5704 16.3899 14.5496 16.4269 14.5127C16.4638 14.4757 16.4846 14.4256 16.4846 14.3733V12.994H16.6816C16.7339 12.994 16.784 12.9732 16.821 12.9363C16.8579 12.8993 16.8787 12.8492 16.8787 12.7969V11.6146C16.878 11.4276 16.8242 11.2445 16.7234 11.087C16.6226 10.9294 16.479 10.8038 16.3094 10.7248ZM15.6964 9.8412C15.7743 9.8412 15.8505 9.86431 15.9153 9.90762C15.9801 9.95092 16.0306 10.0125 16.0605 10.0845C16.0903 10.1565 16.0981 10.2357 16.0829 10.3122C16.0677 10.3886 16.0302 10.4589 15.975 10.514C15.9199 10.5691 15.8497 10.6066 15.7733 10.6218C15.6968 10.637 15.6176 10.6292 15.5456 10.5994C15.4735 10.5696 15.412 10.5191 15.3687 10.4542C15.3254 10.3894 15.3023 10.3132 15.3023 10.2353C15.3023 10.1308 15.3438 10.0305 15.4177 9.95663C15.4916 9.88272 15.5918 9.8412 15.6964 9.8412ZM12.9377 5.112C13.0156 5.112 13.0918 5.13511 13.1566 5.17841C13.2214 5.22172 13.2719 5.28327 13.3018 5.35528C13.3316 5.42729 13.3394 5.50653 13.3242 5.58298C13.309 5.65943 13.2715 5.72965 13.2163 5.78477C13.1612 5.83988 13.091 5.87742 13.0146 5.89262C12.9381 5.90783 12.8589 5.90003 12.7868 5.8702C12.7148 5.84037 12.6533 5.78986 12.61 5.72505C12.5667 5.66024 12.5436 5.58404 12.5436 5.5061C12.5436 5.40157 12.5851 5.30133 12.659 5.22743C12.7329 5.15352 12.8331 5.112 12.9377 5.112ZM12.1495 6.88545C12.1495 6.72866 12.2117 6.5783 12.3226 6.46744C12.4335 6.35658 12.5838 6.2943 12.7406 6.2943H13.1347C13.2915 6.2943 13.4419 6.35658 13.5527 6.46744C13.6636 6.5783 13.7259 6.72866 13.7259 6.88545V7.8707H13.5288C13.4766 7.8707 13.4264 7.89146 13.3895 7.92841C13.3525 7.96537 13.3318 8.01549 13.3318 8.06775V9.4471H12.5436V8.06775C12.5436 8.01549 12.5228 7.96537 12.4859 7.92841C12.4489 7.89146 12.3988 7.8707 12.3465 7.8707H12.1495V6.88545ZM8.99666 5.112C9.07461 5.112 9.15081 5.13511 9.21562 5.17841C9.28042 5.22172 9.33094 5.28327 9.36077 5.35528C9.39059 5.42729 9.3984 5.50653 9.38319 5.58298C9.36799 5.65943 9.33045 5.72965 9.27534 5.78477C9.22022 5.83988 9.15 5.87742 9.07355 5.89262C8.9971 5.90783 8.91786 5.90003 8.84585 5.8702C8.77384 5.84037 8.71229 5.78986 8.66898 5.72505C8.62568 5.66024 8.60256 5.58404 8.60256 5.5061C8.60256 5.40157 8.64409 5.30133 8.71799 5.22743C8.7919 5.15352 8.89214 5.112 8.99666 5.112ZM8.20846 6.88545C8.20846 6.72866 8.27075 6.5783 8.38161 6.46744C8.49247 6.35658 8.64283 6.2943 8.79961 6.2943H9.19371C9.3505 6.2943 9.50086 6.35658 9.61172 6.46744C9.72258 6.5783 9.78486 6.72866 9.78486 6.88545V7.8707H9.58781C9.53555 7.8707 9.48543 7.89146 9.44848 7.92841C9.41153 7.96537 9.39076 8.01549 9.39076 8.06775V9.4471H8.60256V8.06775C8.60256 8.01549 8.5818 7.96537 8.54485 7.92841C8.5079 7.89146 8.45778 7.8707 8.40551 7.8707H8.20846V6.88545ZM6.23796 9.8412C6.31591 9.8412 6.39211 9.86431 6.45691 9.90762C6.52172 9.95092 6.57224 10.0125 6.60207 10.0845C6.63189 10.1565 6.6397 10.2357 6.62449 10.3122C6.60929 10.3886 6.57175 10.4589 6.51664 10.514C6.46152 10.5691 6.3913 10.6066 6.31485 10.6218C6.2384 10.637 6.15916 10.6292 6.08715 10.5994C6.01514 10.5696 5.95359 10.5191 5.91028 10.4542C5.86698 10.3894 5.84386 10.3132 5.84386 10.2353C5.84386 10.1308 5.88539 10.0305 5.95929 9.95663C6.0332 9.88272 6.13344 9.8412 6.23796 9.8412ZM7.02616 12.5999H6.82911C6.77685 12.5999 6.72673 12.6207 6.68978 12.6576C6.65282 12.6946 6.63206 12.7447 6.63206 12.7969V14.1763H5.84386V12.7969C5.84386 12.7447 5.8231 12.6946 5.78615 12.6576C5.7492 12.6207 5.69908 12.5999 5.64681 12.5999H5.44976V11.6146C5.44976 11.4579 5.51205 11.3075 5.62291 11.1966C5.73377 11.0858 5.88413 11.0235 6.04091 11.0235H6.43501C6.5918 11.0235 6.74216 11.0858 6.85302 11.1966C6.96388 11.3075 7.02616 11.4579 7.02616 11.6146V12.5999ZM11.5583 14.5704C11.5061 14.5704 11.4559 14.5912 11.419 14.6281C11.382 14.6651 11.3613 14.7152 11.3613 14.7674V16.1468H10.5731V14.7674C10.5731 14.7152 10.5523 14.6651 10.5154 14.6281C10.4784 14.5912 10.4283 14.5704 10.376 14.5704H10.179V13.5851C10.179 13.4284 10.2412 13.278 10.3521 13.1671C10.463 13.0563 10.6133 12.994 10.7701 12.994H11.1642C11.321 12.994 11.4714 13.0563 11.5822 13.1671C11.6931 13.278 11.7554 13.4284 11.7554 13.5851V14.5704H11.5583ZM10.5731 12.2058C10.5731 12.1279 10.5962 12.0517 10.6395 11.9868C10.6828 11.922 10.7443 11.8715 10.8163 11.8417C10.8884 11.8119 10.9676 11.8041 11.0441 11.8193C11.1205 11.8345 11.1907 11.872 11.2458 11.9271C11.301 11.9822 11.3385 12.0525 11.3537 12.1289C11.3689 12.2054 11.3611 12.2846 11.3313 12.3566C11.3014 12.4286 11.2509 12.4902 11.1861 12.5335C11.1213 12.5768 11.0451 12.5999 10.9672 12.5999C10.8626 12.5999 10.7624 12.5584 10.6885 12.4845C10.6146 12.4106 10.5731 12.3103 10.5731 12.2058ZM14.7111 12.994H14.8293C14.4943 13.5409 14.047 14.0106 13.5172 14.3721C12.9873 14.7335 12.3868 14.9786 11.7554 15.091V14.9645H11.9524C12.0047 14.9645 12.0548 14.9437 12.0918 14.9068C12.1287 14.8698 12.1495 14.8197 12.1495 14.7674V13.5851C12.1488 13.3981 12.095 13.215 11.9942 13.0575C11.8934 12.8999 11.7498 12.7743 11.5802 12.6953C11.6737 12.5795 11.7326 12.4397 11.75 12.2919C11.7674 12.1441 11.7425 11.9944 11.6784 11.8602C11.6143 11.7259 11.5135 11.6125 11.3876 11.5331C11.2617 11.4538 11.116 11.4116 10.9672 11.4116C10.8184 11.4116 10.6726 11.4538 10.5467 11.5331C10.4209 11.6125 10.32 11.7259 10.2559 11.8602C10.1918 11.9944 10.167 12.1441 10.1844 12.2919C10.2017 12.4397 10.2606 12.5795 10.3541 12.6953C10.1846 12.7743 10.041 12.8999 9.94016 13.0575C9.83935 13.215 9.78548 13.3981 9.78486 13.5851V14.7674C9.78486 14.8197 9.80563 14.8698 9.84258 14.9068C9.87953 14.9437 9.92965 14.9645 9.98191 14.9645H10.179V15.091C9.54749 14.9786 8.94702 14.7335 8.41715 14.3721C7.88729 14.0106 7.44007 13.5409 7.10498 12.994H7.22321C7.27548 12.994 7.3256 12.9732 7.36255 12.9363C7.3995 12.8993 7.42026 12.8492 7.42026 12.7969V11.6146C7.41965 11.4276 7.36578 11.2445 7.26497 11.087C7.16416 10.9294 7.02057 10.8038 6.85099 10.7248C6.92591 10.6328 6.97884 10.5249 7.00573 10.4094C7.03262 10.2938 7.03277 10.1737 7.00616 10.0581C6.97955 9.94246 6.92688 9.83446 6.85218 9.74231C6.77748 9.65015 6.68271 9.57627 6.57512 9.52631C6.77926 8.70795 7.20856 7.96314 7.81436 7.3763V8.06775C7.81436 8.12001 7.83512 8.17013 7.87208 8.20708C7.90903 8.24404 7.95915 8.2648 8.01141 8.2648H8.20846V9.64415C8.20846 9.69641 8.22923 9.74653 8.26618 9.78348C8.30313 9.82044 8.35325 9.8412 8.40551 9.8412H9.58781C9.64008 9.8412 9.6902 9.82044 9.72715 9.78348C9.7641 9.74653 9.78486 9.69641 9.78486 9.64415V8.2648H9.98191C10.0342 8.2648 10.0843 8.24404 10.1213 8.20708C10.1582 8.17013 10.179 8.12001 10.179 8.06775V6.88545C10.1783 6.63949 10.085 6.40281 9.91768 6.22257C10.6078 6.05905 11.3265 6.05905 12.0167 6.22257C11.8493 6.40281 11.756 6.63949 11.7554 6.88545V8.06775C11.7554 8.12001 11.7761 8.17013 11.8131 8.20708C11.85 8.24404 11.9002 8.2648 11.9524 8.2648H12.1495V9.64415C12.1495 9.69641 12.1702 9.74653 12.2072 9.78348C12.2441 9.82044 12.2943 9.8412 12.3465 9.8412H13.5288C13.5811 9.8412 13.6312 9.82044 13.6682 9.78348C13.7051 9.74653 13.7259 9.69641 13.7259 9.64415V8.2648H13.9229C13.9752 8.2648 14.0253 8.24404 14.0623 8.20708C14.0992 8.17013 14.12 8.12001 14.12 8.06775V7.3763C14.7254 7.96313 15.1544 8.70779 15.3584 9.52592C15.2508 9.57588 15.1561 9.64975 15.0814 9.74191C15.0067 9.83407 14.954 9.94207 14.9274 10.0577C14.9008 10.1733 14.9009 10.2934 14.9278 10.409C14.9547 10.5245 15.0076 10.6324 15.0826 10.7244C14.9131 10.8035 14.7696 10.9292 14.6689 11.0869C14.5683 11.2445 14.5145 11.4276 14.5141 11.6146V12.7969C14.5141 12.8492 14.5348 12.8993 14.5718 12.9363C14.6087 12.9732 14.6589 12.994 14.7111 12.994ZM16.4846 12.5999H16.2875C16.2353 12.5999 16.1851 12.6207 16.1482 12.6576C16.1112 12.6946 16.0905 12.7447 16.0905 12.7969V14.1763H15.3023V12.7969C15.3023 12.7447 15.2815 12.6946 15.2446 12.6576C15.2076 12.6207 15.1575 12.5999 15.1052 12.5999H14.9082V11.6146C14.9082 11.4579 14.9704 11.3075 15.0813 11.1966C15.1922 11.0858 15.3425 11.0235 15.4993 11.0235H15.8934C16.0502 11.0235 16.2006 11.0858 16.3114 11.1966C16.4223 11.3075 16.4846 11.4579 16.4846 11.6146V12.5999Z" fill="white"/>
</svg>
