<svg width="23" height="17" viewBox="0 0 23 17" fill="none" xmlns="http://www.w3.org/2000/svg">
<path d="M11.5835 4.88396C11.5835 7.11069 9.81675 8.91583 7.63723 8.91583C5.4578 8.91583 3.69098 7.11069 3.69098 4.88396C3.69098 2.65718 5.4578 0.852042 7.63723 0.852042C9.81675 0.852042 11.5835 2.65718 11.5835 4.88396Z" stroke="#D6DDEA" stroke-width="1.3" stroke-miterlimit="10"/>
<path d="M1.7647 16.1255C1.09235 16.1255 0.574269 15.5062 0.6943 14.8303C1.29149 11.4666 4.17283 8.91584 7.63729 8.91584C11.1018 8.91584 13.983 11.4666 14.5803 14.8303C14.7003 15.5062 14.1822 16.1255 13.5098 16.1255H1.7647Z" stroke="#D6DDEA" stroke-width="1.3" stroke-miterlimit="10"/>
<path d="M19.9961 4.32339C19.9961 6.04713 18.6285 7.44452 16.9413 7.44452C15.2542 7.44452 13.8865 6.04713 13.8865 4.32339C13.8865 2.5997 15.2542 1.20231 16.9413 1.20231C18.6285 1.20231 19.9961 2.5997 19.9961 4.32339Z" stroke="#D6DDEA" stroke-width="1.3" stroke-miterlimit="10"/>
<path d="M12.0637 10.5103C12.9639 8.69152 14.8101 7.44449 16.9413 7.44449C19.6231 7.44449 21.8536 9.41903 22.3159 12.0228C22.4088 12.546 22.0077 13.0255 21.4872 13.0255H14.01" stroke="#D6DDEA" stroke-width="1.3" stroke-miterlimit="10"/>
</svg>
