<svg width="18" height="13" viewBox="0 0 18 13" fill="none" xmlns="http://www.w3.org/2000/svg">
<path d="M9.02637 3.70856C8.42963 3.70856 7.85733 3.95878 7.43538 4.40418C7.01342 4.84958 6.77637 5.45367 6.77637 6.08356C6.77637 6.71345 7.01342 7.31754 7.43538 7.76294C7.85733 8.20833 8.42963 8.45856 9.02637 8.45856C9.6231 8.45856 10.1954 8.20833 10.6174 7.76294C11.0393 7.31754 11.2764 6.71345 11.2764 6.08356C11.2764 5.45367 11.0393 4.84958 10.6174 4.40418C10.1954 3.95878 9.6231 3.70856 9.02637 3.70856ZM9.02637 10.0419C8.03181 10.0419 7.07798 9.62485 6.37472 8.88252C5.67146 8.14019 5.27637 7.13337 5.27637 6.08356C5.27637 5.03374 5.67146 4.02692 6.37472 3.28459C7.07798 2.54226 8.03181 2.12522 9.02637 2.12522C10.0209 2.12522 10.9748 2.54226 11.678 3.28459C12.3813 4.02692 12.7764 5.03374 12.7764 6.08356C12.7764 7.13337 12.3813 8.14019 11.678 8.88252C10.9748 9.62485 10.0209 10.0419 9.02637 10.0419ZM9.02637 0.146057C5.27637 0.146057 2.07387 2.60814 0.776367 6.08356C2.07387 9.55897 5.27637 12.0211 9.02637 12.0211C12.7764 12.0211 15.9789 9.55897 17.2764 6.08356C15.9789 2.60814 12.7764 0.146057 9.02637 0.146057Z" fill="#2B2B2B"/>
</svg>
